<?xml version="1.0" encoding="utf-8"?>
<!-- Generator: Adobe Illustrator 23.0.6, SVG Export Plug-In . SVG Version: 6.00 Build 0)  -->
<svg version="1.1" id="Layer_1" xmlns="http://www.w3.org/2000/svg" xmlns:xlink="http://www.w3.org/1999/xlink" x="0px" y="0px"
	 viewBox="0 0 100 120" style="enable-background:new 0 0 100 120;" xml:space="preserve">
<style type="text/css">
	.st0{fill:#FF7BAC;}
	.st1{font-family:'Badonk-a-donk';}
	.st2{font-size:10px;}
	.st3{letter-spacing:-1;}
	.st4{clip-path:url(#SVGID_2_);}
	.st5{fill:#FFFFFF;}
</style>
<title>AvalonCards</title>
<rect class="st0" width="100" height="120.1"/>
<text transform="matrix(1 0 0 1 17.33 15.36)" class="st1 st2">A</text>
<text transform="matrix(1 0 0 1 27.15 15.36)" class="st1 st2 st3">ss</text>
<text transform="matrix(1 0 0 1 41.9 15.36)" class="st1 st2">a</text>
<text transform="matrix(1 0 0 1 51.72 15.36)" class="st1 st2 st3">s</text>
<text transform="matrix(1 0 0 1 59.1 15.36)" class="st1 st2">sin</text>
<g>
	<defs>
		<rect id="SVGID_1_" x="2.7" y="21.8" width="95.2" height="98.3"/>
	</defs>
	<clipPath id="SVGID_2_">
		<use xlink:href="#SVGID_1_"  style="overflow:visible;"/>
	</clipPath>
	<g id="Avalon" class="st4">
		<path class="st5" d="M21.6,121.3L21.6,121.3c0.7,0.3,1.5,0.4,2.3,0.6c1,0,1.9-0.2,2.9-0.2c8,0.2,15.9,0.4,23.8,0.7
			c2.2,0.1,4.3,0.3,6.5,0.4c3,0.1,6.2,0.9,8.9-1.3c1,1.3,2.4,1.8,3.3,3.2c1.2,1.8,4.7,1.7,6.4,0.2c0.2-0.2,0.5-0.4,0.8-0.5
			c2.2-0.3,3.8-1.8,5.4-3c2-1.6,3.1-3.6,2-6.2c-0.6-1.5-1.4-2.8-2.2-4.3c1.7-3.1,1-8.8-1.6-11.8l0.1,0.1C80,97.6,79.6,96,79,94.4
			c-1.1-2.3-0.4-4.4-0.3-6.8l6.4,0.3c-0.4-1-1.4-1.6-2.4-1.7c-1.2-0.1-2.4-0.4-3.8-0.6c0-1,0-1.8,0-2.5c0.2-4.4,0.7-8.8,0.6-13.2
			c-0.2-10.5-0.8-21.1-1.2-31.6c-0.2-1.6-0.5-3.2-0.9-4.7c-0.1-0.3-0.5-0.6-0.8-1.1c-0.9,1.8-1.6,3.7-1.9,5.7
			c-0.3,2.3-0.7,4.7-1.2,7c-1.2,6-2.4,12.1-2.6,18.2c-0.1,3.7-0.5,7.4-0.8,11.1c0,0.6,0,1.1,0,1.7v9.4h-5.9c1.6,2,4,1.1,5.8,2.1
			l-0.7,3l-6.2-1.9c-0.1-1.5-0.1-3.1-0.2-4.7c-0.3-3.5-0.8-6.9-0.9-10.4c0-4.1-0.3-8.2-0.8-12.3c-0.6-4.9-1.3-9.8-3-14.5
			c-0.1-0.3-0.3-0.7-0.2-1c0.6-1.4-0.3-2.1-1.2-2.8s-2.5-1.6-2.8-2.7c-0.6-2-2-1.9-3.4-2c-1.5-0.1-3.1-0.2-4.6-0.1
			c-1,0-2,0.1-2.9,0.2c-1.2,0.1-2.5,0.2-3.7,0.5c-3.4,1-6.5,2.6-9.3,4.7c-0.5,0.4-1,0.9-1.4,1.5c-0.8,1-1.4,2.4-2.4,3.1
			c-1,0.8-1.7,2-1.7,3.3c-0.5,3.2-0.7,6.4-1.2,9.5c-1.7,11-2.5,21.9-2.3,32.9c0.1,1.6-0.3,3.2-0.9,4.6c-1.5,3-2,6.4-1.5,9.8
			c0.4,2.7,0.4,5.4,0.6,8.1c0.1,1.8,0.4,3.6,0.6,5.3L21.6,121.3z"/>
		<path d="M80.2,99c2.6,3,3.3,8.7,1.6,11.8c0.7,1.4,1.6,2.8,2.2,4.3c1,2.6-0.1,4.7-2,6.2c-1.6,1.3-3.2,2.7-5.4,3
			c-0.3,0.1-0.6,0.3-0.8,0.5c-1.7,1.4-5.2,1.5-6.4-0.2c-0.9-1.4-2.3-1.8-3.3-3.2c-2.8,2.2-5.9,1.4-8.9,1.3c-2.2-0.1-4.3-0.3-6.5-0.4
			c-7.9-0.3-15.9-0.5-23.8-0.7c-1,0-1.9,0.2-2.9,0.2c-0.8-0.1-1.6-0.3-2.3-0.6c0.3-0.4,0.9-0.7,1-1.1c0.2-2.8,0.4-5.6,0.5-8.3
			s-0.1-5.9,1.5-8.5c0.6-0.9,0.3-1.7-0.3-2.8l-1.7,1.8c-0.5-1.1-1-2.1-1.5-3.2c-0.7,1.3-1.2,2.7-1.2,4.2c0,1.3,0,2.6,0,3.9
			c0,1.1-0.1,2.2,0,3.3c0.1,2.4,0.4,4.7,0.5,7.1c0,1.3,0.5,2.6,1.3,3.6l-1.8,0.5c-0.2-1.8-0.4-3.6-0.6-5.3c-0.2-2.7-0.2-5.4-0.6-8.1
			c-0.5-3.3,0-6.7,1.5-9.8c0.6-1.4,0.9-3,0.9-4.5c-0.1-11,0.6-21.9,2.3-32.7c0.5-3.2,0.7-6.3,1.2-9.5c0.1-1.3,0.7-2.5,1.7-3.3
			c1-0.7,1.6-2.1,2.4-3.1c0.4-0.6,0.9-1.1,1.4-1.5c2.8-2.1,5.9-3.8,9.3-4.8c1.2-0.3,2.5-0.4,3.7-0.5c1-0.1,1.9-0.2,2.9-0.2
			c1.5-0.1,3.1-0.1,4.6,0.1c1.3,0.2,2.8,0,3.4,2c0.3,1.1,1.8,1.8,2.8,2.7s1.8,1.4,1.2,2.8c-0.1,0.2,0.1,0.7,0.2,1
			c1.8,4.7,2.4,9.6,3,14.5c0.5,4.1,0.7,8.2,0.8,12.3c0.1,3.5,0.6,7,0.9,10.4c0.1,1.6,0.1,3.2,0.2,4.7l6.2,1.9l0.7-3
			c-1.7-1-4.2-0.1-5.8-2.1h5.9v-9.4c0-0.6,0-1.1,0-1.7c0.3-3.7,0.7-7.4,0.8-11.1c0.2-6.2,1.4-12.2,2.5-18.2c0.4-2.3,0.9-4.7,1.2-7
			c0.3-2,1-3.9,1.9-5.7c0.4,0.5,0.8,0.7,0.8,1.1c0.4,1.5,0.7,3.1,0.9,4.7c0.5,10.5,1,21.1,1.2,31.6c0.1,4.4-0.4,8.8-0.6,13.2
			c0,0.8,0,1.5,0,2.5c1.3,0.2,2.6,0.5,3.8,0.6c1.1,0,2,0.7,2.4,1.7l-6.4-0.3c-0.1,2.4-0.8,4.6,0.3,6.8C79.5,95.9,79.9,97.5,80.2,99
			l-2.6-4.6c-2.4,0.7-5.5,0.1-7.7,2.4C69.7,97,69.5,97,69.3,97c-1.4-0.6-2.1,0.6-3.2,1c0,1.2,0.1,2.3,1.2,2.9l9.9-2.9
			c-0.2,1.3-1.1,1.5-2,1.8c-1.9,0.5-3.8,1-5.6,1.6c-0.5,0.1-0.9,0.3-1.3,0.5c-0.4,0.4-1,1-0.9,1.4c0.3,0.5,0.8,0.9,1.4,0.9
			c1.2,0,2.4-0.2,3.5-0.5s2.1-0.8,3.1-1.2c0.8-0.4,1.7-0.3,2.3,0.4c-0.7,0.2-1.2,0.3-1.7,0.5c-1,0.3-2,0.6-2.8,1.2
			c-0.5,0.4-1.2,0.7-1.9,0.6c-0.6,0-1.2,0-1.8,0c-0.1,2.4,0.4,2.9,2.4,2.4c1.2-0.4,2.4-0.8,3.5-1.3c0.6-0.2,1.2-0.2,1.6,0.7
			l-4.3,1.6c-1,0.4-1.5,1.5-1.1,2.5l0,0c0.3,0.9,1,1,1.9,0.7c0.4-0.2,0.8-0.2,1.2-0.2c2.4,0,4.4-0.5,5.9-2.8
			c0.7-1.1,1.4-2.1,1.2-3.4c-0.2-1.5-0.6-3-1-4.5C80.6,100.3,80.4,99.6,80.2,99z M75.4,116c-0.7,0.8-0.7,0.8-0.6,2.1
			C75,117.5,75.2,116.8,75.4,116l0.1-3.1h-0.6C75,113.9,75.2,114.9,75.4,116z M47.3,85.1l0.5-0.8c-0.9,0.1-1.5,0.3-1.6,1.3
			L47.3,85.1c0,2.5-0.8,3.9-2.7,4.2c-1.2,0-2.3-0.1-3.4-0.5c-1.5-0.5-1.8-2-2.1-3.2c-1.6-0.5-1.6,0.8-1.9,1.6
			c-0.4-0.1-0.8-0.3-1-0.2c-1,0.7-2.1,1.4-3,2.2c-0.4,0.3-0.7,0.7-0.8,1.1c-0.2,1.3-0.2,2.7-0.3,4.5c2.8-2,5.3-3.9,7-6.6
			c0.2,0.1,0.3,0.3,0.5,0.4c0.9,1.6,2.7,2.6,4.5,2.4c2-0.1,3.8-1.5,4.2-3.5c0.2-0.6,0.5-1.2,0.8-1.8c0.8,1.9,2.3,3.5,4.2,4.3
			c0-3.7-0.3-4-3.5-4.4C48.9,85.5,48.1,85.3,47.3,85.1z M33,75.5l2.5,2.8c1.7,1.9,4,2.7,6.1,3.9c-2.1,0.2-0.8,2-1.4,3
			c-0.2,0.3,0.4,1.2,0.7,1.8c0,0.1,0.1,0.1,0.2,0.1c1.4,0.5,2.8,0.9,4.2,0.2v-4.6c-1.3-0.4-2.7,0.8-3.7-0.5c1.8,0.2,3.6-0.6,4.8-2.1
			c1.7-2.1,3.2-4.2,4.7-6.4c0.4-0.6,0.5-1.3,0.5-1.9c0-1.9-0.2-3.9-0.4-5.8c-0.1-1-0.4-2-0.6-3.4c-0.8,1-0.7,2.2-2,2.1
			c-0.9,0-1.8,0-2.7,0.1c1.5-1.4,2.9-2.5,5.3-2.5c-1-1.8,0.6-3.9-1.6-5.2c-0.2-0.1-0.1-0.5-0.2-0.8c-0.2-0.5-0.5-1-0.7-1.4l-3.2,1.4
			l-0.4-0.8L43.6,58l-0.9-3.3h-0.2c0.1,1,0.2,2,0.3,3l-0.5,0.1l-0.8-2.9h-0.3L40.6,57c-0.4-0.1-0.8-0.4-0.9-0.3
			c-0.6,0.5-1,1.2-1.5,1.8c-0.1,0.1-0.2,0-0.5,0.1L37,56.8l-0.3,2.5l-1.1-2.4L35.3,57l0.3,2c-2-0.6-1.4-2.7-2.7-3.8v4.7
			c3.7,1.3,3.7,1.3,3.8,2.8c-0.7-0.3-1.3-0.6-1.9-0.8s-1.2-0.5-2.1-0.7v2.2c2.7,0.7,4.2,1.5,4.8,2.7h-5.2c0,2.6,0,4.9,0,7.3
			c0.1,0.6,0.2,1.2,0.3,1.8c-0.2,0.3-0.3,0.6-0.3,1c-0.1,3.8-0.1,7.7-0.1,11.5c0,0.1,0.1,0.2,0.2,0.3c1-0.1,1.1-0.8,1-1.7
			c-0.2-2.9-0.2-5.9-0.4-8.8C33.2,76.7,33,76.1,33,75.5z M76.8,34.5h-0.4c-3.8,16.7-4.7,33.7-4.5,50.9h2c0-2.4-0.1-4.7,0-7
			c0.2-4.1,0.6-8.2,1-12.3c0.1-0.3,0.2-0.7,0.3-1l0.4,0.1v20.4l1.4-0.1c0.4-0.9,0.7-1.8,0.9-2.8c0-5.2,1.3-10.2,0.7-15.4
			c-0.4-3.5-0.1-7.1-0.2-10.6c0-2.1,0.1-4.2-0.9-6.2c-0.2-0.5-0.2-1-0.2-1.4c0-2.5,0-5-0.1-7.5C77.1,39.1,76.9,36.8,76.8,34.5
			L76.8,34.5z M80.4,111c-0.4,0.3-0.8,0.6-1.2,0.9c-0.4,0.2-0.9,0.2-1.3,0.4c-0.3,0.2-0.5,0.5-0.6,0.8c-0.5,3.3-1.4,6.5-0.5,10.2
			c2.1-1.7,4.3-3.1,5.8-5.2c0.2-0.5,0.3-1,0.3-1.6C82.7,114.5,81.8,112.6,80.4,111L80.4,111z M27.3,48.8l0.4,0.4
			c1.7-1.3,3.4-2.6,5-4c1.2-1.1,3.1-0.7,3.9-2.1c1.1,0.5,1.7-0.4,2.5-0.8c0.6-0.3,1.2-0.5,1.8-0.7c2.3-0.5,4.6-0.8,6.9-1
			c1.2-0.1,2.5,0.2,3.5,0.9c1.9,1.2,4,2.3,5,4.6c0.1,0.2,0.3,0.2,0.7,0.5c-0.3-1.3-0.5-2.3-1.6-3c-1.5-1-3-2.1-4.6-2.9
			c-1.1-0.6-2.3-1-3.5-1.1c-5.2,0.2-10.5,0.6-14.7,4.3c-1,0.9-2.2,1.7-3.3,2.6C28.7,47.1,27.9,47.9,27.3,48.8z M63.4,89.6
			c0,1.3,0,2.4,0,3.5c0,1.8,0.4,3.3,2.3,4l3.4-1.5c-0.1-0.6-0.1-1.1,0-1.7c0.3-1.2-0.3-2.5-1.5-2.8C66.3,90.5,64.9,90.1,63.4,89.6z
			 M61.4,102.3c0.4,0.6,0.5,1.3,0.9,1.5c2,1,3.6,2.8,4.5,4.9c0.6-0.4,1.2-0.6,1.3-1c0.1-0.8,0.1-1.7,0.1-2.5l-1.5-0.1
			c-0.2-1.9-0.5-3.7-2.3-5L61.4,102.3z M26.2,54.3c-2.3,6.3-2,13-2.6,19.6c1.2-5.1,2.2-10.3,3.3-15.4c0.1-0.3,0.1-0.7,0-1
			C26.6,56.4,26.4,55.4,26.2,54.3L26.2,54.3z M28.3,66.9c-0.8,7.1-1.9,14.2-1,21.3C28.2,81.1,28.5,74,28.3,66.9L28.3,66.9z
			 M70.5,112.1c-0.2,0.9-0.3,1.8-0.4,2.8c0,2.2,0.1,4.4,0.2,6.6c0,2.5,0.4,2.8,2.8,2l0.2-0.1c-1.1-0.8-2-1.8-2-3.3
			c-0.1-1.9,0-3.9,0.2-5.8C71.6,113.4,71.1,112.9,70.5,112.1L70.5,112.1z M52.6,85.4c0.4-2.4-0.5-8.9-1.5-10.6
			c0.2,3.5,0.3,6.5,0.5,9.6C51.6,84.7,52.1,84.9,52.6,85.4z M70.7,90v5l1.3-0.4C72.1,90.9,72.1,90.9,70.7,90z M74,94.4
			c0.6-0.3,1.2-0.4,1.2-0.6c0.2-1.2,0.4-2.5,0.5-3.9C74.3,90.3,74.3,90.3,74,94.4z M71.3,87.7v0.5H78c-0.2-0.2-0.2-0.5-0.3-0.5
			C75.5,87.7,73.4,87.7,71.3,87.7z M76.7,93.1l0.5,0.1l0.4-3.6L77,89.5C76.9,90.8,76.8,91.9,76.7,93.1z M32.4,63.6l0.1,1.8l0.4,0.1
			c0.2-0.3,0.5-0.7,0.5-1S32.9,64,32.4,63.6z M43.8,54.8H44l-0.4-2.1l-0.4,0.1L43.8,54.8z M24.1,93.1L24,94.5h0.3L24.1,93.1z
			 M74.4,120.1c0,0.1-0.1,0.1-0.1,0.2c0,0.3,0,0.7,0,1c0,0,0.1,0,0.1-0.1C74.5,120.8,74.5,120.5,74.4,120.1
			C74.5,120.2,74.5,120.1,74.4,120.1L74.4,120.1z"/>
		<path class="st5" d="M41.5,82.1c-2.1-1.2-4.4-2-6-3.9L33,75.5L32.8,75c-0.2-0.6-0.3-1.2-0.3-1.8c0-2.4,0-4.7,0-7.3h5.2
			c-0.7-1.2-2.2-2-4.8-2.7V61c0.8,0.3,1.5,0.5,2.1,0.7s1.3,0.5,1.9,0.8c-0.1-1.5-0.1-1.5-3.8-2.8V55c1.3,1.1,0.7,3.2,2.7,3.8l-0.3-2
			l0.3-0.1l1.1,2.4l0.3-2.4l0.6,1.7c0.2,0,0.4,0,0.5-0.1c0.5-0.6,1-1.2,1.5-1.8c0.1-0.1,0.5,0.2,0.9,0.3l0.6-2.1h0.3l0.8,2.9
			l0.5-0.1c-0.1-1-0.2-2-0.3-3h0.2l0.9,3.3l1.5-2.4l0.4,0.8l3.2-1.4c0.2,0.3,0.4,0.8,0.7,1.4c0.1,0.2,0,0.7,0.2,0.8
			c2.2,1.3,0.6,3.4,1.6,5.2c-2.4-0.1-3.8,1.1-5.3,2.4c0.9-0.1,1.8-0.2,2.7-0.1c1.3,0.1,1.2-1.1,2-2.1c0.3,1.4,0.5,2.4,0.6,3.4
			c0.2,1.9,0.3,3.9,0.4,5.8c0,0.7-0.2,1.4-0.5,1.9c-1.5,2.2-3.1,4.3-4.7,6.4C45.1,81.6,43.3,82.4,41.5,82.1L41.5,82.1z M42.4,70
			l-1.8-0.5C41.1,70.3,41.6,70.6,42.4,70c0.6,0,1.3,0.1,1.4-1.3L42.4,70z M36.8,74.3c1.8,2.2,4.8,3,7.4,2c1.5-0.5,2.9-1.4,3-3.3
			c-1.6-0.7-3-1.2-4.6,0c-0.4,0.3-0.9,0.4-1.3,0.3C39.5,72.3,38.3,73.5,36.8,74.3L36.8,74.3z M50.3,59.5c-1.9,0.1-3.7,1.1-4.8,2.6
			C47.3,61.7,49,60.8,50.3,59.5z"/>
		<path class="st5" d="M76.8,34.5c0.1,2.3,0.3,4.6,0.4,6.9c0.1,2.5,0.1,5,0.1,7.5c0,0.5,0,1,0.2,1.4c1,2,0.9,4.1,0.9,6.2
			c0,3.5-0.3,7.1,0.2,10.6c0.7,5.2-0.7,10.3-0.7,15.4c-0.2,1-0.5,1.9-0.9,2.8l-1.5,0.1V65.2l-0.4-0.1c-0.2,0.3-0.3,0.7-0.3,1
			c-0.3,4.1-0.7,8.2-1,12.3c-0.1,2.3,0,4.6,0,7h-2c-0.2-17.2,0.8-34.2,4.5-50.9H76.8z M75.6,56.1h0.2v-3.2h-0.2V56.1z M75.4,59.7
			L75.4,59.7l-0.1,2.7h0.1V59.7z"/>
		<path class="st5" d="M80.2,99c0.3,0.6,0.5,1.3,0.7,1.9c0.4,1.5,0.7,3,1,4.5c0.2,1.3-0.4,2.3-1.2,3.4c-1.5,2.3-3.5,2.8-5.9,2.8
			c-0.4,0-0.8,0.1-1.2,0.2c-0.8,0.3-1.5,0.2-1.9-0.7c-0.4-1,0.1-2.1,1.1-2.5l0,0l4.3-1.6c-0.5-0.9-1-0.9-1.6-0.7
			c-1.2,0.5-2.3,0.9-3.5,1.3c-2.1,0.6-2.5,0.1-2.4-2.4c0.6,0,1.2,0,1.8,0c0.7,0,1.4-0.2,1.9-0.6c0.9-0.5,1.8-0.9,2.8-1.2
			c0.5-0.2,1-0.3,1.7-0.5c-0.6-0.7-1.5-0.8-2.3-0.4c-1.1,0.4-2.1,0.9-3.1,1.2c-1.1,0.3-2.3,0.5-3.5,0.5c-0.6-0.1-1.1-0.4-1.4-0.9
			c-0.1-0.4,0.5-1,0.9-1.4c0.4-0.3,0.9-0.4,1.3-0.5c1.9-0.5,3.8-1,5.6-1.6c0.8-0.2,1.8-0.4,2-1.8l-9.9,2.9c-1.1-0.6-1.2-1.6-1.2-2.9
			c1-0.4,1.8-1.6,3.2-1c0.2,0,0.4,0,0.5-0.1c2.2-2.3,5.2-1.7,7.7-2.4l2.7,4.6L80.2,99z"/>
		<path class="st5" d="M21.6,121.3c-0.8-1-1.3-2.3-1.3-3.6c-0.1-2.4-0.4-4.7-0.5-7.1c-0.1-1.1,0-2.2,0-3.3c0-1.3,0.1-2.6,0-3.9
			c0.1-1.5,0.5-2.9,1.2-4.2c0.5,1.1,1,2.1,1.5,3.2l1.7-1.8c0.6,1.1,0.9,1.9,0.3,2.8c-1.7,2.6-1.4,5.6-1.5,8.5s-0.2,5.6-0.5,8.3
			C22.5,120.6,21.9,121,21.6,121.3L21.6,121.3z"/>
		<path class="st5" d="M47.3,85.1c0.8,0.2,1.6,0.3,2.4,0.5c3.2,0.4,3.5,0.7,3.5,4.4c-1.9-0.8-3.4-2.3-4.1-4.3
			c-0.3,0.6-0.6,1.1-0.8,1.8c-0.4,2-2.2,3.5-4.2,3.6c-1.9,0.2-3.6-0.8-4.5-2.4c-0.1-0.2-0.3-0.3-0.5-0.4c-1.7,2.7-4.2,4.5-7,6.6
			c0.1-1.8,0.1-3.1,0.3-4.5c0.1-0.5,0.4-0.8,0.8-1.1c1-0.8,2-1.5,3-2.2c0.2-0.1,0.6,0.1,1,0.2c0.3-0.8,0.3-2,1.9-1.6
			c0.3,1.2,0.6,2.7,2.1,3.2c1.1,0.4,2.3,0.6,3.4,0.5C46.4,89.1,47.3,87.6,47.3,85.1L47.3,85.1z"/>
		<path class="st5" d="M80.4,111.1c1.4,1.5,2.3,3.4,2.4,5.5c0.1,0.5,0,1.1-0.3,1.6c-1.5,2.1-3.7,3.5-5.8,5.2
			c-0.9-3.6,0-6.9,0.5-10.2c0.1-0.3,0.3-0.6,0.6-0.8c0.4-0.2,0.9-0.2,1.3-0.4C79.6,111.7,80,111.4,80.4,111.1z"/>
		<path class="st5" d="M27.3,48.8c0.7-0.9,1.4-1.7,2.1-2.5c1-0.9,2.2-1.7,3.3-2.6c4.3-3.7,9.5-4.1,14.7-4.3c1.3,0.1,2.5,0.5,3.5,1.1
			c1.6,0.8,3.1,1.9,4.6,2.9c1,0.7,1.3,1.7,1.6,3c-0.4-0.2-0.7-0.3-0.7-0.5c-1-2.3-3.1-3.4-5-4.6c-1.1-0.6-2.3-0.9-3.5-0.9
			c-2.3,0.2-4.6,0.5-6.9,1c-0.6,0.2-1.2,0.4-1.8,0.7c-0.8,0.4-1.5,1.3-2.5,0.8C35.8,44.4,34,44,32.8,45c-1.6,1.3-3.3,2.7-5,4
			L27.3,48.8z"/>
		<path class="st5" d="M63.4,89.6c1.5,0.5,2.9,0.9,4.2,1.5c1.2,0.4,1.9,1.6,1.5,2.8c-0.1,0.6-0.1,1.1,0,1.7l-3.4,1.5
			c-1.9-0.7-2.3-2.2-2.3-4C63.4,92,63.4,90.9,63.4,89.6z"/>
		<path class="st5" d="M61.4,102.3l3-2.3c1.8,1.3,2.2,3.1,2.3,5l1.5,0.1c0.1,0.8,0.1,1.7-0.1,2.5c-0.1,0.4-0.8,0.6-1.3,1
			c-0.9-2.1-2.5-3.9-4.5-4.9C62,103.6,61.8,102.9,61.4,102.3z"/>
		<path class="st5" d="M41.4,82.1c1.1,1.3,2.5,0.1,3.7,0.5v4.6c-1.5,0.7-2.8,0.3-4.2-0.2c-0.1,0-0.2-0.1-0.2-0.1
			c-0.3-0.6-0.9-1.5-0.7-1.8C40.7,84.2,39.4,82.3,41.4,82.1L41.4,82.1z"/>
		<path class="st5" d="M26.2,54.3c0.2,1,0.5,2.1,0.6,3.2c0.1,0.3,0.1,0.7,0,1c-1,5.2-2.1,10.3-3.3,15.4
			C24.1,67.4,23.9,60.7,26.2,54.3z"/>
		<path class="st5" d="M28.4,66.9c0.2,7.1-0.2,14.3-1,21.3C26.5,81.1,27.6,74,28.4,66.9z"/>
		<path class="st5" d="M70.5,112.1c0.6,0.8,1,1.2,0.9,2.2c-0.2,1.9-0.2,3.9-0.2,5.8c0,1.5,1,2.4,2,3.3l-0.2,0.1
			c-2.4,0.8-2.8,0.5-2.8-2c0-2.2-0.2-4.4-0.2-6.6C70.2,114,70.3,113.1,70.5,112.1z"/>
		<path class="st5" d="M32.7,75.1l0.2,0.4c0.1,0.6,0.2,1.2,0.2,1.9c0.1,2.9,0.2,5.9,0.4,8.8c0,0.9,0,1.5-1,1.7
			c-0.1-0.1-0.2-0.2-0.2-0.3c0-3.8,0-7.7,0.1-11.5C32.5,75.7,32.6,75.3,32.7,75.1z"/>
		<path class="st5" d="M52.6,85.4c-0.5-0.4-1-0.7-1-0.9c-0.2-3.1-0.3-6.1-0.5-9.6C52.2,76.4,53,82.9,52.6,85.4z"/>
		<path class="st5" d="M70.7,90c1.5,0.9,1.5,0.9,1.3,4.6L70.7,95V90z"/>
		<path class="st5" d="M74,94.4c0.3-4.1,0.3-4.1,1.8-4.5c-0.2,1.4-0.3,2.7-0.5,3.9C75.2,94,74.6,94.1,74,94.4z"/>
		<path class="st5" d="M71.3,87.7c2.1,0,4.2,0,6.3,0c0.1,0,0.2,0.3,0.3,0.5h-6.7L71.3,87.7z"/>
		<path class="st5" d="M76.7,93.1c0.1-1.2,0.2-2.4,0.3-3.6l0.6,0.1l-0.4,3.6L76.7,93.1z"/>
		<path class="st5" d="M32.4,63.6c0.5,0.5,1,0.7,1,0.9s-0.3,0.7-0.5,1l-0.4-0.1L32.4,63.6z"/>
		<path class="st5" d="M75.4,116l-0.5,2.2C74.7,116.8,74.7,116.8,75.4,116L75.4,116z"/>
		<path class="st5" d="M75.4,116c-0.2-1-0.3-2.1-0.5-3.1h0.6C75.5,113.9,75.4,115,75.4,116L75.4,116z"/>
		<path class="st5" d="M43.8,54.8l-0.5-2l0.4-0.1l0.3,2L43.8,54.8z"/>
		<path class="st5" d="M24.1,93.1l0.1,1.5H24L24.1,93.1z"/>
		<path class="st5" d="M47.3,85.1l-1.2,0.5c0.1-1,0.7-1.1,1.6-1.3C47.5,84.7,47.4,84.9,47.3,85.1L47.3,85.1z"/>
		<path d="M36.8,74.4c1.5-0.8,2.7-2,4.5-1c0.5,0.1,1,0,1.3-0.3c1.5-1.1,3-0.6,4.6,0c-0.1,1.9-1.4,2.8-3,3.3
			C41.5,77.4,38.6,76.6,36.8,74.4z M38.3,74.9c3.8,0.6,5.3,0.3,7.7-1.4c-1.7-1.3-2.9-0.2-4,0.9C40.7,74.1,39.5,73.2,38.3,74.9z
			 M44,75.4h-4.4C41,76.7,42.5,76,44,75.4L44,75.4z"/>
		<path d="M50.3,59.5c-1.3,1.3-3,2.2-4.8,2.6C46.6,60.5,48.4,59.6,50.3,59.5z"/>
		<path d="M42.3,70c-0.7,0.7-1.3,0.4-1.8-0.4L42.3,70L42.3,70z"/>
		<path d="M42.4,70l1.4-1.3C43.7,70.1,43,70,42.4,70L42.4,70z"/>
		<path d="M75.6,56.1v-3.2h0.2v3.2H75.6z"/>
		<path d="M75.4,59.7v2.7h-0.1L75.4,59.7L75.4,59.7z"/>
		<path class="st5" d="M38.3,74.9c1.2-1.7,2.4-0.9,3.7-0.4c1.2-1.1,2.3-2.3,4-0.9C43.6,75.2,42.1,75.5,38.3,74.9z"/>
		<path class="st5" d="M44,75.4c-1.5,0.6-3,1.3-4.4,0H44z"/>
	</g>
</g>
</svg>
