<?xml version="1.0" encoding="utf-8"?>
<!-- Generator: Adobe Illustrator 23.0.6, SVG Export Plug-In . SVG Version: 6.00 Build 0)  -->
<svg version="1.1" xmlns="http://www.w3.org/2000/svg" xmlns:xlink="http://www.w3.org/1999/xlink" x="0px" y="0px"
	 viewBox="0 0 461.2 727.3" style="enable-background:new 0 0 461.2 727.3;" xml:space="preserve">
<style type="text/css">
	.st0{opacity:0.7;clip-path:url(#SVGID_2_);fill:#BE894A;stroke:#7C411E;stroke-miterlimit:10;}
	.st1{opacity:0.6;clip-path:url(#SVGID_2_);fill:#4C5326;}
	.st2{opacity:0.7;clip-path:url(#SVGID_2_);fill:#6182A4;}
	.st3{fill:none;stroke:#452F27;stroke-width:2;stroke-miterlimit:10;}
	.st4{opacity:0.24;fill:#E68813;stroke:#452F27;stroke-width:2;stroke-miterlimit:10;}
</style>
<g id="Layer_1">
	<g>
		<defs>
			<path id="SVGID_1_" d="M449.6,727.6H12.4c-6.6,0-12-5.4-12-12V12.3c0-6.6,5.4-12,12-12h437.2c6.6,0,12,5.4,12,12v703.3
				C461.6,722.2,456.2,727.6,449.6,727.6z"/>
		</defs>
		<clipPath id="SVGID_2_">
			<use xlink:href="#SVGID_1_"  style="overflow:visible;"/>
		</clipPath>
		<path class="st0" d="M482,754.1H-13.6c-6.6,0-12-5.4-12-12V-7.9c0-6.6,5.4-12,12-12H482c6.6,0,12,5.4,12,12v750.1
			C494,748.7,488.6,754.1,482,754.1z"/>
		<polygon class="st1" points="-14.8,409.9 124.6,419.9 142.2,417.5 172.7,417.9 206,469.5 225,497.2 241.3,521.8 239.3,531.9 
			241.3,551.3 243.4,600.8 284.7,602.9 295.7,605 310.3,607.1 320.7,605.3 404.2,605 461,607.1 480.2,611.2 480.2,741.8 
			-14.8,741.8 		"/>
		<path class="st1" d="M296.9,429.9h9l10,3.3l8.6,1.3l7.9-2.3v2.3h6l6.8,2.2l5.7,1.9l12,3l4.4,2.5l10.4,3.8l8.2,2.7l3.8,3l5.2,5.2
			l6,3l11.7,11.7l5.2,3l6.5,4.6l6.3,7.1l7.4,7.4l10.1,8.7l8.4,2.5l3.8,3.3l7.1,1.9l11.4,9l1.4,64.8l-56.5-1.9c0,0-7.1-7.1-6.8-13.1
			l-6-1.9l-3.5-1.6l-14.4-3.5l-6-10.9l-10.1-6l-9.5-9.8l-5.7-2.7L346,515.4L336,494.7l-4.6-5.4l-6.5-5.7l-7.4-17.4l-3-12.8l-7.4-12
			L296.9,429.9z"/>
		<path class="st2" d="M-14.8,273.5l116.4,19.6l31.4-32.4l8.8-20.6v-45.1l12.9-12.7h10.4l2.7,3.9l1.9-3.9l3.5-3.9v-2.7l13.1,1.5v7
			l4.2,4.2l4.6-3.1v-5l3.5-0.8l1.5-3.9l5.8,1.9l1.5,3.1h2.7v2.7l5.8,0.4v3.1l2.7,0.4l2.7,1.5V185v-21.2l3.9-4.6l7.2-1.9l1.5,1.2
			l2.2-5l7.7-1.9l1.9,1.4l0.5-74.4c0,0-1.1-3,2-4c0,0,3.9,3.1-0.4,3.8l-0.3,1.8c0,0,9.2,0.1,7.8,17.8c0,0,3.7,12,19.2,11.3l1.2,0.3
			c0,0-2.7,1-2.2,8.5c0,0-0.9,6.1,6.1,7.5c0,0-10.3-1.7-20.7-7.5c0,0-5.8-8.1-5.8-10.4l-4.7-2.3l-0.2,48.7l1.4,0.5l1.7,8.7l3.4,0.2
			l0.3-4.3l2.6-4.3l7.7,1.9l2,4.8l0.5,3.1l3.4-4.4h4.6l2.2,5.1l-0.3,21.3l-4.3,5.8l4.3,2.6l0.5,22l-2.4,6l-0.9,9.3l5.2,1.5l1.5,3.9
			V249l0.8-0.1l4.6-6.4l8.9,2.7l2.7,3.6v5l0.6,0.1l4.5-6.6l9,2.4l2.4,3.8l-0.5,5.3l4.4-6.5l10.9,3.3l4.4-3.8l10.7,3.5l3.9,6.2
			l-7.1,174l5,1.3l10,3.6l8.9,2.7l10.4,4l10.6,3.5l7.7,7.9l11.2,7l3.6,4.7l5.6,4.5l6.7,4.4l7.6,8.2l13.1,11.1l5.2,5.6l9.7,3.6
			l3.6,2.7l6,1.4l11.4,9L474.9-9.8H-12.8L-14.8,273.5z"/>
		<g style="clip-path:url(#SVGID_2_);">
			
				<image style="overflow:visible;" width="2750" height="4200" xlink:href="Illustration Portfolio/Avalon_BG.png"  transform="matrix(0.18 0 0 0.18 -14.6043 -14.0434)">
			</image>
		</g>
		<g style="opacity:0.7;clip-path:url(#SVGID_2_);">
			
				<image style="overflow:visible;" width="2750" height="4200" xlink:href="Illustration Portfolio/Avalon_BG.png"  transform="matrix(0.18 0 0 0.18 -14.6043 -14.0434)">
			</image>
		</g>
	</g>
</g>
<g id="Layer_2">
	<path class="st3" d="M435.7,712.5H26.4c-6.6,0-12-5.4-12-12V27.4c0-6.6,5.4-12,12-12h409.3c6.6,0,12,5.4,12,12v673.1
		C447.7,707.1,442.3,712.5,435.7,712.5z"/>
	<path class="st3" d="M416.3,692.4H45.8c-6.6,0-12-5.4-12-12V47.5c0-6.6,5.4-12,12-12h370.5c6.6,0,12,5.4,12,12v632.9
		C428.3,687,422.9,692.4,416.3,692.4z"/>
	<path class="st4" d="M449.6,727.6H12.4c-6.6,0-12-5.4-12-12V12.3c0-6.6,5.4-12,12-12h437.2c6.6,0,12,5.4,12,12v703.3
		C461.6,722.2,456.2,727.6,449.6,727.6z"/>
</g>
</svg>
