<svg id="Layer_1" data-name="Layer 1" xmlns="http://www.w3.org/2000/svg" viewBox="0 0 100 120"><defs><style>.cls-1{fill:#ff7bac;}.cls-2{fill:#fff;}</style></defs><title>AvalonCards</title><rect class="cls-1" x="-0.25" y="0.19" width="100" height="120"/><ellipse class="cls-2" cx="47.75" cy="60.5" rx="13" ry="14.19"/><path d="M54.92,10.87c-.05,1.61-.15,3.23-.13,4.84,0,3.83.14,7.65.22,11.48a3.78,3.78,0,0,0,.13,1c.88,2.67,1.75,5.35,2.85,8a2.22,2.22,0,0,0,1,1.16,24.34,24.34,0,0,1,5.3,3.9,1.24,1.24,0,0,0,1.08.37,25.37,25.37,0,0,1,4.92.44,9.82,9.82,0,0,0,2.15-.13c1.3-.12,2.59-.22,3.89-.36a14.72,14.72,0,0,0,6.35-1.94,6,6,0,0,1,1.6-.68,23.8,23.8,0,0,1-5.13,3.52c.27.24.47,0,.75.08a1.72,1.72,0,0,1-1.32.69,94.67,94.67,0,0,1-10.62,1.7c-1,.09-1,.11-.7,1.12,0,.15,0,.33,0,.49.18.78.26.84,1.1.59,1.93-.58,3.85-1.18,5.77-1.77.21-.07.4-.21.71-.06-1.3,1-2.89,1.43-4.13,2.48,1.47.17,2.9.5,4.32-.11a10,10,0,0,1,1.21-.54c.53-.14,1-1,1.67-.26,0,0,.4-.14.58-.25a52.59,52.59,0,0,1,6-3,2.6,2.6,0,0,0,.47-.24,3.76,3.76,0,0,1,2.87-.86A25.26,25.26,0,0,0,81,47.74c3.13.07,6.05-1,9.21-.86C89.54,48.65,88,49,86.57,49.5c0,.1,0,.15,0,.17.89,1.18.92,1.24,2.4.74a26.28,26.28,0,0,1,6.79-.86C90.6,52.65,85,55,79.55,57.75c1,.52,2,.47,3,.86-.5.53-1.32.3-1.92.83,2,.18,3.82-.59,5.69-.14s3.66.79,5.81,1.24a10,10,0,0,1-5.45.67c.16.42.64.08.75.5-1.87.43-3.73.87-5.6,1.29a3.93,3.93,0,0,1-1.6-.08c-2.3-.4-4.57-.93-6.89-1.2-.52-.06-1.08-.23-1.56.39,2.14.85,4.41,1,6.81,1.51A47.16,47.16,0,0,1,74,64.79c-.69.19-1.4.31-2.09.48-.5.13-1.15.06-1.24.76s-.42,1.43.34,2.12c1.42,1.3,2.73,2.71,4.08,4.07a2.94,2.94,0,0,1,.88,1.19L71.5,71.32c.1.81.27,1.39.88,1.67,1.81.83,2.43,2.7,3.89,3.87a6.63,6.63,0,0,1-3-1,91.08,91.08,0,0,0,5,11.11A54.24,54.24,0,0,0,84.89,97.1a44.07,44.07,0,0,1-5.67-5.34c.14.95.71,1.52.71,2.3a10.93,10.93,0,0,1-1.11-1,42.25,42.25,0,0,0-5.23-4.58A6.87,6.87,0,0,1,72.32,87c-2.27-3.47-4.75-6.81-7.3-10.1-.53-.68-1.11-1.3-1.68-2-.44.39-.18.64,0,.87.59.85,1.19,1.7,1.8,2.54,1.66,2.28,3.34,4.54,5,6.82a2.76,2.76,0,0,1,.63,1l-.24.17c-1.35-1.5-2.7-3-4-4.49l-4.11-4.58a2.86,2.86,0,0,0-.77,1.25.68.68,0,0,0,.24.91c.37.23.56-.11.76-.3.56-.54.74-.18.89.3a.82.82,0,0,0-1.07.73c0,.07.16.26.24.25a.84.84,0,0,0,.82-.89.25.25,0,0,0,0-.12c.73.32,1.07,1,1.57,1.53,1.66,1.74,3.26,3.52,4.88,5.29a11.45,11.45,0,0,1,1,1.18c3.48,4.88,7.59,9.28,11.49,13.85.36.43.7.88,1,1.34a1,1,0,0,1,.28.71c-.43,0-.61-.35-.85-.56a60.34,60.34,0,0,0-6.24-4.87,3.44,3.44,0,0,1-.77-.7,99.4,99.4,0,0,1-6.48-8.72c-1.69-2.74-3.51-5.42-5.28-8.12,0-.07-.14-.09-.22-.14-.81.72-.81.73-.15,1.6,3.42,4.51,6.42,9.28,9.85,14-.92-.06-1.45-.68-2.34-.71,1.4,2.49,2.74,4.89,4.08,7.3l-.2.1c-.31-.4-.64-.8-.93-1.22-2.83-3.94-6-7.65-9-11.48a5.7,5.7,0,0,0-1.29-1.11c-1.42-1-2.83-2-4.26-2.91-.68-.45-.78-.42-1,.3-.91,2.58-2.1,5.07-2.49,7.79a10.23,10.23,0,0,1-.63,1.81,7.66,7.66,0,0,0-.74,3.22,1.82,1.82,0,0,1-.2.73c-1.28,3.36-2.34,6.79-3.3,10.25-.07.27-.21.53-.33.85a2.67,2.67,0,0,1-.63-2A90.14,90.14,0,0,0,49.71,96c-.45-4-1.11-8-1.94-12-.17-.79-.63-1.06-1.58-1.08,1.18,7.7,2.16,15.37,2.76,23.11C48,104,47,101.9,46.09,99.8a4,4,0,0,1-.2-2,3.22,3.22,0,0,0-.28-1.73q-2.74-6.58-5.79-13a2.16,2.16,0,0,0-.69-1c-2.54,1.77-5.17,3.46-7.63,5.38s-4.44,4.27-7.1,6.14c-.51-1.82.52-3,1.43-4.32-.64,0-1.14-.54-1.54-.4s-.76.69-1.05,1.11C22,91.74,20.05,93,18.41,94.39c-.25-.12-.26-.24-.2-.35,1.19-2.33,2.44-4.63,3.57-7,1.23-2.55,2.81-4.93,4.06-7.48,1.42-2.89,3-5.71,4.17-8.71.4-1,.43-1-.48-1.66-1.89-1.3-3.79-2.58-5.69-3.86a3.5,3.5,0,0,0-1.49-.56c-1-.14-1.92-.35-3-.55.64-.51,1.38-.29,2-.53a.77.77,0,0,0-.57-1c-1-.28-1.75-1.05-2.86-1a4.38,4.38,0,0,1-1-.24c.54-.36.69-.59,0-1a17,17,0,0,0-7.8-2.56,2.72,2.72,0,0,1-1.47-.39,30.56,30.56,0,0,1,6.64.16c-.35-.46-.83-.4-1.1-.66,0-.15.09-.22.2-.26,1.05-.38,2.11-.73,3.15-1.12.49-.18,1-.43,1.42-.64-.13-.44-.45-.38-.69-.39a51,51,0,0,1-6.4-.88,5.65,5.65,0,0,0-1.47-.15,2.09,2.09,0,0,1-1.87-.77c1.69-.08,3.34.2,5,0,3.66-.42,7.31-.9,10.92-1.61a13.31,13.31,0,0,0,3.17-1.38c.41-.19.44-.47.35-.84a2.62,2.62,0,0,0-.76-1.18l-3.83-4.11c-.29-.32-.56-.64-1-1.09,1,0,1.7.69,2.74.66-2.16-1.37-4.57-2.13-6.08-4.12-.82-1.08-1.86-2-2.94-3.19,1.81.13,2.93,1.24,4.37,1.57s2.67,1.11,4.2,1.45c-.11-1.47-1.39-2.47-1.36-4,1.57,1.11,2.69,2.56,4.45,3.43a2.73,2.73,0,0,0-.62-2,16.32,16.32,0,0,0-1-1.38.94.94,0,0,1-.27-.93,1.57,1.57,0,0,0-.59-1.72c-1.84-1.7-3.24-3.76-5-5.51a2.94,2.94,0,0,1-.72-1.06l-2.07-5.26a.5.5,0,0,1,0-.54,2.74,2.74,0,0,1,1.5,1.12A96.54,96.54,0,0,0,26.4,31,129,129,0,0,0,37.32,41.22c.79-.82.81-.85.14-1.52-1.55-1.54-3.12-3.06-4.68-4.59-.34-.33-.66-.67-1-1l.19-.23L38.44,38c.48-.28.39-.71.49-1.06s0-.56-.39-.71c-2.52-1.09-4.89-2.47-7.31-3.69-.25.16-.09.47-.39.59-3.51-3.33-6.66-7-10-10.56l2.69,1.53c.92.52,1.84,1,2.8,1.53a5.6,5.6,0,0,1,2.28,2.11,2.61,2.61,0,0,0,.89.92c3.16,1.88,6.3,3.78,9.55,5.52a5.13,5.13,0,0,0,.6.22c2.09-8,4.22-16,3.87-24.29a10.36,10.36,0,0,1,.81,3.58c.18,1.26.33,2.52.57,3.79.75-2,.65-4.08,1.32-6.05A61.41,61.41,0,0,1,46,19a3,3,0,0,0,.71-1.87c.49-2.67.81-5.37,1.06-8.08a12.24,12.24,0,0,1,.74-3.18A56.37,56.37,0,0,0,50,12a22.38,22.38,0,0,1,1,6.63c.2,3.45-.38,6.84-.57,10.26-.12,2.23-.34,4.47-.52,6.71,1.21,0,1.28,0,1.24-.92-.07-2.09.14-4.16.19-6.24,0-2.24.26-4.49.39-6.73.08-1.3.13-2.61.19-4.06.7.53.73,1.37,1.46,1.89.39-2.64.74-5.15,1.13-7.65,0-.33-.2-.82.39-1Zm23.4,43.49a14.21,14.21,0,0,0-4.86,2,1.79,1.79,0,0,0,1.9.27c1-.42,2.08-.78,3.12-1.18a5.49,5.49,0,0,0,1.6-.81c-.77-.25-1.42.22-2.11.14.1-.26.35-.28.31-.49a5.5,5.5,0,0,0,2.36-.7,22.77,22.77,0,0,0-5-.51.49.49,0,0,0-.54.59,5.44,5.44,0,0,0,1.55.19A2.67,2.67,0,0,1,78.32,54.36ZM37.52,80c.19-.22.53-.38.42-.84a1.25,1.25,0,0,0-.79.62c-.06.11.1.18.25.15a1.67,1.67,0,0,1-.67.59l-8.6,4.51c-.16.09-.36.27-.57-.06,2.3-2,4.9-3.67,7.32-5.55a28.67,28.67,0,0,0-7.14,4.67c-.31.3-.74.6-.8,1-.09.72-.65,1-1.16,1.3A12.48,12.48,0,0,0,23,88.57c.35.12.56-.06.79-.16,2.75-1.24,5.39-2.69,8-4.13a66.32,66.32,0,0,0,6.11-3.72c.2-.14.55-.29.26-.58S37.73,80,37.52,80Zm16.9-16.46a2.93,2.93,0,0,0,2.33-2.37,17.32,17.32,0,0,0,.47-4.8c0-.68.09-1.39-.87-1.63a.65.65,0,0,1-.43-.61,6,6,0,0,0-.92-2.1c-1.2-2.55-3.58-3.56-6.23-4.14a12.82,12.82,0,0,0-5.44.4,2.81,2.81,0,0,0-1.86,1.17c-.47.72-1,1.42-1.44,2.15a5.51,5.51,0,0,0-1.1,2.3,1.67,1.67,0,0,1-1,1.42c-.3.18-.65.32-.66.73,0,1.13-.42,2.31.55,3.28a.57.57,0,0,1,.15.7c-.39.16-.52-.5-.94-.26,0,.12,0,.24-.06.37-.1,1.76.39,3.2,2.35,3.83a.88.88,0,0,1,.52.38,4.83,4.83,0,0,0,1.7,1.78,6.59,6.59,0,0,1,1.94,2.47c.29-.22.08-.9.83-.51a8.55,8.55,0,0,0,1.08.54c.62-.63,1.2,0,1.78,0,.2,0,.35,0,.4-.15.22-.58.5-.44.87-.11a.91.91,0,0,0,1.53-.2c.07-.11.2-.29.25-.27.56.45.28,1.1.87,1.52.33-.78.08-1.56.27-2.25.55,0,.25.68.85.61.15-.77.92-1.43.45-2.4-.19-.4.2-.59.58-.69a4.54,4.54,0,0,0,1.27-.39C55.11,64.08,54.8,63.86,54.42,63.58Zm-6.29-45c0,.16-.07.32-.09.48-.58,4.7-.82,9.41-1,14.13,0,1.53,0,3.06,0,4.59,0,.42,0,.88.79.89l.32-13a2.09,2.09,0,0,1,.39,1.22c.11,1.4.22,2.8.32,4.2.2,2.63.39,5.26.6,7.89.07.87.35,1.17,1.07,1.17.22,0,.46,0,.49-.31a.42.42,0,0,0-.25-.52c-.26-.11-.65,0-.74-.43.24-.19.52,0,.77-.07.65-.12.45-.63.48-1s0-.56-.48-.62c-1.07-.14-1-.16-1.11-1.14,0-.81-.1-1.62-.17-2.42-.32-3.3-.6-6.61-1-9.9C48.31,22,48.35,20.33,48.13,18.6Zm-.24,50.91a9.5,9.5,0,0,1-1.37.91A1.22,1.22,0,0,1,45,70.25c-.15-.12-.73.4-.85-.28,0-.1-.27-.09-.32,0-.18.46-.79.07-1.06.56-.18.34-.57,0-.55-.35a1.49,1.49,0,0,0-.62-1.45c-.1-.06-.22-.22-.2-.31.27-1-.62-1.51-1-2.23s-1.07-.86-1.75-1.14a21,21,0,0,1,1.28,3.19c.21.49.41,1,1,1.08a1,1,0,0,1,.94.91c.12.49.33,1,.49,1.45a1.08,1.08,0,0,0,1.2.79c1.52,0,3.05.06,4.57.14,1.07.07,1.85-.6,2.74-.94.47-.18.57-1,.68-1.61l-1.17-.49c-.28.36.08,1.06-.73,1.06C48.49,70.65,48.16,70.43,47.89,69.51Zm19.83,4c-.3.07-.23.34-.37.5a1.57,1.57,0,0,0,0,2.26,34.24,34.24,0,0,1,2.38,3.34c1.65,2.71,3.43,5.35,5.17,8,.11.17.21.45.6.39-.19-.35-.34-.65-.5-1-1.92-3.78-3.67-7.64-5.35-11.53-.27-.62-.56-1.14-1.33-1.27-.22.43.06.93-.22,1.42ZM29.77,80.87a2,2,0,0,1,.47-1.1,51.15,51.15,0,0,0,3-5.53c.19-.43.37-.87.56-1.3.1-.24.21-.5-.11-.66s-.46.13-.65.31a2.74,2.74,0,0,0-.67.94,34.48,34.48,0,0,1-3.56,6,6.93,6.93,0,0,0-1.07,2.18l1.58-1.46c-.13,1-1.05,1.44-1.28,2.33,2.49-.87,7.59-4.31,8.46-5.74C34.27,78.19,32.17,79.63,29.77,80.87Zm17,11.52c.54-.38.59-.7.39-1.11s-.32-.79-.47-1.19c-1.05-2.88-2.12-5.75-3.35-8.56-.64-1.45-1-1.54-2.31-.63l-.28.23A102.73,102.73,0,0,1,46.78,92.39ZM44.73,37.27c.08-5.58,1-10.85,1.12-16.46-.38,2.05-.65,3.81-1,5.56-.66,2.95-1.39,5.88-2.09,8.83-.13.51-.31,1.09.44,1.24A5.47,5.47,0,0,1,44.73,37.27ZM88.2,51.71c-.13-.38-.38-.36-.59-.39-1-.15-2-.3-2.92-.42-1.88-.23-3.75-.43-5.62-.65-.62-.07-1.18,0-1.44.72,1.62.39,3.31.34,5,.79a2.36,2.36,0,0,1-1.44.3l-4.44.18c-.27,0-.69-.1-.66.49a29.38,29.38,0,0,0,4.69,0,4.58,4.58,0,0,0,2-.44,4.26,4.26,0,0,1,2.7-.45A17.13,17.13,0,0,0,88.2,51.71ZM22.41,28.41l-.23.13c.19.26.36.54.56.8,2.79,3.54,5.59,7.07,8.58,10.46.89,1,1.77,2,2.67,3,.19.21.37.55.92.35C30.68,38.21,26.7,33.19,22.41,28.41ZM50.83,84a.21.21,0,0,0-.25.23c.22,5.63.34,11.26.84,17.16C51.93,99,51.4,85.33,50.83,84Zm-22-28.2c-.06-1.22-.07-1.38-1.49-1.12l-1.18.23-5.41,1c-.27.05-.55.07-.5.44s.35.34.6.32c.85-.08,1.69-.18,2.54-.27Zm-4.93,3.5c-2.56-1-5.2-1.51-7.73-2.34a4.67,4.67,0,0,0-1.3,0c.14.39.47.45.73.58,1.74.9,3.68,1.38,5.38,2.36a1.18,1.18,0,0,0,.92.07A8.31,8.31,0,0,0,23.87,59.31Zm29.34,8.41a31,31,0,0,1-1.05,3.91,4.82,4.82,0,0,0,2.13-4.21c0-.54-.19-1.07.14-1.61.22-.36-.12-.4-.4-.4a.54.54,0,0,0-.59.55M58.79,38c.48,1,.91,1.69,1.21,2.46a1.53,1.53,0,0,0,1.89,1.12c.24,0,.54.09.77-.3A7.15,7.15,0,0,0,58.79,38Zm.09,3.45-1.69-3.66a.44.44,0,0,0-.52-.3c-.31.07-.25.32-.18.5.39,1,.8,2,1.2,3.07C57.89,41.58,58.27,41.67,58.88,41.48ZM31.18,67.85a.85.85,0,0,0-.27-1.16,2.63,2.63,0,0,0-1.68-.63c-.14,0-.28.06-.27.21s0,.27.11.32A8.8,8.8,0,0,0,31.18,67.85ZM43.27,40.66l.58-.07c.65-.11.86-.38.72-.93s-.63-.25-1-.21a1.4,1.4,0,0,0-.58.3c-.2.14-.52.25-.45.55S43,40.67,43.27,40.66Zm11,45.67c.41-.8.71-1.37,1-1.94.18-.38.05-.55-.4-.54s-.82.18-.83.64A3,3,0,0,0,54.31,86.33ZM28.61,63.62c1.58,1,1.7,1,2.46,0C30.25,63.44,29.53,62.88,28.61,63.62Zm1.81-18.93c0-1.42-.08-1.64-1.25-2.19A2,2,0,0,0,30.42,44.69Zm40.42,19.5a4.51,4.51,0,0,0,3.47-.09A13.33,13.33,0,0,0,70.84,64.19Zm14.27-3.12-4.49-.21A15.05,15.05,0,0,0,85.11,61.07ZM56.21,35.89A7.06,7.06,0,0,0,55.32,33,3.62,3.62,0,0,0,56.21,35.89ZM46.11,81.16c0,1.08,0,1.14,1.2,1.16C47.27,81.59,46.69,81.42,46.11,81.16Zm20.61-34.1c0-.35-.07-.66-.53-.59s-.68.22-.61.66a.5.5,0,0,0,.63.48C66.58,47.57,66.78,47.39,66.72,47.06ZM34.44,75.83c1.51-.76,1.64-1.07.69-1.84ZM66.33,45.68c-.08-.33-.24-.54-.63-.48s-.53.12-.48.46.21.54.61.46S66.37,46,66.33,45.68Zm-27.2,32.6c.28.42.39.84.91.67a.41.41,0,0,0,.27-.52C40.07,77.94,39.65,78.18,39.13,78.28Zm11.5-41.52c.21-.08.62.08.63-.39,0-.25-.14-.39-.41-.37s-.79.07-.86.45S50.33,36.71,50.63,36.76ZM50.58,81c.06.54-.38,1.18.29,1.8A2.07,2.07,0,0,0,50.58,81Zm9.06,2.7c.18.8.23.84,1.49,1.34A3.59,3.59,0,0,0,59.64,83.74ZM46.86,80.9c.14-.42.12-.69-.06-.88s-.6-.38-.82-.18,0,.51.28.68S46.62,80.75,46.86,80.9ZM72.49,49.8c-.69,0-1.22-.17-1.8.48C71.42,50.25,72,50.59,72.49,49.8ZM41.64,39.27a2.41,2.41,0,0,0,.87-.87c.11-.15.13-.32-.1-.41s-.37-.1-.46.08A2.1,2.1,0,0,0,41.64,39.27Zm15,42.37a.68.68,0,0,0-.52-.44c-.27-.06-.39.16-.41.36s.2.33.41.41S56.48,81.89,56.62,81.64ZM69.93,51a1.68,1.68,0,0,0,1.57-.43C70.84,50.59,70.33,50.3,69.93,51ZM30.7,62.62c.55.17.9.45,1.53.22C31.75,62.5,31.47,62.1,30.7,62.62Zm0-11.89c.42-.21.56-.49.33-.9-.08-.14-.27-.29-.42-.18s-.13.54-.07.82A1.14,1.14,0,0,0,30.69,50.73Zm34.05-4.8c0-.26-.1-.48-.44-.49-.12,0-.28,0-.26.17a.62.62,0,0,0,.46.52C64.68,46.18,64.7,46,64.74,45.93ZM26.36,62.62a1.43,1.43,0,0,0,1.63,0A3.1,3.1,0,0,0,26.36,62.62ZM65.81,73.43c-.18,0-.26.07-.2.21a.55.55,0,0,0,.45.39.38.38,0,0,0,.26-.22C66.38,73.42,66,73.53,65.81,73.43Zm4.43-15.26C71,58,71,58,71,57.56A1.25,1.25,0,0,0,70.24,58.17ZM43,39.06l.59-.36c-.07-.09-.12-.23-.21-.27-.33-.13-.46.13-.59.33S42.74,39,43,39.06ZM20.83,39c0,.29.23.38.49.42C21.29,39.11,21.08,39,20.83,39Zm3.49,2.79a.3.3,0,0,0,.11-.07s0-.07-.05-.09c-.22-.17-.38-.46-.76-.38A1.42,1.42,0,0,0,24.32,41.76Zm-.8,18.89a.8.8,0,0,0-.81,0ZM66.75,72c-.07,0-.21.08-.21.11a.61.61,0,0,0,.3.51.17.17,0,0,0,.25-.17A.46.46,0,0,0,66.75,72ZM54.46,78.11c-.07.06-.23.12-.24.19s.14.27.32.28a.24.24,0,0,0,.26-.21C54.86,78.12,54.66,78.14,54.46,78.11ZM40.25,43.31a.39.39,0,0,0,.39-.27s0-.16-.11-.2c-.23-.14-.29,0-.36.19S40.08,43.26,40.25,43.31Zm7.37-2.83c0-.08,0-.23-.14-.29s-.22,0-.23.16-.06.37.13.43S47.57,40.65,47.62,40.48ZM56.51,37c.14,0,.27-.08.18-.24a.58.58,0,0,0-.29-.22.18.18,0,0,0-.26.17C56.16,36.85,56.3,36.94,56.51,37Z"/><path d="M17.66,62.62a27.6,27.6,0,0,1-5.45.07C14,61.85,15.87,62.86,17.66,62.62Z"/><path d="M81.23,78.7c-1.55-.13-2.24-1.19-3.26-2A7.26,7.26,0,0,1,81.23,78.7Z"/><path d="M54.92,10.89l-.08-.9c.24.3,0,.59.08.88Z"/><path d="M47.48,60.13a7.7,7.7,0,0,0-2.55,2,3.33,3.33,0,0,1-5.43-.4c-.59-1-1.35-1.88-1.26-3.15A2.87,2.87,0,0,1,42,55.89a5.87,5.87,0,0,0,1.31.27,1.93,1.93,0,0,1,1.82,1.27,1.62,1.62,0,0,0,3,.21,4.61,4.61,0,0,1,5.28-1.33,4.17,4.17,0,0,1,2.49,4.76c-.46,1.65-3.17,2.89-5.1,2.33C49.19,63,48.31,62.08,47.48,60.13Z"/><path d="M46.82,64.57c-.7.35-.76,1.09-1.26,1.52a1.86,1.86,0,0,1,.67-2.77c.72-.53.74-.54,1.14.1s1,1.19,1.06,2c0,.23,0,.44-.2.55a.49.49,0,0,1-.67-.23C47.3,65.36,47.07,65,46.82,64.57Z"/><path class="cls-2" d="M45.66,56.62s1.08,5.58-1.45,7,2.35-2.33,3.88-1.63-1.71-1.63-.9-4.65S45.66,56.62,45.66,56.62Z"/></svg>