<svg id="Layer_1" data-name="Layer 1" xmlns="http://www.w3.org/2000/svg" viewBox="0 0 100 120"><defs><style>.cls-1{fill:#3fa9f5;}.cls-2{fill:#fff;}</style></defs><title>AvalonCards</title><rect class="cls-1" x="-0.75" y="-0.34" width="100" height="120"/><ellipse class="cls-2" cx="50.75" cy="57.66" rx="15" ry="14.19"/><path d="M19.1,45l17.8,3.6a2,2,0,0,0-.39-1.27C34.24,42.52,32,37.73,29.68,33a3.45,3.45,0,0,1-.56-1.63l11.53,9c.86-2.89,1.48-5.7,2.2-8.49s1.4-5.57,2.11-8.35,1.43-5.6,2.37-8.43l8.82,22.32L63.58,28l.23.1c-1.13,5.65-2.26,11.29-3.44,17.21l17.19-7.46.17.15c-.45.55-.9,1.11-1.36,1.66s-1,1.16-1.49,1.73L73.4,43.17,72,44.82,70.5,46.55c-.5.58-1,1.16-1.6,1.9,4.63,1,9.16,1.87,13.67,2.8s9,1.82,13.48,2.94L71.14,63.65,83,71.88l-.08.22c-2.88-.36-5.73-.94-8.6-1.39s-5.72-.95-8.85-1.48c2.42,4.88,4.91,9.48,7.26,14.14l-.18.16-12.9-9.4-8.36,28H51c-2.45-7.21-4.91-14.42-7.43-21.84-2.41,3-4.45,6.06-6.72,9l-.27-.09,2.92-18.25c-6.09,2.34-11.91,4.77-17.92,6.87l10.17-11L4.2,60l0-.23L28,51.92l-9-6.71Zm46,13.24a19.35,19.35,0,0,0-.37-3.41,14.47,14.47,0,0,0-27.95-.36,13.15,13.15,0,0,0,2.08,11.33,14.53,14.53,0,0,0,18.61,4.42A13.63,13.63,0,0,0,65.12,58.21Zm1.94,1.44,21.29-5.06a4.61,4.61,0,0,0-2.16-.44q-9.51-.82-19-1.62c-.78-.07-.82-.05-.77.7.1,1.6.23,3.19.38,4.78A4.17,4.17,0,0,0,67.06,59.65ZM47.39,22.31c-.14.11-.12.26-.14.39-.27,2.25-.55,4.5-.82,6.76Q45.67,35.72,44.92,42c0,.23,0,.45-.05.67s.14.48.48.46a5.65,5.65,0,0,0,.59,0,21.64,21.64,0,0,1,5.84-.54c.36,0,.48-.2.46-.5a4.86,4.86,0,0,0-.1-.55Q49.94,32.23,47.72,23C47.67,22.74,47.66,22.47,47.39,22.31Zm6.93,51.1a.9.9,0,0,0-.75-.15l-4.11.34a2.18,2.18,0,0,0-2.14,2.57q1.55,8.16,3.09,16.34a2.09,2.09,0,0,0,.4,1.09C52,86.75,53.16,80.06,54.32,73.41ZM34.41,62.18c-.12-.57-.21-.93-.27-1.29a11.15,11.15,0,0,1-.25-3.77,1.22,1.22,0,0,0-.62-1.31,1.87,1.87,0,0,0-1.67-.16c-5,1-9.94,1.89-14.91,2.87a12.92,12.92,0,0,0-3.33.88ZM38,69.57a2.91,2.91,0,0,0-2.56-2,1.51,1.51,0,0,0-1.46.36c-1.38,1.28-2.79,2.52-4.19,3.78l-1.7,1.52.12.18ZM65,67.19,75.49,69c-.23-.48-.59-.57-.88-.74l-4.56-2.57c-1.78-1-1.77-1-3.74-.27A1.7,1.7,0,0,0,65,67.19ZM34.18,37.5a.41.41,0,0,0,0,.45c1.28,2.72,2.54,5.45,3.83,8.17.27.56.45.57,1,.19a1.45,1.45,0,0,0,.49-.86c.15-.58.27-1.17.45-1.74a1.12,1.12,0,0,0-.41-1.28c-1-.93-2-1.91-3-2.84A24,24,0,0,0,34.18,37.5ZM67,76.35l.2-.21L63,68.7a24.07,24.07,0,0,0-1.79,2.69c-.32.47-.14.73.27,1,1.17.82,2.32,1.66,3.49,2.49ZM69.89,43.1A44.57,44.57,0,0,0,62,47a24.62,24.62,0,0,0,3.42.82,1,1,0,0,0,1.1-.38c1.08-1.32,2.19-2.62,3.29-3.92C69.86,43.37,70,43.26,69.89,43.1ZM39.73,82l.23.13c.84-1.41,1.69-2.82,2.51-4.24a.72.72,0,0,0,.1-.53,12.88,12.88,0,0,0-1.44-3.53ZM60.27,36.16,60,36c-.5.7-1,1.38-1.5,2.08A5.92,5.92,0,0,0,57.31,40c-.16.73.42,1.46.71,2.18.18.46.22,1,.85,1.39ZM27.17,48.44l-.1.17,3.32,2.24a.6.6,0,0,0,.55.1,25.42,25.42,0,0,0,3.22-1.16Z"/><path d="M48,58a3,3,0,0,0,0,2.38c.1.2.14.48.39.5.72.06,1.33.72,2.13.34.14-.06.34-.13.44,0,.49.64,1.22.42,1.85.44,2.05.08,4.09.1,6.14.14.23,0,.47,0,.71,0,1.25.12,1.32.12,1.25-1s.65-2.12.68-3.27c-.2-.22-.42.31-.68,0,0-.43.53-.5.71-.81,0-.4-.47-.45-.63-.72-.12,0-.21,0-.25.1a2.52,2.52,0,0,0-.51.74c-.23.94-.94.94-1.72.87-.44,0-.87-.33-1.27,0-.32-.31-.09-.66-.32-1-.3-.06-.46.52-.88.26-.08-.45.49-.73.44-1.23-.19-.07-.4-.17-.62-.24-.75-.22-.85-.16-1,.58s-.46,1-1.23,1c-.32,0-.63,0-1,0s-.8.19-1-.17a3,3,0,0,1-.1-1.17.41.41,0,0,1,.36-.39,1.27,1.27,0,0,0,.61-.31l.8-.7A46.61,46.61,0,0,1,50,50.64c-1.16,1.25-1.87,2.62-3,3.92a1.31,1.31,0,0,1,.18-1.09,11.47,11.47,0,0,1,2.47-3c.3-.25.56-.38.9-.06,1.11,1.05,2.24,2.09,3.33,3.15a.79.79,0,0,1,0,1.13c-.29.38-.6.76-.93,1.17C54,56,54,56,54.27,55.2a.85.85,0,0,1,.95-.65,6,6,0,0,1,2.36.66c.39.17.4.5.36.86s-.11.64.34.71.85.28,1.2-.16a6,6,0,0,0,.67-1,.6.6,0,0,1,.93-.33,12.67,12.67,0,0,0,1.53.57c.51.18.8.55.67,1a4.24,4.24,0,0,1-.57,1.69,3.36,3.36,0,0,0-.61,2.85,3.71,3.71,0,0,1,0,.67c0,.55-.31.92-.8.77a1.49,1.49,0,0,0-1,.11,8.79,8.79,0,0,1-2.56,0,56.23,56.23,0,0,0-6.49.22,10.28,10.28,0,0,1-2,0c-2.83-.35-5.65.17-8.48,0-.35,0-.71,0-1.06,0-.94-.11-1.15-.32-1-1.25A3.94,3.94,0,0,0,38,58.92a3.45,3.45,0,0,1-.91-1.79c0-.07-.06-.14-.07-.21-.12-.64.45-1.16,1.68-1.54.67-.21,1-.09,1.31.54.18.32.39.64.56,1s.55.46,1,.37.38-.48.35-.79c-.13-1.54,0-1.71,1.6-2.11a3.73,3.73,0,0,1,.58-.12c1.26-.15,1.38-.08,1.6,1.1.08.36.15.68.67.52.29-.08.55-.16.24-.5-.17-.19-.22-.42,0-.58s.42.06.58.2.49.38.71.6a.68.68,0,0,1-.38,1.24c-.61.13-1.25.16-1.87.23a.45.45,0,0,1-.54-.31,4.79,4.79,0,0,1-.21-.64c-.19-1-.18-1-1.35-.92-.22.46.51,1-.17,1.43-.5-.37-.32-.89-.26-1.38-.64.07-.6.43-.53.83a6,6,0,0,1,.2,2c-.66,0-1.28,0-1.89,0s-1-.11-1.07-.76a1,1,0,0,0-.1-.32c-.35-1-.5-1.07-1.49-.73-.19.07-.54.09-.5.36s.36.06.55.09c.48.11,1.07.95.83,1.37a.57.57,0,0,0,0,.69,4.46,4.46,0,0,1,.62,2.67c-.06.73,0,.66.84.83A9.53,9.53,0,0,0,43,62.19c2.08-.08,4.15-.2,6.29-.31-.21-.51-.72-.55-1.07-.77A1.82,1.82,0,0,1,48,58Z"/><path d="M49.94,57.45a1.76,1.76,0,0,1,1.6,2.31,2.12,2.12,0,0,1-1.92.82,1.21,1.21,0,0,1-1.08-1.26,1.58,1.58,0,0,1,.77-1.42,6.08,6.08,0,0,0,.66-.47ZM50,60.07c.61,0,1-.35,1-.86A1.34,1.34,0,0,0,50,58a1.28,1.28,0,0,0-1,1.19A.92.92,0,0,0,50,60.07Z"/><path d="M50,57.43a1.19,1.19,0,0,0-1.36.16c-.22.14-.33.42-.64.42l0,0a2.6,2.6,0,0,1,2.3-1.31,3.13,3.13,0,0,1,2.64,3.61c-.14.6-.59.91-1.32,1,.16-.59.57-1,.71-1.5a2.17,2.17,0,0,0-1.65-2.66.7.7,0,0,0-.73.23S50,57.43,50,57.43Z"/><path d="M50.1,55.34a2.14,2.14,0,0,1,.59-1.07.57.57,0,0,0,0-.94c-.6-.65-.87-.66-1.22.13-.21.46-.63.76-.79,1.22-.62-.18-.55-.55-.26-.93a5.53,5.53,0,0,1,.74-.71c.28-.24.33-.84,1-.57A2,2,0,0,1,51.33,54,1.7,1.7,0,0,1,50.1,55.34Z"/><path d="M41.56,60.28c0,.49-.32.87-.71.82s-.55-.38-.59-.71.43-1,.75-1S41.56,59.86,41.56,60.28Zm-.79-.53a2.76,2.76,0,0,0-.2.42c0,.18,0,.43.19.44s.29-.26.25-.47A2.4,2.4,0,0,0,40.77,59.75Z"/><path d="M59.53,59.75c0,1,0,1.07-.9,1.06C58.9,60.4,59.39,60.2,59.53,59.75Z"/><path d="M43.81,59.14c0,.43-.28.89.35,1.21C43.31,60.15,43.28,60,43.81,59.14Z"/><path d="M48.66,54.64c.45.11,1,.1,1.05.71A1.28,1.28,0,0,1,48.66,54.64Z"/><path d="M55.74,60.56c-.59-.17-.58-.54-.35-1.07C55.62,59.86,55.53,60.26,55.74,60.56Z"/></svg>