<?xml version="1.0" encoding="utf-8"?>
<!-- Generator: Adobe Illustrator 23.0.6, SVG Export Plug-In . SVG Version: 6.00 Build 0)  -->
<svg version="1.1" id="Layer_1" xmlns="http://www.w3.org/2000/svg" xmlns:xlink="http://www.w3.org/1999/xlink" x="0px" y="0px"
	 viewBox="0 0 100 120" style="enable-background:new 0 0 100 120;" xml:space="preserve">
<style type="text/css">
	.st0{fill:#3FA9F5;}
	.st1{fill:#FFFFFF;}
	.st2{font-family:'Badonk-a-donk';}
	.st3{font-size:10px;}
</style>
<title>AvalonCards</title>
<rect class="st0" width="100" height="120"/>
<path class="st1" d="M27.9,87.4L27.9,87.4c-2,0.9-4.1,1.5-6.3,1.9c-0.7,0.1-1.5,0.3-2.2,0.5c-0.5,0.1-0.8,0.4-1.1,0.8
	c-0.7,1.3-1.6,2.5-2.8,3.4c-0.5,0.5-0.9,1-1.3,1.6c-0.6,0.7-0.9,1.7-1.6,2.1c-1.6,0.9-1.7,2.5-1.5,3.9c0.2,0.8-0.1,1.7-0.7,2.2
	c-0.8,0.7-1.5,1.7-1.8,2.7c-0.9,1.9-1.7,3.8-2.6,5.7c-1,2.1-1.7,4.3-2,6.6c-0.1,0.4-0.2,0.8-0.3,1.2l-1.3,0.4
	c0.3,0.2,0.6,0.2,0.8,0.3c0.2,0.2,0.4,0.4,0.5,0.7l0.7-0.8c0.5,0.7,1.5,0.9,2.2,0.4c0.1-0.1,0.2-0.2,0.3-0.3
	c0.3-0.2,0.6-0.2,0.9-0.2c2-0.1,4-0.1,5.9,0c1.5,0,3,0.5,4.2,1.5c1.7,1.6,3.8,1.2,4.9-0.9c0.1-0.2,0.2-0.3,0.3-0.5h2.1
	c7.9,0,15.8,0.1,23.8,0.2c6,0.1,12.1,0.1,18.1,0.3c5.4,0.2,10.8,0.6,16.2,0.9c3.2,0.2,6.3,0.4,9.4,0.6c3,0.1,6,0.2,9,0.3
	c-3.3-0.8-6.7-0.7-10.1-1.1c0.2-0.5,0.8-0.8,1.3-0.8c1.5,0,3,0.1,4.5,0.1s3.1,0,4.4,0l2.5-2.5c-0.1-0.3-0.3-0.8-0.5-1.3
	c-0.7-1.5-1.5-3-1.5-4.7c-0.1-0.4-0.2-0.8-0.4-1.2c-0.8-1.8-1.6-3.5-2.4-5.2c-1.4-2.9-2.9-5.8-4.3-8.8c-0.4-0.8-0.6-1.8-1-2.7
	c-1.2-2.2-2.7-4.2-4.5-6c-1.1-1.1-2.3-2.2-3.6-3.1c-2.2-1.7-5-2.2-7.5-3.1c-2.2-0.8-4.6-1.2-6.9-1.1c-0.6,0-1.2,0-1.8,0
	c0.3-1.2,0.6-2.4,0.9-3.6C70,78,69.4,77.6,69,78.4c-0.3,0.3-0.6,0.3-1,0.2c-0.8-0.3-1.5-0.7-2-1.3c-0.7-1.2-1.8-2.2-3-3
	c0.6-1.9-0.3-3.4-1-4.8c0.7-0.9,1.3-1.9,1.8-3c0.2-1.1,0.3-2.3,0.2-3.5c2.1-0.4,3.7-2.1,3.9-4.3c0.1-0.6,0-1.1,0.6-1.6
	s0.5-1.1-0.1-1.7c-0.4-0.4-0.8-0.7-1.2-1.1c-2-1.3-3.9-2.6-5.9-3.8c-1.1-0.7-2.3-0.9-3.5-0.6c-0.3,0-0.6,0-0.8,0
	c-0.3-0.7-0.7-1.4-1.2-1.9c-1.8-1.7-3.7-3.3-5.7-4.6c-2.8-1.7-5.4-3.6-7.8-5.7c-3.6-3.2-7.7-6-11-9.5c-1.3-1.1-2.8-2-4.4-2.5
	c-1.3-0.6-2.9-0.4-3.9,0.6c-0.9,0.8-2.1,1.5-2.1,3c0,0.3-0.1,0.5-0.3,0.8c-3,6-6.6,11.7-11.5,16.3c-0.3,0.3-0.8,0.7-0.8,1
	c0.1,0.9-0.6,1.4-0.8,2.2c-0.6,1.6-1.2,3.2,0.1,4.8c2.5-3.1,5.4-5.8,8.6-8c0.3-0.2,0.6-0.5,0.9-0.6c1.5-0.2,2.5-1.3,3.7-2.1
	c0.6-0.5,1.3-1,1.9-1.5c0.4,0.5,0.8,0.9,1.1,1.2c0.4,0.4,0.5,0.9,0.4,1.5c-0.4,3.2-0.7,6.5-1,9.7c-0.2,2-0.3,4-0.4,6.1
	c0,0.7-0.2,1.5,0.9,1.7c0.4,0.1,0.6,0.7,0.3,1.3c-0.6,0.9-1.1,1.8-1.5,2.8c-0.6,1.9-0.2,3,1.4,4.1c0.3,0.2,0.6,0.5,0.9,0.8l-5.1,3
	c1.3,1.2,2.6,0.1,3.9,0.4c-0.2,1.3-1.6,0.9-2.1,1.7l0.7,0.2l-0.6,1.2l2.7-0.9l0.1,0.3l-1.3,0.8l0.1,0.2l3.8-0.2l2.5,1.4l-2.5,3.6
	c0.2,0.3,0.5,0.5,0.5,0.8c0,0.8-0.2,1.5-0.2,2.2C27.4,86.8,27.7,87.1,27.9,87.4z"/>
<path d="M27.9,87.4c-0.2-0.3-0.5-0.6-0.4-1c0-0.8,0.2-1.5,0.2-2.2c0-0.3-0.4-0.6-0.5-0.8l2.5-3.6l-2.5-1.4l-3.8,0.2l-0.1-0.2
	l1.3-0.8l-0.1-0.3l-2.7,0.9l0.6-1.2l-0.7-0.2c0.5-0.8,1.9-0.5,2.1-1.7c-1.2-0.3-2.5,0.8-3.9-0.4l5.1-3c-0.3-0.3-0.6-0.5-0.9-0.8
	c-1.6-1.1-2.1-2.3-1.4-4.1c0.4-1,0.9-1.9,1.5-2.8c0.4-0.6,0.2-1.2-0.3-1.3c-1.1-0.2-1-1.1-0.9-1.7c0.1-2,0.2-4,0.4-6.1
	c0.3-3.2,0.6-6.5,1-9.7c0.1-0.5,0-1.1-0.4-1.5c-0.4-0.3-0.7-0.8-1.1-1.2c-0.7,0.5-1.3,1-1.9,1.5c-1.1,0.8-2.2,1.9-3.7,2.1
	c-0.3,0-0.6,0.4-0.9,0.6c-3.3,2.2-6.2,4.9-8.6,8c-1.3-1.7-0.8-3.3-0.1-4.8c0.3-0.7,1-1.2,0.8-2.2c0-0.3,0.4-0.7,0.8-1
	c4.9-4.7,8.4-10.3,11.5-16.3c0.1-0.2,0.2-0.5,0.3-0.8c0.1-1.5,1.2-2.1,2.1-3c1.1-1,2.6-1.2,3.9-0.6c1.6,0.5,3.1,1.4,4.4,2.5
	c3.4,3.6,7.4,6.3,11,9.5c2.4,2.2,5.1,4.1,7.8,5.7c2.1,1.4,4,2.9,5.7,4.6c0.5,0.6,0.9,1.2,1.2,1.9c0.3,0,0.6,0,0.8,0
	c1.2-0.3,2.5-0.1,3.5,0.6c2,1.2,4,2.5,5.9,3.8c0.4,0.3,0.8,0.7,1.2,1.1c0.5,0.5,0.7,1.1,0.1,1.7s-0.5,1-0.6,1.6
	c-0.2,2.2-1.8,3.9-3.9,4.3c0.1,1.2,0,2.3-0.2,3.5c-0.5,1.1-1.1,2.1-1.8,3c0.6,1.4,1.6,2.9,1,4.8c1.3,0.7,2.4,1.7,3.1,2.9
	c0.5,0.6,1.2,1,2,1.3c0.4,0.1,0.7,0,1-0.2c0.4-0.8,1-0.4,1.7-0.5c-0.3,1.3-0.6,2.4-0.9,3.6c0.7,0,1.2,0,1.8,0
	c2.4-0.1,4.7,0.3,6.9,1.1c2.6,0.9,5.3,1.4,7.5,3.1c1.3,0.9,2.5,2,3.6,3.1c1.7,1.8,3.2,3.8,4.5,6c0.4,0.8,0.6,1.8,1,2.7
	c1.4,2.9,2.9,5.8,4.3,8.8c0.8,1.7,1.6,3.5,2.4,5.2c0.2,0.4,0.4,0.8,0.4,1.2c0,1.7,0.9,3.2,1.5,4.7c0.2,0.5,0.4,1,0.5,1.3l-2.6,2.6
	c-1.4,0-2.9,0-4.4,0s-3-0.1-4.5-0.1c-0.6-0.1-1.2,0.2-1.4,0.7c3.5,0.4,6.8,0.3,10.1,1.1c-3-0.1-6-0.2-9-0.3
	c-3.2-0.2-6.3-0.4-9.4-0.6c-5.4-0.3-10.8-0.7-16.2-0.9c-6-0.2-12.1-0.3-18.1-0.3c-7.9-0.1-15.8-0.1-23.8-0.2h-2.2
	c-0.1,0.2-0.2,0.3-0.3,0.5c-1.1,2-3.2,2.5-4.9,0.9c-1.2-1-2.7-1.5-4.2-1.5c-2-0.1-4-0.1-5.9,0c-0.3,0-0.6,0-0.9,0.2
	c-0.6,0.7-1.6,0.8-2.3,0.2c-0.1-0.1-0.2-0.2-0.3-0.3l-0.7,0.8c-0.1-0.3-0.3-0.5-0.5-0.7c-0.2-0.1-0.5-0.1-0.8-0.3l1.3-0.4
	c0.1-0.4,0.2-0.8,0.3-1.2c0.3-2.3,1-4.5,2-6.6c0.8-1.9,1.7-3.8,2.6-5.7c0.4-1.1,1-2,1.8-2.7c0.6-0.6,0.9-1.4,0.7-2.2
	c-0.1-1.3-0.1-2.9,1.5-3.9c0.7-0.4,1.1-1.4,1.6-2.1c0.4-0.6,0.8-1.1,1.3-1.6c1.2-0.9,2.2-2.1,2.8-3.4c0.3-0.4,0.6-0.7,1.1-0.8
	c0.7-0.2,1.5-0.4,2.2-0.5C23.7,88.9,25.8,88.3,27.9,87.4l2.6-2.6l-0.7,1.6c0.7-0.2,1.2-0.3,1.7-0.5c1-0.3,1.4-0.8,1.3-1.9
	c-0.1-1.2,0-2.3,0.5-3.4c0.2-0.5,0.3-1,0.3-1.6c-1.1-0.3-2-0.8-2.9-0.3c-0.1,0.7-0.1,1.3-0.3,2s-0.5,1.3-0.7,1.9l0.7,0.3
	c-0.7,1.1-1.4,2-2,2.9C28.1,86.4,28,86.9,27.9,87.4z M87.2,109l0.3,2C87.8,110.4,87.7,109.5,87.2,109c-0.2-1.3,0.3-2.6-0.6-3.9
	c-0.4,0.3-1,0.6-0.5,1.1s0.2,0.8,0.3,1.1C86.6,107.9,86.9,108.5,87.2,109z M82.3,95.9l1.1,2.9C83.8,97.7,83.3,96.4,82.3,95.9
	l0.2-1.2l1.1-0.3l-0.1-1.8c-1.3-0.4-2.4,0.1-3.6,0.4L82.3,95.9z M21.1,101.9L21.1,101.9c0.7,2.2,1.2,4.4,1.4,6.7c0.2,2,0.7,4,1.1,6
	c0.1,0.8,0.5,1.5,1.2,1.8c0.8-1,1.1-2.3,0.9-3.6c-0.1-1.6,0-1.6,1.3-2.2c-0.2-1.4-0.3-2.9-0.5-4.4c-0.1-1.5-0.5-3-1.1-4.4
	c-0.7-1.3-0.1-3-1.7-3.9L22.4,99l-0.3-0.3c0.4-0.5,0.8-0.9,1.2-1.4s0.1-0.7-0.4-0.9L22,98l-0.3-0.1l-0.2-1.7
	c-0.5,0.7-0.8,1.1-1.1,1.5s-0.8,0.8-1.4,0.4s-0.2-0.9,0-1.3c0.2-0.4,0.5-0.7,0.8-1c0.6-0.6,1.3-1.2,2-1.8l-1-2c-1,0.6-2,1.3-2.8,2.1
	c-0.9,1-1.6,2.1-2.3,3.2c-0.3,0.4-0.6,0.8-0.9,1.3l1.5,0.7c-1.4,0.3-0.4,1.3-0.7,1.7c-0.6,0.7-0.4,1.2,0.1,1.9l0.9-1.4l1.2,1
	l1.1-2.4c0.4,0.6,0.9,0.9,1.4,0.2C20.7,100.9,20.9,101.4,21.1,101.9L21.1,101.9z M90.9,92.4c-1.2-1.6-2.3-3.3-3.6-4.9
	c-1.2-1.3-2.8-2-4.6-2c2.3,2.3,2.5,5.3,3,8.3l0.8-1.1c0.9,0.9,2,1.4,2.7,2.7c-1.3,0-1.6-1.1-2.5-1.7l-0.2,2.2l3.3,1.2
	c-1.3,0.6-2.1-0.2-3.1-0.2c-0.1,2.8,0.1,5.6,0.4,8.3c0.3,1.7,1.6,2.7,2.7,3.9c0.5,0.5,1.3,0.5,1.8,0c0,0,0,0,0,0
	c0.5-0.4,0.7-1.2,0.3-1.7c-0.2-0.2-0.3-0.4-0.4-0.7c-0.4-1-0.8-1.9-1.1-2.9c0.6,0.8,0.9,1.7,1.4,2.5c0.7,0.7,1.4,1.4,2.2,2
	c0.1-0.4,0.1-0.9,0.1-1.3c-0.4-4.5-1.9-8.8-4.4-12.6c-0.3-0.4-0.6-0.7-1-1c-1.1-1.2-2.3-2.3-2.5-4.1c-0.2-0.7-0.4-1.4-0.7-2.1
	c1.9,1.2,3.3,2.5,3.6,4.9c0.1,0.9,1,1.7,1.6,2.5c0.1,0.1,0.6,0,0.8,0v-0.9l0.8,0.8l0.3-0.2L90.9,92.4z M53.4,74
	c1.1,2.1,4.6,2.3,6.5,1.5c1.7-0.8,2.2-1.9,1.5-3.6c-0.2-0.6-0.6-1.1-1-1.6c-0.9-1-1.9-1.9-3.1-3l2.4,0.3c2.1,0.3,3.3-0.7,3.4-2.8
	c0-0.5,0-1-0.1-1.4c-0.4-0.2-1-0.2-1.2-0.5c-0.4-0.9-1-0.6-1.6-0.5c-0.4,0.1-0.8,0.2-1.2,0.3c-1.1,0.4-2.2,0.8-3.4,1.3
	c1.2-1.7,2.9-3.1,4.8-4c-2.5-0.2-4.9-0.1-7.3,0.5c0.2,0.4,0.4,0.9,0.5,1.4c0,0.4-0.1,1.2-0.4,1.2c-0.8,0.3-0.4,0.9-0.5,1.6
	c-0.7-0.1-1.5,0-2-0.4c-1.7-1.2-3.4-1.1-5.2-0.7c-1,0.2-1.9,0.5-2.8,0.8l-0.1-0.3c1.4-0.6,2.7-1.2,4.1-1.7c1.8-0.6,3.6-1,5.6,0.5
	l-0.4-2.4c-5.2,0.9-10.3,2.6-15,5.1c0.3,2.5,0.1,4.9,1.1,7.2c2.2-0.3,2.6,1.7,3.5,2.7c0.6,0.6,0.5,2-0.5,3.2v-3
	c-0.3,0-0.6-0.1-0.9-0.2c-1.2-0.5-2.5-0.9-3-2.2c-0.9-2-1.2-4.1-0.9-6.3c0-0.3,0.1-0.7,0.1-1.2c-0.5,0.2-0.7,0.3-1,0.4
	c-3.6,1.2-6.1,4-8.9,6.4l0.7,0.5l-0.6,1l1.1,0.2l0.2,1.1l3.7-1.7c1.7,0.7,2.3,1.4,2.2,3c-0.4-0.5-0.8-0.9-1.1-1.3
	c-0.6-0.8-0.9-0.8-1.7-0.2c-1.2,0.7-1.9,1.9-2,3.3c1.4-1,3.3-1.2,4.9-0.4l0.5-1.4c0.6,1.1,0.7,2.4,0.2,3.6c-0.5,1.9-0.7,3.9-0.8,5.8
	c-0.2,1.7,0.1,3.4,0.7,5c0.5-3.3-0.7-6.3,0.9-9.5c0,0.5,0.1,0.9,0,1.4c-0.1,1.1,0.2,2.1,1,2.9c1.4,1.7,2.2,3.7,2.5,5.8
	c0.3,2.1,1.2,4.2,2.6,5.9c-0.3-2.1-1.9-3.5-1.7-5.5c0.7,0.7,1.3,1.4,1.8,2.2c0.2,0.3,0.2,0.7,0.5,0.8s0.6,1.2,1.3,0.4
	c0.7,0.4,1.4,0.9,2,1.5c1.3,1.6,2.5,3.3,3.7,5c0.7,1.2,1.8,2.1,3.2,2.4c-0.8-1-1.9-1.3-2.3-2.7c1.7,1.1,3.2,2.1,4.8,2.9
	c1.6,0.9,3.3,1.7,5,2.4c1.2,0.5,1.2,0.3,1.5,1.8c-1.2,0-1.9-1.2-3.2-1.2c0.9,1.4,1,3.3,3.2,3.7l-1.2-1.5c2.3,0.7,3.4,2.6,5,4
	l-1.6-2.8c1.4,1.2,2.2,2.7,3.8,3.6l-1.5-3.6c0.5,0.3,1,0.8,1.3,1.3l3.7,4.8c0.4,0.5,1,0.9,1.6,0.9c1.5,0,3.1,0,4.6,0
	c0-0.8-0.1-1.4,0.9-1.4l0.5,1.3h4.4c0-2.8-0.9-5.3-1.5-7.9c1.5,2.3,1.8,5.1,2.4,8c0.6-3.7,0.7-7.7,0.2-9c-0.2,0.1-0.3,0.3-0.4,0.5
	c-0.2,0.5-0.6,0.9-1.1,0.5s-0.4-0.8,0.1-1.2c0.2-0.2,0.6-0.7,0.6-0.9c-0.3-1.5,0.2-3.1-0.9-4.4c-0.4-0.6-0.8-1.3-1.1-1.9
	c-0.3-0.5-0.4-1.1-0.7-1.7l0.2-0.1l1.2,1.4c0.3-0.6,0.3-1.2,0.2-1.9c-0.1-0.6-0.7-1.3-0.5-1.8c0.4-1.8-0.9-2.6-1.8-3.8L79,95
	c-1.7-3.7-4.6-5.7-7.6-7.8l1.3,0.2c-1.2-0.9-2.5-1.6-3.9-2.2c-0.9-0.3-1.6-0.9-2.1-1.6c-0.4-0.6-0.8-1.1-1.2-1.6l0.4-0.7
	c1.6,1,2.5-0.4,3.6-1.1c0-0.1,0-0.2-0.1-0.2c-2.4,0-4-1.5-5.3-3.3c-0.5-0.6-1-1.1-1.5-1.6c-0.4,0.3-0.8,0.5-1.2,0.7
	c-2.1,1.1-4.6,1-6.6-0.2c-0.7-0.4-1.4-0.9-1.1-1.9L53.4,74z M24.9,38.8c0.4,0.7,0.6,1.3,1,1.8c0.1,0.1,0.5,0.1,0.5,0.2
	c0.5,1.4,0.8,2.9,1.1,4.4c0.2,1.7,0.1,3.4,0.2,5.1c0.1,1,0.2,2,0.4,3.1h0.4c0.3-1.2,0.5-2.5,0.9-3.9c1.6,0.8,1.1,2.5,2.2,3.5
	c0.5,0,0.9,0,1.4-0.2c0.9-0.4,2-0.2,2.7,0.5c-0.4,0.7-0.9,1.3-1.4,1.8c-0.9,0.8-1.3,2-0.9,3.2l1.2,0.1c1.9,0.2,3.6-0.5,5.3-1
	c5.6-1.7,11-4,16.1-6.9c-0.6-1.7-2.1-2.4-3.2-3.5c-1.2,0.8-1.4,2.3-2.6,3c-0.7-1-0.4-2-0.3-3l-3.3-1.9c0.9-0.4,1.9,0.1,2.4-0.9
	l-5.5-3.8l-1.3,3.5c-0.4-1.7-1.7-1.9-2.7-2.5c-0.6-0.3-1.2-0.6-1.8-1l1.1-1.5c-0.4-2.8-2.2-4.5-4.4-5.9l0.2,1.4
	c-2.3-1.7-4.9-2.5-6.3-4.8l0.1-0.4l2.5,0.2c-1.1-1.3-2.5-2.3-4.1-2.8c-2.3-0.5-4.6,0.8-5.3,3c-0.4,1.3-0.8,2.5-1.2,3.8
	c0,0.2-0.1,0.3-0.1,0.5h1.2c0.8-1.4,0.3-3.1,1.5-4.5c0.4,1,0.8,1.8,1.1,2.6c0.3,0.8,0.8,1.1,1.6,0.8c0.7-0.3,1.5-0.1,1.8,0.6
	c0,0,0,0.1,0.1,0.1l-1.9,2.7l1.9,2.4H24.9z M24.4,69.9c-0.9-3.2,1.3-4.9,3.1-6.8c-0.1,1.1-0.4,2.2-0.5,3.3c-0.3,1.1-0.3,2.3,0.2,3.4
	c0.2-0.1,0.4-0.1,0.6-0.2c2.4-2.2,5.3-3.5,8.1-5c0.7-0.4,1.5-0.7,2.2-0.9c0.9-0.3,1.9-0.6,2.9-0.9c3.2-1,6.4-2.1,9.6-3.2
	c0.5-0.2,1.1-0.5,1.5-0.4c1.4,0.4,2.6-0.2,3.9-0.5c2-0.3,4.1-0.6,6.2-0.7c1.5-0.1,2.7,1,2.9,2.5c0,0.3,0,0.5-0.1,0.8
	c-0.5-0.7-0.8-1.3-1.3-1.9c-0.7-0.8-1-0.8-1.7-0.4c0.4,0.7,0.8,1.4,1.2,2.2c0.5,1.1,1,1.3,1.9,0.6c1.2-0.9,2-2.2,2.1-3.7
	c0.4-2.7,0.3-2.9-2.1-4.1c-1.4-0.6-2.7-1.3-4-2c-1.1-0.8-2.5-1-3.8-0.5c-1.6,0.5-3.2,1.2-4.8,1.9c-2.9,1.6-6,2.9-9.1,3.9
	c-1.9,0.5-3.7,1.2-5.5,1.6c-1.7,0.4-3.5,0.5-5.2,0.8c-0.6,0.1-1.1,0.2-1.7,0.5c-1,0.5-2.1,1.1-3.1,1.7c-1.9,1-3.3,2.8-4,4.9
	C23.5,67.7,23.7,69,24.4,69.9z M48.2,111.7l-5-3.1c-0.4,1.2-0.5,1.4-1.7,1.1c-1.2-0.4-2.3-0.8-3.4-1.3c-0.4-0.2-0.8-0.4-1.2-0.5
	c-0.7,0.6-1.2,1.2-1.8,1.7c-0.5,0.4-0.7,1.1-0.6,1.7c0.2,1.4,0.4,2.8,0.5,4.1c0.1,1,0.2,2,0.2,3l19.2-0.4c-0.7-1.9-2.4-2.8-3.4-4.4
	c-1,0.8-1.8,1.5-2.7,2.1c-0.3,0.2-0.8,0.3-1.1,0.1c-0.2-0.1-0.3-0.8-0.2-1.1C47.3,113.8,47.7,112.8,48.2,111.7z M32.8,94.1
	c0-1.6-0.1-3,0-4.4s0.3-2.7,0.5-4c-0.5,0.1-0.8,0.3-0.9,0.5s0,0.5-0.4,0.7c-0.9,0.4-1.7,0.8-2.5,1.3c-2.1,1.4-4.2,2.8-6.8,3
	c-0.2,0-0.4,0.2-0.7,0.4c0.1,0.2,0.3,0.4,0.4,0.6c0.4,0.4,0.8,0.9,1.2,1.3c0.8,0.8,2.2,0.8,3,0c0.2-0.2,0.4-0.5,0.5-0.7
	c0.4-0.9,0.8-1.7,1.3-2.9l1.9,4.3L32.8,94.1z M33.4,95.1c-1.5,1.1-2.2,2.3-1.6,4c0.1,0.1,0.1,0.3,0.1,0.5c0,0.3,0,0.9-0.1,1
	c-0.4,0.1-0.8,0.1-1.2,0c-0.6-0.3-1.3-0.6-1.9-1c0.1,0.9,0.4,1.7,0.8,2.5c0.4,0.7,0.4,1.6,1.4,2.2l-0.6-2.2l0.2-0.1l1.3,1.9l2.1-0.2
	l0.8-3c0.7,0.6,1.4,1.2,2,1.8c0.4,0.7,1.3,0.9,2,0.5c0.1-2.4-1.8-3.6-3.2-4.9C34.6,97.2,33.8,96.2,33.4,95.1L33.4,95.1z M67.1,83.1
	l8.2,4.2v-3c0.5-0.4,1.3-0.4,1.7,0.1c0.1,0.1,0.2,0.3,0.3,0.5c1,2,2.5,2.3,4.4,1.7l0.5-0.1c0-1-0.7-1.9-1.7-2.2
	c-3.3-1.3-6.8-2-10.3-2.1C69.1,82,68,82.4,67.1,83.1L67.1,83.1z M28.4,91.8h-0.4l-0.7,2.8l-1.8,0.6c1.7,2.7,2.5,3.3,5.6,4.3
	C30.8,97,30.8,97,32.2,95l-2.5-0.3L28.4,91.8z M39.6,103.8c-1.8,0.7-2.8,0.2-3.7-0.9c-0.1-0.2-0.4-0.2-0.7-0.3l-0.1,1.7l-2.6,0.4
	l1.8,1.9c-0.2,0.8-0.6,1.4-0.3,2.2l2.5-2l4.7,1.4c-0.9-1-1.2-2.5-3-2.5L39.6,103.8z M82.1,87.5c-0.6,0.1-1.1,0.2-1.7,0.2
	c-1.3,0-2.6,0.2-3.2-1.4c-0.2-0.5-0.7-0.8-1.2-1.4c0.1,0.9,0.1,1.7,0.1,2.6c-0.1,0.6,0,1.3,0.4,1.8c0.3,0.4,0.4,0.8,0.7,1.2
	c0.8,1.3,1.7,2.2,3.9,1.1l-1-1.3L82.1,87.5z M17.4,38.3c1.9,0.6,0.5,2.2,1.1,3.2c1.3,0.5,2.2,0,3.3-1.8l-1.5-0.6l1.1-2.3l-2-1.7
	c-0.2,0.1-0.3,0.3-0.4,0.5L17.4,38.3z M34.5,53.7l-0.1-0.3c-0.9,0.2-1.7,0.4-2.6,0.6c-1.2,0.2-1.2-1.1-1.8-1.5L28,54.9
	c0.4,0.4,0.8,0.9,1,1.5c0.1,0.8,0.1,1.6,0,2.3l1.3-2.2l2.2,1.2l-0.3-3C33.3,55.1,33.9,54.3,34.5,53.7z M14.4,44.5
	c-3.1,0.9-6.2,4.7-6.3,7.8c1.7-2.3,3.8-4.3,6.1-6.1C14.7,45.8,14.6,45.2,14.4,44.5z M20.5,34.6l2,2.2l0.3-0.6l0.7,1.4
	c0.2-0.7,0.3-1.1,0.5-1.5c0.1-0.2,0.2-0.5,0.4-0.5c0.9-0.3,1.2-1.1,1.8-1.8c-0.7,0.1-1.5,0.1-2.2-0.1c-0.5-0.2-0.8-0.9-1.2-1.5
	C22,33.1,22.5,34.8,20.5,34.6z M13.9,43.2l1.6,1.9l3-2.5l-1.2-0.8l-0.1-1.7C15.9,41.1,15.2,42.5,13.9,43.2z M98.4,108.7
	c-0.7-2.9-4.6-10.4-5.9-11.3c0.1,0.3,0.2,0.7,0.3,1c1.3,2.8,2.6,5.6,3.8,8.5C96.9,107.7,97.6,108.4,98.4,108.7z M10.4,108
	c2.3-2.9,4-7.1,3.6-8.6C11.8,102,11.1,105,10.4,108L10.4,108z M99,109.7h-0.4c-0.1,0.3-0.1,0.7-0.1,1c0.8,2.5,2.2,4.7,2.8,7.3
	c0.2,0.8,0.7,0.8,1.4,0.4L99,109.7z M42.3,40.7l0.4-0.2c-0.1-0.4,0-0.9-0.2-1.1c-0.9-0.8-1.8-1.5-3-2.3c0.2,1.3,0.3,2.3-1,3l2.1,1
	l0.7-1.4L42.3,40.7z M89,121.6l0.1-0.4c-2-0.6-4-0.2-6.1-0.3s-4,0-5,0L89,121.6z M83.6,92l-0.7-4l-1.7,2L83.6,92z M57.5,118.1
	l-2.7-5.1C55.2,116.1,56,117.5,57.5,118.1z M49,111.8c-0.4,1.1-0.7,2-1,2.9l0.2,0.1l2.5-2.3L49,111.8z M33.3,32.3l0.2-0.4
	c-0.9-0.7-1.4-2.4-3.4-1.5L33.3,32.3z M30.6,57.6c-0.6,0.8-1.2,1.7-1.5,2.7l2.9-1.6L30.6,57.6z M49.9,44.8c-1,1.2,0.7,1.5,0.7,2.4
	c0,0,0.2,0.1,0.3,0.2l0.7-1.2L49.9,44.8z M27,114.9v-2.1C25.7,113.5,25.7,113.8,27,114.9z M41.4,102.8l-0.1-1.8
	C40,102,40,102,41.4,102.8L41.4,102.8z M9.1,119.7l1.8-0.1l-0.8-0.9L9.1,119.7z M46,102l0.3-0.2l-1.1-1.6l-0.3,0.2L46,102z
	 M52.8,113.7c0-0.9-0.5-1.2-1.3-0.9L52.8,113.7z M36,87.8L35.7,88l0.6,1.7l0.3-0.1L36,87.8z M26.6,116.8c-1,0.9-1,0.9-0.5,2
	L26.6,116.8z M44.1,100.9c-0.3-1.4-0.3-1.4-1.3-1.2L44.1,100.9z M87,89.2c-0.6,0.6-0.6,1-0.3,1.4c0,0.1,0.2,0.1,0.3,0.1V89.2z
	 M53.8,107.3l0.3-0.4l-1.1-0.7l-0.2,0.3L53.8,107.3z M55.4,107.9l-0.5-1.4C54.1,107.2,54.6,107.4,55.4,107.9z M45,99l-1-0.9
	C44,99,44.2,99.1,45,99z M19.5,91.3l0.2,0.3l0.8-0.6l-0.2-0.3L19.5,91.3z M62,68.3l-1,0.2C61.4,69.1,61.7,68.9,62,68.3z M86.4,104.4
	l0.4-0.1l-0.4-0.9l-0.2,0.1L86.4,104.4z"/>
<path class="st1" d="M53.5,73.9c-0.3,1,0.5,1.5,1.1,1.9c2,1.2,4.5,1.2,6.6,0.2c0.4-0.2,0.8-0.5,1.2-0.7c0.5,0.5,1.1,1,1.5,1.6
	c1.3,1.8,2.9,3.3,5.3,3.3c0,0,0,0.1,0.1,0.2c-1.1,0.7-2,2.1-3.6,1.1l-0.4,0.7c0.4,0.5,0.8,1,1.2,1.6c0.5,0.7,1.3,1.3,2.1,1.6
	c1.4,0.6,2.7,1.3,3.9,2.2l-1.3-0.2c3,2,5.9,4.1,7.6,7.8l0.6-1.2c0.9,1.2,2.2,2,1.8,3.8c-0.1,0.5,0.4,1.2,0.5,1.8
	c0.1,0.6,0,1.2-0.2,1.8l-1.2-1.4l-0.2,0.1c0.2,0.6,0.4,1.2,0.7,1.7c0.3,0.7,0.7,1.3,1.1,1.9c1,1.3,0.6,3,0.9,4.4
	c0.1,0.2-0.3,0.7-0.6,0.9c-0.4,0.4-0.5,0.9-0.1,1.2s0.8,0,1.1-0.5c0.1-0.2,0.2-0.3,0.4-0.5c0.5,1.3,0.4,5.4-0.2,9
	c-0.6-3-0.9-5.7-2.4-8c0.6,2.6,1.4,5.1,1.5,7.9h-4.4l-0.5-1.3c-1,0-0.9,0.6-0.9,1.4c-1.6,0-3.1,0-4.6,0c-0.7,0-1.3-0.3-1.6-0.9
	l-3.7-4.8c-0.4-0.5-0.8-1-1.3-1.3l1.5,3.6c-1.6-0.9-2.4-2.5-3.8-3.6l1.6,2.8c-1.5-1.4-2.7-3.3-5-4l1.2,1.6c-2.1-0.3-2.3-2.3-3.2-3.7
	c1.3,0,2,1.2,3.2,1.2c-0.2-1.4-0.3-1.3-1.5-1.8c-1.7-0.7-3.4-1.5-5-2.4c-1.6-0.9-3-1.9-4.8-2.9c0.4,1.3,1.5,1.7,2.3,2.7
	c-1.3-0.4-2.5-1.2-3.1-2.4c-1.2-1.7-2.4-3.4-3.7-5c-0.6-0.6-1.3-1.1-2-1.5c-0.7,0.8-0.9-0.1-1.3-0.4s-0.3-0.6-0.5-0.8
	c-0.5-0.8-1.1-1.6-1.8-2.2c-0.2,2,1.4,3.4,1.7,5.5c-1.4-1.7-2.3-3.7-2.6-5.9c-0.3-2.1-1.2-4.2-2.5-5.8c-0.8-0.8-1.1-1.8-1-2.9
	c0-0.5,0-1-0.1-1.4c-1.6,3.2-0.4,6.2-0.9,9.5c-0.6-1.6-0.8-3.3-0.7-5c0-2,0.3-3.9,0.8-5.8c0.4-1.2,0.3-2.5-0.2-3.6l-0.5,1.4
	c-1.6-0.8-3.5-0.6-4.9,0.4c0.1-1.4,0.8-2.6,2-3.3c0.8-0.6,1.1-0.6,1.7,0.2c0.3,0.4,0.7,0.8,1.1,1.3c0.1-1.5-0.5-2.2-2.2-3l-3.7,1.7
	l-0.2-1.1l-1.1-0.2l0.6-1l-0.7-0.5c2.8-2.4,5.3-5.2,8.9-6.4c0.3-0.1,0.6-0.2,1-0.4c-0.1,0.5-0.1,0.8-0.1,1.2c-0.3,2.1,0,4.3,0.9,6.3
	c0.5,1.3,1.8,1.7,3,2.2c0.3,0.1,0.6,0.1,0.9,0.2v3c1-1.2,1.1-2.5,0.5-3.2c-0.9-1.1-1.3-3.1-3.5-2.7c-1-2.2-0.8-4.7-1.1-7.2
	c4.7-2.5,9.8-4.2,15-5.1l0.4,2.4c-2-1.5-3.8-1.1-5.6-0.5c-1.4,0.5-2.7,1.1-4.1,1.7l0.1,0.3c0.9-0.3,1.9-0.6,2.8-0.8
	c1.8-0.4,3.6-0.6,5.2,0.6c0.5,0.3,1.3,0.3,2,0.4c0.1-0.6-0.3-1.3,0.5-1.6c0.3-0.1,0.4-0.8,0.4-1.2c-0.1-0.5-0.3-1-0.5-1.4
	c2.4-0.6,4.9-0.8,7.3-0.5c-1.9,0.9-3.6,2.3-4.9,4c1.2-0.5,2.3-0.9,3.4-1.3c0.4-0.1,0.8-0.3,1.2-0.3c0.6-0.1,1.2-0.3,1.6,0.5
	c0.1,0.3,0.7,0.3,1.2,0.5c0,0.5,0.1,1,0.1,1.4c-0.1,2.1-1.2,3.1-3.4,2.8l-2.4-0.3c1.2,1.1,2.2,2,3.1,3c0.4,0.5,0.8,1,1,1.6
	c0.7,1.7,0.2,2.8-1.5,3.6C58,76.3,54.5,76.1,53.5,73.9c-0.9-0.2-1.8-0.3-2.6-0.3c-2.4,0.8-4.5,2.1-6.3,3.8c-0.1,0.1-0.1,0.3-0.2,0.4
	c-0.2,0.6-0.5,1.2-0.8,1.8c0,0-0.1,0-0.2,0.1l-0.3-1l-0.5,1c0.2-0.9-0.4-1.6-0.8-2.4c-0.4,1.1-0.6,2,0.4,2.6l0.4-0.3
	c0,0.7-0.1,1.4-0.3,2c-0.4,0.6-0.9,1-1.5,1.5c0.6,0.7,1.1,0.3,1.5,0.1c1.7-0.8,2.8-2.5,2.9-4.3c0-0.8,0.4-1.6,1.1-2
	c0.6-0.4,1.1-0.8,1.7-1.2c1.2-1,2.6-1.5,4.1-1.4C52.7,74.4,53.1,74.1,53.5,73.9z M55.7,66.2c-0.2-0.1-0.4-0.2-0.5-0.2
	c-0.9,0.3-1.8,0.6-2.6-0.3c-0.2-0.2-0.7-0.2-1.1-0.2c-0.6,0-1.3,0.1-1.9,0.1c-0.1,0-0.3,0-0.4-0.1l0.4-1.4h-2.2l0.9,1.6l-5.1,0.6
	v0.5c3.8,1,7.7-0.1,11.5,0.1C55.2,67,55.6,66.9,55.7,66.2z M60.2,63.5c-1.7,0-1.9,0.1-2.2,1.8c-1.7,0.1-1.7,0.1-2,0.8
	c2.1,0.7,4.9,0.6,6.1-0.3c-0.7-1-1.8-0.2-2.5-0.6L60.2,63.5z M69.9,111.7c1.7,2.3,3.4,4.6,6.1,5.7C74.3,115.1,72,113.5,69.9,111.7z
	 M57.3,82.4c-0.5-0.7-1-0.8-1.5-0.5c-0.6,0.3-1.2,0.4-1.8,0.2c-1.1-0.1-2.1,0.5-2.7,1.4c1.5-0.1,2.9-0.2,4.3-0.4
	C56.2,83,56.8,82.7,57.3,82.4z M41.2,70.8L41,70.8c0.1,0.3,0.1,0.7,0,1c-0.2,0.6,0,1.2,0.5,1.5c0.5,0.4,1.2,0.7,1.8,1.1
	s1.1,0.9,1.7,1.5c0.1-0.9-0.5-1.7-1.3-2c-0.7-0.3-1.3-0.9-1.6-1.7C41.8,71.8,41.5,71.3,41.2,70.8z M43.2,84.9l0.1,0.6
	c0.5-1,1.6-1.6,1.3-2.9l-2.8,2.3H43.2z M71.5,111.3c-0.8-1.7-1.5-2-2.9-1.3L71.5,111.3z M44.3,86l0.4,0.3l1.3-2.5l-0.3-0.2
	C45.2,84.4,44.8,85.2,44.3,86z M46.9,68.7v0.2h1.4v-0.2H46.9z"/>
<path class="st1" d="M24.9,38.8h2.5l-1.9-2.4l1.9-2.8c-0.3-0.7-1-1.1-1.8-0.8c0,0-0.1,0-0.1,0.1c-0.8,0.3-1.3,0-1.6-0.8
	s-0.7-1.7-1.1-2.6c-1.2,1.4-0.7,3.1-1.5,4.5h-1.2c0-0.2,0-0.3,0.1-0.5c0.4-1.3,0.9-2.5,1.2-3.8c0.7-2.2,3-3.6,5.3-3
	c1.6,0.5,3.1,1.5,4.1,2.8l-2.5-0.2l-0.1,0.4c1.5,2.3,4,3.1,6.3,4.8l-0.2-1.4c2.2,1.5,4,3.2,4.4,5.9l-1.1,1.5c0.7,0.4,1.2,0.7,1.8,1
	c1,0.5,2.3,0.7,2.7,2.5l1.3-3.5l5.5,3.8c-0.6,1-1.5,0.4-2.4,0.9l3.3,1.9c0,1-0.3,2,0.3,3c1.3-0.6,1.5-2.1,2.6-3
	c1.1,1,2.6,1.8,3.2,3.5c-5.1,2.8-10.5,5.1-16.1,6.9c-1.8,0.5-3.4,1.2-5.3,1l-1.2-0.1c-0.4-1.1,0-2.4,0.9-3.2c0.5-0.6,1-1.2,1.4-1.8
	c-0.7-0.7-1.8-0.8-2.6-0.4c-0.5,0.1-0.9,0.2-1.4,0.2c-1.1-1-0.6-2.8-2.2-3.5c-0.3,1.4-0.6,2.7-0.9,3.9h-0.4c-0.1-1-0.3-2-0.4-3.1
	c-0.1-1.7,0-3.4-0.2-5.1c-0.3-1.5-0.6-2.9-1.1-4.4c0-0.1-0.4-0.1-0.5-0.2C25.6,40,25.3,39.5,24.9,38.8z M39,51.2
	c0.1,1.1-1.1,2.2,0.4,3.4l2.7-2.9c1.2,0.4,1.5,1.8,3,1.8c0.1-0.5,0.2-0.9,0.2-1.4c-0.3-1.5,0.5-2.5,1.3-3.6c0.3-0.3,0.5-0.5,0.8-0.8
	c-1.4-0.7-2.7-0.3-4.2-0.2c-0.2-0.6-0.5-1.2-0.8-1.8c-0.2-0.3-0.5-0.7-0.7-0.7c-0.4,0.1-0.8,0.3-1,0.6c-0.3,0.5-0.4,1-0.5,1.5
	c-0.1,0.6-0.7,1.1-1.3,1c-0.6,0-1.3,0.1-2,0.2C37,49.7,38.3,50.2,39,51.2z M27.6,39.8c0.7,1.7,2,2.6,2.8,3.8L30,46.1
	c1.4,0.2,1.9-1.2,3-1.4c0.7,0.6,1.4,1.4,2.5,1.4c0.1-0.2,0.2-0.4,0.2-0.7c-0.1-1,0.1-1.9,0.7-2.7c0.4-0.7,0.7-1.4,0.8-2.2
	c-0.7-0.2-1.2-0.5-1.6-0.5c-1.5,0.2-2.2-0.7-2.9-1.7c-0.4-0.5-0.7-1.4-1.7-1.5l-0.5,2.9L27.6,39.8z"/>
<path class="st1" d="M24.4,69.9c-0.7-0.9-0.9-2.1-0.4-3.2c0.6-2.1,2-3.8,3.9-4.9c1-0.6,2-1.2,3.1-1.7c0.5-0.2,1.1-0.4,1.7-0.5
	c1.7-0.3,3.5-0.4,5.2-0.8c1.9-0.4,3.7-1.1,5.5-1.6c3.1-1,6.2-2.3,9.1-3.9c1.5-0.7,3.1-1.4,4.8-1.9c1.3-0.5,2.7-0.3,3.8,0.5
	c1.3,0.7,2.6,1.4,4,2c2.4,1.2,2.5,1.5,2.1,4.1c-0.1,1.5-0.9,2.8-2.1,3.7c-1,0.7-1.4,0.5-1.9-0.6c-0.4-0.7-0.8-1.4-1.2-2.2
	c0.7-0.5,1-0.5,1.7,0.4c0.5,0.5,0.8,1.2,1.3,1.9c0.3-1.4-0.6-2.9-2-3.2C62.7,58,62.5,58,62.2,58c-2.1,0.1-4.2,0.4-6.2,0.7
	c-1.3,0.2-2.5,0.8-3.9,0.5c-0.4-0.1-1,0.2-1.5,0.4c-3.2,1.1-6.4,2.1-9.6,3.2c-1,0.3-1.9,0.6-2.9,0.9c-0.8,0.2-1.5,0.5-2.2,0.9
	c-2.8,1.5-5.7,2.8-8.1,5c-0.2,0.1-0.4,0.2-0.6,0.2c-0.5-1.1-0.6-2.3-0.3-3.4c0.2-1.1,0.4-2.2,0.5-3.3C25.7,65,23.5,66.7,24.4,69.9z"
	/>
<path class="st1" d="M48.2,111.7c-0.5,1.1-0.9,2.1-1.2,3.1c-0.1,0.3,0,0.9,0.2,1.1c0.4,0.1,0.8,0.1,1.1-0.1c0.9-0.6,1.7-1.3,2.7-2.1
	c1,1.6,2.7,2.4,3.4,4.4l-19.2,0.4c-0.1-1-0.1-2-0.2-3c-0.1-1.4-0.3-2.8-0.5-4.1c-0.1-0.6,0.1-1.3,0.6-1.7c0.6-0.5,1.2-1.1,1.8-1.7
	c0.4,0.2,0.8,0.4,1.2,0.5c1.1,0.5,2.2,0.9,3.4,1.3c1.2,0.3,1.3,0.1,1.7-1.1L48.2,111.7z M37.4,112.4c-1.5,1.5-1.6,3.3-2,5l0.3,0.2
	l2-3.3l1.8,2.8l-1.9,0.5c1.8-0.2,3.7,0.8,5.6-0.9c-1.5,0.5-3.1-0.2-3.7-1.6C38.9,114.2,38.2,113.3,37.4,112.4z"/>
<path class="st1" d="M91.3,93.6v0.9c-0.3,0-0.7,0.1-0.8,0c-0.6-0.8-1.5-1.6-1.6-2.5c-0.2-2.4-1.7-3.8-3.6-4.9
	c0.3,0.7,0.5,1.4,0.7,2.1c0.2,1.8,1.4,2.9,2.6,4.1c0.4,0.3,0.7,0.6,1,1c2.5,3.7,4,8.1,4.4,12.6c0,0.4,0,0.9-0.1,1.3
	c-0.8-0.6-1.5-1.3-2.2-2c-0.6-0.7-0.8-1.7-1.4-2.5c0.4,1,0.8,1.9,1.1,2.9c0.1,0.2,0.3,0.5,0.4,0.7c0.4,0.6,0.3,1.3-0.3,1.7
	c-0.5,0.5-1.3,0.5-1.8,0c0,0,0,0,0,0c-1-1.2-2.4-2.2-2.7-3.9c-0.4-2.8-0.5-5.5-0.4-8.3c1,0.1,1.8,0.8,3.1,0.2l-3.3-1.2l0.2-2.2
	c0.9,0.5,1.2,1.7,2.5,1.7c-0.7-1.3-1.8-1.8-2.7-2.7l-0.8,1.1c-0.6-3-0.7-6-3-8.3c1.7,0,3.4,0.7,4.6,2c1.3,1.6,2.4,3.2,3.6,4.9
	L91.3,93.6z"/>
<path class="st1" d="M21,101.8l-0.6-1.4c-0.5,0.8-1,0.5-1.4-0.2l-1.1,2.4l-1.2-1l-0.9,1.4c-0.5-0.7-0.7-1.2-0.1-1.9
	c0.4-0.4-0.7-1.4,0.7-1.7l-1.6-0.7c0.3-0.5,0.6-0.9,0.9-1.3c0.7-1.1,1.5-2.2,2.3-3.2C19,93.3,20,92.6,21,92l0.9,2
	c-0.6,0.6-1.3,1.2-2,1.8c-0.3,0.3-0.6,0.6-0.8,1c-0.3,0.4-0.5,0.9,0,1.3s1,0.1,1.4-0.4s0.6-0.8,1.1-1.5l0.2,1.7L22,98l1-1.5
	c0.4,0.2,0.7,0.5,0.4,0.9s-0.8,0.9-1.2,1.4l0.3,0.3l1.4-1.2c1.6,0.9,1,2.7,1.7,3.9c0.6,1.4,1,2.9,1.1,4.4c0.2,1.5,0.4,3,0.5,4.4
	c-1.4,0.6-1.4,0.6-1.3,2.2c0.2,1.3-0.2,2.6-0.9,3.6c-0.7-0.3-1.2-1-1.2-1.8c-0.4-2-0.9-4-1.1-6C22.2,106.3,21.7,104.1,21,101.8
	c0.6,0.4,1.1,1,1.9,0.9l-0.4,1.3l0.3,0.1l1-1.9l-0.2-0.2l-0.5,0.3c0.1-0.6,0.2-1.2,0.4-1.9s0.6-1.1,0.3-1.8L21,101.8z M19,95.4
	l0.3,0.3l1.1-1.5L20.2,94L19,95.4z"/>
<path class="st1" d="M32.8,94.1L30.3,94l-1.9-4.2c-0.5,1.2-0.9,2.1-1.3,2.9c-0.4,1.1-1.6,1.6-2.7,1.2c-0.3-0.1-0.5-0.3-0.7-0.5
	c-0.4-0.4-0.8-0.8-1.2-1.3c-0.1-0.2-0.3-0.4-0.4-0.6c0.3-0.2,0.5-0.4,0.7-0.4c2.6-0.2,4.7-1.6,6.8-3c0.8-0.5,1.6-1,2.5-1.3
	c0.4-0.2,0.3-0.4,0.4-0.7s0.4-0.4,0.9-0.5c-0.2,1.3-0.4,2.7-0.5,4S32.8,92.5,32.8,94.1z"/>
<path class="st1" d="M33.4,95.1c0.5,1.1,1.2,2,2.2,2.7c1.4,1.3,3.3,2.5,3.2,4.9c-0.7,0.4-1.6,0.2-2-0.5c-0.6-0.7-1.3-1.3-2-1.8
	l-0.8,3l-2.1,0.2l-1.3-1.9l-0.2,0.1l0.6,2.2c-1.1-0.6-1.1-1.5-1.4-2.2c-0.4-0.8-0.7-1.6-0.8-2.5c0.6,0.4,1.2,0.7,1.9,1
	c0.4,0.1,0.8,0.1,1.2,0c0.2-0.1,0.1-0.7,0.1-1c0-0.2,0-0.3-0.1-0.5C31.1,97.4,31.9,96.2,33.4,95.1z"/>
<path class="st1" d="M67.1,83.1c0.8-0.8,2-1.1,3.1-1c3.5,0.2,7,0.9,10.3,2.2c1,0.3,1.7,1.2,1.7,2.2l-0.5,0.1
	c-1.9,0.6-3.4,0.3-4.4-1.7c-0.2-0.7-0.9-1-1.5-0.8c-0.2,0-0.3,0.1-0.5,0.3v3L67.1,83.1z"/>
<path class="st1" d="M27.9,87.4c0.1-0.5,0.3-1.1,0.6-1.6c0.6-0.9,1.2-1.8,2-2.9l-0.7-0.3c0.2-0.6,0.5-1.2,0.7-1.9s0.2-1.2,0.3-2
	c1-0.5,1.9-0.1,2.9,0.3c-0.1,0.5-0.2,1-0.3,1.6c-0.5,1.1-0.6,2.2-0.5,3.4c0.1,1.1-0.2,1.5-1.3,1.9c-0.5,0.2-1,0.3-1.7,0.5l0.7-1.6
	L27.9,87.4L27.9,87.4z"/>
<path class="st1" d="M28.4,91.9l1.3,2.8l2.5,0.3c-1.4,2-1.4,2-1.1,4.6c-3.1-1-3.9-1.6-5.6-4.3l1.8-0.6l0.7-2.8L28.4,91.9z"/>
<path class="st1" d="M39.6,103.9l-1.6,1.8c1.7,0.1,2,1.6,3,2.5l-4.6-1.5l-2.5,2c-0.3-0.7,0.1-1.4,0.3-2.2l-1.8-1.9l2.6-0.4l0.1-1.7
	c0.3,0.1,0.6,0.2,0.7,0.3C36.7,104.1,37.8,104.6,39.6,103.9z"/>
<path class="st1" d="M82.1,87.5l-1.9,2.7l1,1.3c-2.2,1.1-3.1,0.2-3.9-1.1c-0.2-0.4-0.4-0.8-0.7-1.2c-0.4-0.5-0.6-1.1-0.4-1.8
	c0.1-0.9,0-1.7-0.1-2.6c0.5,0.6,1.1,0.9,1.2,1.4c0.6,1.6,1.9,1.5,3.2,1.4C81,87.7,81.5,87.6,82.1,87.5z"/>
<path class="st1" d="M17.4,38.3l1.6-2.7c0.1-0.2,0.3-0.3,0.4-0.5l2,1.7l-1.1,2.3l1.5,0.6c-1.1,1.8-2.1,2.2-3.3,1.8
	C17.9,40.5,19.2,38.9,17.4,38.3z"/>
<path class="st1" d="M34.5,53.7c-0.6,0.6-1.2,1.5-2.4,1.2l0.3,3l-2.2-1.2L29,58.7c0.1-0.8,0.1-1.6,0-2.3c-0.2-0.5-0.6-1-1-1.5
	l1.9-2.5c0.6,0.3,0.7,1.7,1.8,1.5c0.9-0.2,1.8-0.4,2.6-0.6L34.5,53.7z"/>
<path class="st1" d="M14.4,44.5c0.2,0.7,0.3,1.3-0.2,1.7c-2.3,1.7-4.3,3.8-6.1,6.1C8.2,49.2,11.3,45.4,14.4,44.5z"/>
<path class="st1" d="M20.5,34.6c2,0.2,1.5-1.5,2.2-2.4c0.4,0.5,0.7,1.2,1.2,1.5c0.7,0.2,1.5,0.2,2.2,0.1c-0.7,0.8-1,1.5-1.8,1.8
	c-0.2,0-0.3,0.3-0.4,0.5c-0.1,0.4-0.2,0.8-0.5,1.5l-0.7-1.4l-0.3,0.6L20.5,34.6z"/>
<path class="st1" d="M13.9,43.2c1.2-0.7,2-2.1,3.4-3l0.1,1.7l1.2,0.8l-3,2.5L13.9,43.2z"/>
<path class="st1" d="M98.4,108.7c-0.8-0.3-1.5-1-1.8-1.9c-1.2-2.8-2.6-5.6-3.8-8.5c-0.1-0.3-0.2-0.7-0.3-1
	C93.8,98.3,97.7,105.8,98.4,108.7z"/>
<path class="st1" d="M10.4,108c0.7-3,1.4-6.1,3.6-8.6C14.4,100.9,12.7,105.1,10.4,108z"/>
<path class="st1" d="M99,109.7l3.7,8.7c-0.7,0.4-1.2,0.3-1.4-0.4c-0.5-2.6-1.9-4.8-2.8-7.3c0-0.3,0-0.7,0.1-1L99,109.7z"/>
<path class="st1" d="M42.3,40.7l-1-0.9l-0.7,1.4l-2.1-1c1.3-0.7,1.2-1.8,1-3c1.1,0.9,2.1,1.6,3,2.3c0.2,0.2,0.2,0.7,0.2,1.1
	L42.3,40.7z"/>
<path class="st1" d="M82.3,95.9l-2.4-2.9c1.2-0.2,2.3-0.8,3.6-0.4l0.1,1.8l-1.1,0.3L82.3,95.9L82.3,95.9z"/>
<path class="st1" d="M83.6,92l-2.3-2l1.7-2L83.6,92z"/>
<path class="st1" d="M57.5,118.1c-1.5-0.5-2.3-2-2.7-5.1L57.5,118.1z"/>
<path class="st1" d="M49,111.8l1.7,0.6l-2.5,2.3l-0.2-0.1C48.3,113.8,48.6,112.9,49,111.8z"/>
<path class="st1" d="M33.3,32.3l-3.2-1.9c2.1-0.9,2.5,0.7,3.4,1.5L33.3,32.3z"/>
<path class="st1" d="M30.6,57.6l1.3,1l-2.9,1.6C29.4,59.3,29.9,58.4,30.6,57.6z"/>
<path class="st1" d="M49.9,44.8l1.7,1.3l-0.7,1.2c-0.2-0.1-0.3-0.1-0.3-0.2C50.6,46.3,48.9,46,49.9,44.8z"/>
<path class="st1" d="M87.2,109c-0.3-0.5-0.5-1.1-0.7-1.7c-0.1-0.4,0-0.7-0.3-1.1s0.1-0.8,0.5-1.1C87.4,106.4,86.9,107.8,87.2,109
	L87.2,109z"/>
<path class="st1" d="M27,114.9c-1.3-1-1.3-1.4,0-2.1V114.9z"/>
<path class="st1" d="M82.2,95.9c1.1,0.5,1.6,1.8,1.1,2.9L82.2,95.9L82.2,95.9z"/>
<path class="st1" d="M41.4,102.8C40,102,40,102,41.3,101L41.4,102.8z"/>
<path class="st1" d="M9.1,119.7l0.9-1l0.8,0.9L9.1,119.7z"/>
<path class="st1" d="M91.3,93.6l-0.3-1.2l1.4,1.8l-0.3,0.2L91.3,93.6z"/>
<path class="st1" d="M46,102l-1.1-1.6l0.3-0.2l1.1,1.6L46,102z"/>
<path class="st1" d="M52.8,113.7l-1.3-0.9C52.3,112.5,52.8,112.8,52.8,113.7z"/>
<path class="st1" d="M36,87.8l0.6,1.8l-0.3,0.1L35.7,88L36,87.8z"/>
<path class="st1" d="M26.6,116.8l-0.5,2C25.6,117.7,25.6,117.7,26.6,116.8z"/>
<path class="st1" d="M44.1,100.9l-1.3-1.2C43.8,99.5,43.8,99.5,44.1,100.9z"/>
<path class="st1" d="M87.1,109.1c0.6,0.5,0.7,1.4,0.3,2L87.1,109.1L87.1,109.1z"/>
<path class="st1" d="M87,89.2v1.5c-0.1,0-0.3,0-0.3-0.1C86.5,90.2,86.4,89.8,87,89.2z"/>
<path class="st1" d="M53.8,107.3l-1-0.8l0.2-0.3l1.1,0.7L53.8,107.3z"/>
<path class="st1" d="M55.4,107.9c-0.8-0.4-1.2-0.7-0.5-1.4L55.4,107.9z"/>
<path class="st1" d="M45,99c-0.8,0.1-1.1,0-1.1-0.9L45,99z"/>
<path class="st1" d="M19.5,91.3l0.9-0.6l0.2,0.3l-0.8,0.6L19.5,91.3z"/>
<path class="st1" d="M62,68.3c-0.3,0.7-0.5,0.8-1,0.2L62,68.3z"/>
<path class="st1" d="M86.3,104.4l-0.2-1l0.2-0.1l0.4,0.9L86.3,104.4z"/>
<path d="M53.5,73.9c-0.4,0.2-0.8,0.5-1.1,0.4c-1.5-0.1-3,0.4-4.1,1.4c-0.6,0.4-1.1,0.8-1.7,1.2c-0.7,0.4-1.1,1.2-1.1,2
	c-0.1,1.9-1.2,3.5-2.9,4.3c-0.4,0.2-0.9,0.6-1.5-0.1c0.6-0.4,1.1-0.9,1.5-1.5c0.2-0.6,0.3-1.3,0.3-2v0.1l0.5-1l0.3,1
	c0,0,0.2,0,0.2-0.1c0.3-0.6,0.5-1.2,0.8-1.8c0.1-0.1,0.1-0.3,0.2-0.4c1.8-1.7,3.9-3,6.3-3.8C51.8,73.6,52.7,73.7,53.5,73.9
	L53.5,73.9z"/>
<path d="M55.7,66.2c0,0.7-0.5,0.8-0.9,0.8c-3.8-0.2-7.7,0.9-11.5-0.1v-0.5l5.1-0.6l-0.9-1.6h2.2l-0.4,1.4c0.1,0,0.3,0.1,0.4,0.1
	c0.6,0,1.3-0.1,1.9-0.1c0.4,0,0.9-0.1,1.1,0.2c0.8,1,1.7,0.7,2.6,0.3C55.2,66,55.4,66.1,55.7,66.2z"/>
<path d="M60.2,63.5l-0.6,1.8c0.7,0.4,1.9-0.4,2.5,0.6c-1.2,0.9-4,1-6.1,0.3c0.3-0.7,0.3-0.7,2-0.8C58.3,63.7,58.5,63.5,60.2,63.5z"
	/>
<path d="M69.9,111.7c2.1,1.8,4.4,3.4,6.1,5.7C73.3,116.2,71.6,114,69.9,111.7z"/>
<path d="M57.3,82.4c-0.5,0.4-1.1,0.6-1.7,0.8c-1.4,0.2-2.8,0.2-4.3,0.4c0.5-1,1.6-1.5,2.7-1.4c0.6,0.1,1.2,0,1.8-0.2
	C56.3,81.6,56.8,81.7,57.3,82.4z"/>
<path d="M41.2,70.8c0.3,0.5,0.6,1,0.9,1.5c0.3,0.7,0.9,1.3,1.6,1.7c0.9,0.3,1.4,1.2,1.3,2.1c-0.7-0.6-1.2-1-1.8-1.4
	s-1.2-0.7-1.8-1.1c-0.5-0.3-0.7-1-0.5-1.6c0.1-0.3,0.1-0.7,0-1L41.2,70.8z"/>
<path d="M43.3,84.9h-1.3l2.8-2.3c0.3,1.3-0.8,1.9-1.3,2.9L43.3,84.9z"/>
<path d="M71.6,111.3l-2.9-1.3C70.1,109.4,70.8,109.7,71.6,111.3z"/>
<path d="M42.8,79.7L42.5,80c-1-0.7-0.9-1.6-0.4-2.6C42.4,78.2,43,78.9,42.8,79.7L42.8,79.7z"/>
<path d="M44.3,86c0.5-0.8,1-1.6,1.5-2.3l0.3,0.2l-1.4,2.5L44.3,86z"/>
<path d="M46.9,68.7h1.3v0.2h-1.4L46.9,68.7z"/>
<path d="M39,51.2c-0.7-1.1-2-1.5-2.2-3c0.8-0.1,1.4-0.2,2-0.2c0.7,0.1,1.3-0.4,1.3-1.1c0,0,0,0,0,0c0.1-0.5,0.3-1,0.5-1.5
	c0.2-0.3,0.6-0.5,1-0.6c0.2,0,0.5,0.4,0.7,0.7c0.3,0.6,0.5,1.2,0.8,1.8c1.4-0.1,2.7-0.5,4.2,0.2c-0.3,0.2-0.6,0.5-0.8,0.8
	c-0.8,1-1.6,2.1-1.3,3.6c0,0.5,0,1-0.1,1.5c-1.5,0.1-1.9-1.4-3-1.8l-2.7,2.9C37.9,53.5,39.2,52.3,39,51.2z M40.5,51.8
	c0.3-0.7,0.9-1.1,1.7-1.1c1-0.1,1.3,0.8,2.2,1.1c-1-1.6,0.3-2.3,0.9-3.5c-0.8,0.2-1.7,0.3-2.5,0.2c-0.6-0.2-0.9-1.1-1.4-1.8
	c-0.2,1.6-0.9,2.7-2.8,2.6L40.5,51.8z"/>
<path d="M27.6,39.8l2.8-0.2l0.5-2.9c1,0.2,1.2,1,1.7,1.5c0.8,1,1.4,2,2.9,1.7c0.5-0.1,1,0.3,1.6,0.5c-0.2,0.8-0.4,1.5-0.8,2.2
	c-0.6,0.8-0.8,1.7-0.7,2.7c0,0.2-0.1,0.4-0.2,0.7c-1.1,0-1.7-0.8-2.5-1.4c-1,0.2-1.5,1.6-3,1.4l0.4-2.5
	C29.5,42.5,28.3,41.5,27.6,39.8z M34.3,44.8c0-0.6,0.1-1.2,0.3-1.7c0.2-0.5,0.7-0.9,1-1.3s0.1-0.9-0.6-0.9l-0.5,1.4l-2.7-2.9
	c-0.2,0.5-0.3,1.1-0.6,1.3c-0.5,0.2-0.9,0.3-1.4,0.3l1.8,3.5l1.4-0.9L34.3,44.8z"/>
<path d="M37.4,112.4c0.7,0.8,1.5,1.7,2.1,2.6c0.6,1.4,2.2,2.1,3.7,1.6c-1.9,1.6-3.8,0.6-5.6,0.9l1.9-0.5l-1.8-2.8l-2,3.3l-0.3-0.2
	C35.9,115.7,36,113.9,37.4,112.4z"/>
<path d="M23,102.6c-0.8,0.1-1.3-0.4-1.9-0.8l0,0c0.9-1.1,1.8-2.1,2.8-3.2c0.3,0.6-0.2,1.2-0.3,1.8s-0.2,1.2-0.4,1.9L23,102.6z"/>
<path d="M23,102.6l0.3-0.3l0.5-0.3l0.2,0.2l-1,1.9l-0.3-0.1L23,102.6z"/>
<path d="M19,95.4l1.2-1.4l0.2,0.2l-1.1,1.5L19,95.4z"/>
<path class="st1" d="M40.5,51.8l-1.8-2.5c1.8,0.1,2.6-1,2.8-2.6c0.5,0.7,0.8,1.6,1.4,1.8c0.8,0.1,1.7,0,2.5-0.2
	c-0.6,1.2-1.9,2-0.9,3.5c-1-0.3-1.3-1.2-2.2-1.1C41.5,50.7,40.8,51.1,40.5,51.8z"/>
<path class="st1" d="M34.3,44.8l-1.5-1.4l-1.4,0.9l-1.8-3.5c0.5,0,1-0.1,1.4-0.3c0.3-0.2,0.4-0.8,0.6-1.3l2.7,2.9l0.5-1.4
	c0.7,0,0.9,0.3,0.6,0.9s-0.8,0.8-1,1.3C34.5,43.6,34.4,44.2,34.3,44.8z"/>
<text transform="matrix(1 0 0 1 21.8443 18.369)" class="st2 st3">Mer</text>
<text transform="matrix(1 0 0 1 52.6543 18.369)" class="st2 st3">l</text>
<text transform="matrix(1 0 0 1 62.3343 18.369)" class="st2 st3">in</text>
</svg>
