<?xml version="1.0" encoding="utf-8"?>
<!-- Generator: Adobe Illustrator 23.0.6, SVG Export Plug-In . SVG Version: 6.00 Build 0)  -->
<svg version="1.1" id="Layer_1" xmlns="http://www.w3.org/2000/svg" xmlns:xlink="http://www.w3.org/1999/xlink" x="0px" y="0px"
	 viewBox="0 0 100 120" style="enable-background:new 0 0 100 120;" xml:space="preserve">
<style type="text/css">
	.st0{fill:#FF7BAC;}
	.st1{fill:#FFFFFF;}
	.st2{font-family:'Badonk-a-donk';}
	.st3{font-size:10px;}
</style>
<title>AvalonCards</title>
<rect class="st0" width="100" height="123"/>
<path class="st1" d="M100.1,102c-1,0-1.9-0.1-2.9-0.3c-4-1-8-2.1-12-3.1c-1-0.2-2-0.4-3.4-0.8l2.6-1.8c-0.3-1.7-0.6-3.3-0.8-5
	c-0.1-0.2-0.1-0.4-0.2-0.5c-0.6-1-1.2-2-1.6-3.1c-0.8-2.7-1.8-5.3-1.9-8.2c-0.3-1.8-0.8-3.6-1.6-5.3c-1.5-4-3-8-4.7-12
	c-0.7-1.9-1.6-3.6-2.7-5.2c-1.4-1.8-2.6-3.8-3.4-6c-0.5-1.6-1.9-2.9-3.6-3.3c-0.9-0.4-1.8-0.9-2.6-1.5c1.5-0.5,1.8-1.9,3.1-1.8
	c1.3,0.1,2.7,0.2,3.7,1.5c0.4,0.8,1.3,1.3,2.3,1.3c-0.4-1-1-1.8-0.9-2.6c0.2-1.6-0.5-3.2-1.9-4c-4.2-2.8-8.4-5.8-13.4-7.1
	c-0.8-0.2-1.4-0.5-1.6-1.5c-0.8,0.2-1.6,0.6-2.3,1c-1.8,1.2-3.5,2.6-5.1,4c-1.8,1.7-3.3,3.8-5.1,5.5c-1.7,1.6-3.4,3.1-5.2,4.5
	c-1.3,1.1-2.7,2.1-4.2,2.9c-1.5,0.6-2.7,1.8-3.2,3.4c-1.6,4.3-3.2,8.6-4.9,12.9c-1,2.6-2.4,5.2-3.4,7.8c-0.8,2-1.4,4.1-2,6.2
	c-0.3,0.9-0.5,1.8-0.7,2.7c-1.3,4.2-2.6,8.4-3.9,12.7c-0.2,0.6-0.3,1.3-0.1,1.9c0.7,1.5,1.6,2.9,2.5,4.5c-1.7,1-13.5,7.4-15.3,8.5
	c0,0,6.9-3.9,0,0L0,120v3"/>
<path d="M99.9,123.1c-15.2,0.9-30.4,0-45.6-0.1c-16.7,0-33.4-0.1-50,0.1L0,123l0,0l-0.3-12.8l0,0c6.9-3.8,2.7-1.4,9.6-5.3
	c1.8-1,3.6-2.1,5.4-3.1c-0.9-1.6-1.8-3-2.5-4.5c-0.2-0.6-0.1-1.3,0.1-1.9c1.3-4.2,2.6-8.4,3.9-12.7c0.3-0.9,0.5-1.8,0.7-2.7
	c0.6-2.1,1.2-4.2,2-6.2c1-2.6,2.3-5.2,3.4-7.8c1.7-4.3,3.3-8.6,4.9-12.9c0.5-1.6,1.7-2.8,3.2-3.4c1.5-0.8,2.9-1.8,4.2-2.9
	c1.8-1.4,3.6-2.9,5.2-4.5c1.8-1.8,3.3-3.8,5.1-5.5c1.6-1.5,3.3-2.8,5.1-4c0.7-0.4,1.5-0.8,2.3-1c0.2,1,0.8,1.3,1.6,1.5
	c5,1.3,9.2,4.3,13.4,7.1c1.4,0.8,2.1,2.4,1.9,4c-0.1,0.8,0.6,1.7,0.9,2.6c-0.9,0-1.8-0.4-2.2-1.2c-0.9-1.3-2.3-1.4-3.7-1.5
	s-1.6,1.4-3.1,1.8c0.8,0.6,1.6,1.1,2.5,1.5c1.7,0.4,3,1.6,3.6,3.3c0.8,2.2,2,4.2,3.4,6c1.2,1.6,2.1,3.3,2.7,5.2c1.6,4,3.2,8,4.7,12
	c0.8,1.7,1.3,3.5,1.6,5.3c0.1,2.9,1.2,5.5,1.9,8.2c0.4,1.1,1,2.1,1.6,3.1c0.1,0.2,0.2,0.3,0.2,0.5c0.3,1.7,0.6,3.4,0.8,5l-2.6,1.7
	c1.5,0.3,2.5,0.5,3.4,0.8c4,1,8,2.1,12,3.1c0.9,0.2,1.9,0.3,2.9,0.3 M29.8,105.2L29.8,105.2c0.3,0.2,0.7,0.4,1.1,0.6
	c3.3,1.4,6.7,2.7,10,4.1c2.2,0.9,4.7,0.6,6.7,1.9c0,0,0.1,0,0.2,0c2.2,0.1,4.4-0.3,6.4-1.1c0.3-0.1,0.7-0.4,0.7-0.6
	c0-1.1,0.9-1.2,1.6-1.4c1.4-0.5,2.7-1,4.1-1.4c3.7-1.2,7.3-2.8,10.7-4.7c0.4-0.3,0.8-0.5,1.2-0.8l-0.3-1.1c2.7,0.4,4.2-1.2,5.9-2.6
	c0.4-0.3,0.6-0.7,1.1-0.9c2-0.7,3.3-2.7,3.1-4.3c-0.2-1.4-0.7-2.7-1.5-3.8c-0.2,2,0.7,3.7,0.3,5.6c-0.4-0.6-0.6-1.2-0.7-1.9
	c-0.6-3.2-1-6.5-1.6-9.7c-1.2-7-3.5-13.8-6.7-20.2c-1.9-3.7-3.7-7.4-5.6-11.1c-0.2-0.5-0.5-0.9-0.9-1.2c-1.3-0.9-2.7-1.6-4.2-2.2
	c-3.1-1.3-6.2-2.3-9.4-3.5c-2.4-1-5-1.4-7.5-1.2c-1.2,0.1-2.5,0-3.2,1.4c-0.2,0.4-0.8,0.6-1.3,0.9c-3,2-6,4-9.1,5.9
	c-1.2,0.9-2.1,2.2-2.5,3.6c-1.4,4-2.9,8-4.4,12c-2.2,5.8-4.8,11.4-6.1,17.5c-0.1,0.3-0.2,0.5-0.3,0.7c-0.5,1.1-1,2.2-1.5,3.4
	c-0.8,1.8-1.5,3.6-2.3,5.4c-0.3,0.8-0.7,1.8,0,2.6c1.4,1.6,2.9,3.2,4.5,4.7c1.1,1,2.5,1.5,3.9,1.7c-0.5-0.5-1.1-0.9-1.7-1.4
	s-1.1-1-1.6-1.6c0.3-0.2,0.4-0.2,0.4-0.2c0.3,0.2,0.7,0.4,1,0.6C23,102.8,26.3,104.3,29.8,105.2L29.8,105.2z M60.8,43
	c-1-2-2.9-3.1-4.6-4.5l2.1-0.5l3.5,3.8c1-0.3,1.9-1.1,3-0.1L64,42.9l3.5,0.5c-0.2-0.4-0.3-0.8-0.3-1.2c0-1.3-1-2.5-2.4-2.5
	c-0.1,0-0.1,0-0.2,0c-0.4-0.1-0.9-0.3-1.2-0.5c-0.8-0.4-1.6-0.9-2.4-1.3c-1.7-0.8-3.4-1.5-5.1-2.2l-4.5-1.9l-10,8.7
	c0.9-0.1,1.7-0.3,2.5-0.7c0.7-0.5,1.6-0.7,2.5-0.5c-0.3,0.4-0.5,0.8-0.7,1.1c5.1,0.7,10.1,1.9,15,3.4c-1.5-2.6-3.9-4.7-6.7-5.8
	C56,39.7,56,39.7,60.8,43L60.8,43z M-0.2,112l0.1,1.2 M8.4,108.4l9.2-5.1l-1.9-1.5 M94.7,103l0.1-0.2c-0.2-0.2-0.4-0.3-0.7-0.4
	c-3.8-1.1-7.6-2.3-11.4-3.4c-2.4-0.7-3.4-0.2-5,2.1L94.7,103z M70,105.5l0.1,0.3h22.4c-5.3-0.6-10.6-1-15.9-1.3
	c-1.5-0.1-3,0-4.5,0.2C71.3,104.8,70.6,105.1,70,105.5z M37,110.3c-2.4-1.9-12-5.2-14.1-5c1.6,1.9,3.8,3.2,6.3,3.6
	c1.2,0.2,2.3,0.6,3.4,0.8C33.9,110,35.3,110.1,37,110.3L37,110.3z M-0.2,115.2l0,0.9c6.3-3.7,7.6-4.3,13.2-8.9l0,0 M74.1,103.4h9.1
	c-1.8-0.5-3.6-0.8-5.3-1.3c-1.6-0.4-2.6-0.1-3.9,1.3H74.1z M96,106.1l1.7,0.5l0.4-1.3l-1.8-0.5L96,106.1z"/>
<path class="st1" d="M29.8,105.2c-3.4-1-6.7-2.5-9.6-4.4c-0.3-0.2-0.6-0.4-1-0.6c0,0-0.1,0-0.4,0.2c0.6,0.6,1.1,1.1,1.6,1.6
	c0.6,0.4,1.2,0.9,1.7,1.4c-1.5-0.1-2.8-0.7-3.9-1.7c-1.6-1.5-3.1-3-4.5-4.7c-0.7-0.8-0.4-1.8,0-2.6c0.7-1.8,1.5-3.6,2.3-5.4
	c0.5-1.1,1-2.3,1.5-3.4c0.1-0.2,0.2-0.5,0.3-0.7c1.4-6.1,4-11.7,6.1-17.5c1.5-4,3-8,4.4-12c0.3-1.5,1.2-2.8,2.5-3.6
	c3.1-1.9,6.1-3.9,9.1-5.9c0.4-0.3,1.1-0.5,1.3-0.9c0.7-1.4,2-1.3,3.2-1.4c2.6-0.2,5.1,0.2,7.5,1.2c3.1,1.2,6.2,2.2,9.4,3.5
	c1.4,0.6,2.8,1.4,4.2,2.2c0.4,0.3,0.7,0.7,0.9,1.2c1.9,3.7,3.7,7.4,5.6,11.1c3.2,6.3,5.5,13.1,6.7,20.1c0.6,3.2,1,6.5,1.6,9.7
	c0.1,0.7,0.4,1.4,0.8,2c0.5-1.8-0.4-3.5-0.3-5.6c0.8,1.1,1.4,2.4,1.5,3.8c0.3,1.6-1.1,3.6-3.1,4.3c-0.6,0.2-0.7,0.6-1.1,0.9
	c-1.6,1.4-3.2,3-5.9,2.6l0.3,1.1c-0.4,0.3-0.8,0.6-1.2,0.8c-3.4,1.9-7,3.5-10.7,4.7c-1.4,0.4-2.8,0.9-4.1,1.4
	c-0.7,0.2-1.6,0.3-1.6,1.4c0,0.2-0.4,0.4-0.7,0.6c-2,0.8-4.2,1.2-6.4,1.1c-0.1,0-0.1,0-0.2,0c-2.1-1.3-4.6-1-6.7-1.9
	c-3.3-1.4-6.7-2.7-10-4.1C30.5,105.6,30.1,105.4,29.8,105.2c0.4,0,0.9,0.1,1.3,0.2c2,0.5,3.9,1.1,5.9,1.5c0.8,0.1,1.6,0.1,2.4,0
	l0.1-0.4l-1.9-0.8l0.7-0.7c-1-1.6-0.4-3.4-0.7-5.1c0.3,0,0.4-0.1,0.5,0s0.4,0.2,0.5,0.3c0.6,1.7,2.1,2.2,3.7,2.6
	c0.5,0.1,1,0.3,1.5,0.5c1,0.5,2,0.9,3,1.2c1.7,0.5,3.4,0.1,4.8-1c1.5-1.4,3-2.8,4.5-4.2c0.4-0.3,0.8-0.6,1.2-0.8v4.9
	c-1.8,1.4-4.7,1.5-5.1,4.5c0.9,0.8,1.8,0.2,2.6-0.1c5.7-2.2,11-5.2,15.8-8.9c1.9-1.4,3.4-3.2,4.3-5.3c0.8-2,1.5-3.9,0.8-6.2
	c-0.8-2.7-0.8-5.6-1.6-8.3c-1.2-4.5-2.8-8.9-4.1-13.4c-0.1-0.7-0.2-1.4-0.2-2.1l-3.3-6.8v2.4c-1.2-1.7-3-1.8-4-3.3
	c-0.2-0.3-1.1-0.4-1.6-0.3c-1.5,0.1-3.1,0.3-4.9,0.4c0.2-0.9,0.4-1.7,0.6-2.6c0.1-0.8,0.1-1.7,0-2.5c-0.4-1.6-1.5-3-3-3.7
	c-1.7-0.9-3.5-1.5-5.3-2.1l-3-1.2l-2.6,1.4c-0.2,2.7,1,5.4,3.2,7c0.9,0.7,2,1.4,1.3,3h3l1,1.7L47,59c-2.9-2.7-6.5-1.5-9.8-1.9
	l-0.8-1.6c0.8-1.2,1.8,0,2.7-0.2c0.6-0.9,1.1-1.8,1.7-2.7c0.7-1.1-0.8-1.9-0.1-2.8c-0.2-0.1-0.5-0.2-0.7-0.2s-0.5,0.1-0.7,0.2
	c-0.7-1.8-1.1-2-2.6-1.2S34.2,50.2,33,51c-0.6,0.4-1.1,1-0.7,1.8c0.4,0.8,0.3,1.7-0.2,2.4c-0.1,0.2,0,0.5,0.1,0.9l1.7-1.1
	c-0.9,2.1-1.8,4-2.5,5.9c-3.5,8.6-6.8,17.1-8.6,26.2c-0.7,3.9-1,7.8-1,11.8c0,1.6,1.1,2.6,2.6,3.2C26.2,103.1,28,104.1,29.8,105.2z
	 M30.9,55.7l-0.4-0.1l-3.1,7c-3.8,8.7-7,17.8-9.5,27c-0.6,2.1-1.3,3.9-3.1,5.2c1.1,2.6,2.5,3.6,4.6,3.3c0,0,0.1-0.1,0.1-0.2
	c0-0.3,0-0.5,0-0.8c-0.1-3.2,0.4-6.3,1.4-9.3c1.6-4.8,3.2-9.6,4.7-14.5c1.6-5.2,3.1-10.5,4.7-15.7C30.7,57,30.8,56.3,30.9,55.7z
	 M59.2,51.2L58,51.9c0.4,0.4,0.8,0.8,1.1,1.1c0.2,0.1,0.3,0.2,0.5,0.3c1.5,0.5,3.1,1,4.7,1.4c0.2,0.1,0.6-0.1,0.9-0.2
	c-0.4-1.1-0.7-2.1-1-3.1c-0.1-0.2-0.2-0.3-0.4-0.4c-0.9-0.6-1.9-1.1-3-1.5c-0.6-0.1-1.3,0-1.8,0.3C58.9,49.8,59.2,50.6,59.2,51.2z"
	/>
<path class="st1" d="M60.7,43.1C56,39.7,56,39.7,53.9,40c2.8,1.1,5.2,3.2,6.7,5.8c-4.9-1.5-9.9-2.7-15-3.4c0.2-0.3,0.4-0.6,0.7-1.1
	c-0.9-0.1-1.7,0.1-2.5,0.5s-1.7,0.6-2.5,0.7l10-8.7l4.5,1.9c1.7,0.7,3.4,1.4,5.1,2.2c0.8,0.4,1.6,0.9,2.4,1.3
	c0.4,0.3,0.8,0.4,1.2,0.5c1.3-0.1,2.5,0.9,2.6,2.3c0,0.1,0,0.1,0,0.2c0.1,0.4,0.2,0.8,0.3,1.2L64,43l0.9-1.2c-1.1-0.9-1.9-0.1-3,0.1
	l-3.5-3.8l-2.1,0.5C57.8,39.9,59.7,41.1,60.7,43.1z"/>
<path class="st1" d="M94.7,103.1l-17-1.8c1.6-2.3,2.7-2.8,5-2.1c3.8,1.1,7.6,2.2,11.4,3.4C94.3,102.7,94.6,102.8,94.7,103.1
	L94.7,103.1z"/>
<path class="st1" d="M70,105.5c0.6-0.4,1.3-0.7,2.1-0.8c1.5-0.2,3-0.3,4.5-0.2c5.3,0.3,10.6,0.7,15.9,1.3H70.1L70,105.5z"/>
<path class="st1" d="M36.9,110.3c-1.7-0.2-3-0.3-4.3-0.6c-1.2-0.2-2.3-0.6-3.5-0.8c-2.5-0.4-4.7-1.7-6.3-3.6
	C25,105.2,34.5,108.4,36.9,110.3z"/>
<path class="st1" d="M74,103.4c1.2-1.3,2.3-1.7,3.8-1.3c1.7,0.5,3.5,0.7,5.3,1.3H74z"/>
<path class="st1" d="M95.9,106.2l0.4-1.4l1.8,0.5l-0.4,1.3L95.9,106.2z"/>
<path d="M29.8,105.2c-1.7-1.1-3.5-2.1-5.4-3.1c-1.5-0.7-2.6-1.7-2.6-3.2c0-4,0.3-7.9,1-11.8c1.8-9.1,5.1-17.7,8.6-26.2
	c0.7-1.9,1.6-3.8,2.5-5.9l-1.8,1.1c0-0.4-0.2-0.8-0.1-0.9c0.5-0.7,0.6-1.6,0.2-2.4C31.8,52,32.3,51.4,33,51c1.2-0.8,2.5-1.7,3.8-2.5
	s1.9-0.6,2.6,1.2c0.2-0.1,0.4-0.1,0.7-0.1s0.5,0.1,0.7,0.2c-0.7,1,0.8,1.8,0.1,2.8c-0.6,0.9-1.1,1.8-1.7,2.7
	c-0.9,0.3-1.9-0.9-2.7,0.2l0.8,1.6c3.2,0.4,6.9-0.9,9.8,1.9l4.1-2l-1-1.7h-3c0.7-1.6-0.4-2.2-1.3-3c-2.2-1.6-3.4-4.3-3.2-7l2.6-1.4
	l3,1.2c1.8,0.7,3.6,1.3,5.3,2.2c1.5,0.7,2.6,2.1,3,3.7c0.1,0.8,0.1,1.7,0,2.5c-0.1,0.9-0.3,1.7-0.6,2.6c1.8-0.2,3.3-0.3,4.9-0.4
	c0.5,0,1.4,0,1.6,0.3c1,1.4,2.8,1.6,4,3.3v-2.4l3.3,6.8c0,0.7,0.1,1.4,0.2,2.1c1.4,4.4,2.9,8.9,4.1,13.4c0.7,2.7,0.8,5.6,1.6,8.3
	c0.6,2.3,0,4.2-0.8,6.2c-1,2.1-2.5,3.9-4.3,5.3c-4.8,3.7-10.1,6.7-15.8,8.9c-0.8,0.3-1.7,0.9-2.6,0.1c0.4-3,3.3-3.1,5.1-4.5v-4.9
	c-0.4,0.3-0.8,0.5-1.2,0.8c-1.5,1.4-3,2.8-4.5,4.2c-1.3,1.1-3.1,1.5-4.8,1c-1-0.3-2-0.7-3-1.2c-0.5-0.2-1-0.4-1.5-0.5
	c-1.6-0.4-3-0.8-3.7-2.6c0-0.1-0.3-0.2-0.5-0.3s-0.2,0-0.5,0c0.2,1.7-0.3,3.4,0.7,5.1l-0.7,0.7l1.9,0.8l-0.1,0.4
	c-0.8,0.1-1.6,0.1-2.4,0c-2-0.4-4-1-5.9-1.5c-0.4-0.1-0.9-0.2-1.3-0.2L29.8,105.2z M59.2,73.9c-0.1,0,0.2,0,0.3,0.2s0.4,0.8,0.3,1
	c-0.3,0.3-0.7,0.5-1.1,0.6c-0.3,0.1-0.6-0.1-1-0.2c-2.3-0.5-4.6-1-6.9-1.6c-0.5-0.1-0.8-0.7-1.3-1.1c-0.1,0.9-0.2,1.7-0.3,2.6
	c-1-1-0.8-2.1-0.8-3.2c0.1-0.5,0-1-0.2-1.5c-0.7-1.2-1-2.6-0.7-4c0.1-0.8,0.2-1.6,0.3-2.3c-1.4-0.6-2.6-1.1-3.9-1.5
	c-0.7-0.2-1.5-0.3-2.3-0.3c-0.9,0.1-1.8,0.4-2.7,0.5c-1.6,0.2-3.2,0.4-4,2.2c-0.2,0.5-0.8,0.8-1.2,1.2c-0.4,0.4-0.7,0.8-0.9,1.3
	c-1,2.3-1.9,4.7-2.9,7.1c-0.4,0.9-0.5,1.9-0.1,2.9c2.4,6.5,4.8,13.1,7.3,19.6c0.3,0.6,0.7,1.1,1.3,1.3c2,0.9,4,1.6,6,2.5
	c1.5,0.7,2.9,1.7,4.7,0.9c0.1-0.1,0.3-0.1,0.4,0c1,0.6,1.6-0.2,2.2-0.8c2.1-2.3,4.2-4.7,6.4-7c0.5-0.4,0.8-1,1-1.6
	c1.5-5.7,3.1-11.4,4.6-17.2c0.5-1.8,1.1-3.7,0.8-5.6c-0.4-2.3-0.8-4.5-1.3-6.8c-0.4-1.8-1.2-2.2-3-2c-1.1,0.2-2.2,0.3-3.3,0.2
	c-2.5-0.1-5,0.5-7.2,1.8c-0.7,0.3-1.4,0.8-1.4,1.8c0.1,2.2-0.3,4.4,1.7,6c1.8-1.2,3.6-2.5,5.5-3.7c1.1-0.7,2.3-1.3,3.4-2
	c0.7-0.3,1.3-0.5,1.8,0.5l-2,1.1C59,69.3,59.1,71.3,59.2,73.9z M56.9,71.7L56.4,72c-0.1-0.9-0.4-1.3-1.2-1.2s-1.2,0.4-1.1,1.5
	c0.8,0.1,1.6,0.3,2.4,0.3c0.6,0.1,1.1-0.3,1.2-0.9v-0.1c0.1-0.6,0.4-1.4-0.8-1.8L56.9,71.7z M57.8,72.9c0.9-0.3,0.9-0.3,0.8-1.1
	L57.8,72.9z"/>
<path d="M30.9,55.7c-0.1,0.7-0.2,1.3-0.4,2c-1.5,5.2-3.1,10.5-4.7,15.7c-1.5,4.8-3,9.7-4.7,14.5c-1,3-1.5,6.1-1.4,9.3
	c0,0.3,0,0.5,0,0.8c0,0.1-0.1,0.1-0.1,0.2c-2.1,0.2-3.5-0.8-4.6-3.3c1.8-1.3,2.5-3.1,3-5.2c2.5-9.2,5.6-18.3,9.5-27l3.1-7L30.9,55.7
	z"/>
<path d="M59.2,51.2c0-0.5-0.3-1.4-0.1-1.5c0.5-0.3,1.2-0.4,1.8-0.3c1,0.4,2,0.9,3,1.5c0.2,0.1,0.3,0.2,0.4,0.4c0.3,1,0.7,2,1,3.1
	c-0.3,0.1-0.7,0.3-0.9,0.2c-1.6-0.4-3.1-0.9-4.7-1.4c-0.2,0-0.4-0.1-0.5-0.3c-0.4-0.4-0.8-0.8-1.1-1.1L59.2,51.2z"/>
<path class="st1" d="M59.2,73.9c-0.1-2.5-0.3-4.6-0.4-6.9l2-1.1c-0.5-0.9-1.2-0.8-1.8-0.5c-1.2,0.6-2.3,1.2-3.4,2
	c-1.9,1.2-3.7,2.5-5.5,3.7c-2-1.6-1.7-3.9-1.7-6c0-1,0.7-1.4,1.4-1.8c2.2-1.3,4.7-1.9,7.2-1.8c1.1,0.1,2.2,0,3.3-0.2
	c1.8-0.3,2.6,0.2,3,2c0.5,2.3,0.9,4.5,1.3,6.8c0.3,2-0.3,3.8-0.8,5.6c-1.5,5.7-3.1,11.4-4.6,17.2c-0.2,0.6-0.5,1.2-1,1.6
	c-2.2,2.3-4.3,4.6-6.4,7c-0.6,0.6-1.1,1.4-2.2,0.8c-0.1-0.1-0.3-0.1-0.4,0c-1.8,0.8-3.2-0.2-4.7-0.9c-2-0.9-4-1.6-6-2.5
	c-0.6-0.3-1-0.8-1.3-1.3c-2.5-6.5-4.9-13.1-7.3-19.6c-0.3-0.9-0.3-2,0.1-2.9c1-2.4,1.9-4.8,2.9-7.1c0.2-0.5,0.6-0.9,0.9-1.3
	c0.4-0.4,1-0.7,1.2-1.2c0.8-1.9,2.4-2,4-2.2c0.9-0.1,1.8-0.5,2.7-0.5c0.8,0,1.5,0.1,2.3,0.3c1.2,0.4,2.4,1,3.9,1.5
	c-0.1,0.7-0.2,1.5-0.3,2.3c-0.3,1.4,0,2.8,0.7,4c0.2,0.5,0.3,1,0.2,1.5c0,1.1-0.2,2.2,0.8,3.2c0.1-0.8,0.2-1.7,0.3-2.6
	c0.5,0.4,0.9,1,1.3,1.1c2.3,0.6,4.6,1.1,6.9,1.6c0.3,0.1,0.7,0.3,1,0.2c0.4-0.1,0.8-0.3,1.1-0.6c0.1-0.2-0.1-0.7-0.3-1
	S59.2,73.8,59.2,73.9z M38.4,91.9c-0.3,2.2,0.4,3.7,2.5,4.5c1.3,0.6,2.8,0.9,4.3,0.8c0.7-0.1,1.4-0.1,2.1-0.2
	c2.4-0.1,4.7-0.9,6.8-2.2c0.3-0.1,0.5-0.4,0.7-0.7c0.4-1.7,1.5-3.3,0.7-5.3c-0.4-1-0.6-1.3-1.6-0.9c-1.3,0.5-2.6,0.7-4,0.6
	c-1.7-0.2-3.4,0.1-4.9,0.9c-0.8-1.3-2.1-0.9-3.2-1.1c-1.5-0.3-2.9,1.5-4.4,0.1C36.7,91.2,36.7,91.2,38.4,91.9L38.4,91.9z M34.1,67.2
	c0.7,2.9-0.8,5.1-1.8,7.7c3.6-0.7,7.3,0.2,10.4-2.4l-0.7-2c0.7,0,1.4,0.5,1.9-0.3c1-1.7,1-3.7,0.1-5.5c-0.1,0.9-0.3,1.8-0.5,2.7
	c-0.3,0.9-0.6,1.7-1,2.5C39.8,68.2,38.4,67.8,34.1,67.2z M44.6,71.2l-0.5-0.1c-0.1,0.4-0.2,0.8-0.2,1.1c0.1,0.5,0.1,1,0,1.5
	c-0.6,1.8-1.3,3.7-2.1,5.4c-0.4,0.7-0.4,1.6,0.2,2.2c0.9,0.9,1.9,1.8,2.8,2.7s2.2,0.8,3.4,0.2c2-1,2.6-3,2.8-5
	c0.1-1.3-0.7-2.4-1.8-2.9l1.1,3.5c-0.4,0.6-0.7,1.2-1.1,1.9c-0.9,1.4-1.8,1.5-3,0.3c-0.2-0.2-0.3-0.4-0.5-0.6
	c-1.3-1.4-1.4-1.4-3.4-1.1C43.2,77.3,45.2,74.6,44.6,71.2z M36.2,87.5c1.1-1.7,0.1-2.9-0.8-3.9c-1.7-1.7-2.5-4.1-2.2-6.6
	c-1.2,0.6-1.3-0.6-2.1-1c-0.4,1.7,0,3.4,1,4.8c1.2,2,3.5,3.4,3.5,6.1C35.7,87.1,36,87.2,36.2,87.5z M55.6,88.1l0.5,0.2
	c0.4-1.3,0.9-2.6,1.2-3.9c0.2-1,0.7-1.8,1.4-2.5c1.5-1.4,2.5-3.3,2.8-5.3c0-0.5,0-0.9-0.1-1.4c-0.6,2-1.7,3.9-3.2,5.4
	C56,82.7,55.8,85.4,55.6,88.1z"/>
<path class="st1" d="M56.9,71.7v-1.8c1.2,0.3,0.8,1.2,0.8,1.8c0,0.6-0.5,1-1.1,1h-0.1c-0.8-0.1-1.7-0.2-2.4-0.3
	c-0.2-1.1,0.3-1.3,1.1-1.5s1.2,0.3,1.2,1.2L56.9,71.7z"/>
<path class="st1" d="M57.8,72.9l0.8-1.1C58.8,72.6,58.8,72.6,57.8,72.9z"/>
<path d="M38.4,91.8c-1.8-0.6-1.8-0.6-1.1-3.5c1.5,1.4,2.9-0.3,4.4-0.1c1.2,0.2,2.5-0.2,3.2,1.1c1.5-0.7,3.2-1,4.9-0.9
	c1.4,0.1,2.7-0.1,4-0.6c1-0.4,1.2-0.1,1.6,0.9c0.8,1.9-0.2,3.6-0.7,5.3c-0.1,0.3-0.4,0.6-0.7,0.7c-2.1,1.3-4.4,2-6.8,2.2
	c-0.7,0-1.4,0.1-2.1,0.2c-1.5,0.1-3-0.2-4.3-0.8C38.8,95.5,38.1,94,38.4,91.8z M52.3,91.8l0.4-1.6l-3.2-0.4
	c-0.3,3.9-0.3,3.9-1.4,4.8c0.3-1.6,0.5-2.9,0.8-4.3c-0.4-0.1-0.7-0.3-1-0.2c-0.9,0.2-1.4,1-1.3,1.9c0,0.6,0.2,1.4-0.9,1.2V91h-1.8
	c0,0.7-0.1,1.3-0.1,1.8c-0.1,1.5,0.9,2.8,2.4,3c0.3,0,0.7,0,1-0.1c1.1-0.2,2.1-0.6,3.2-1C52.6,94.1,52.6,94.1,52.3,91.8L52.3,91.8z
	 M41.5,91.4c-1.1,0-1.4,0-1.5,0.4c-0.2,1.1,0.8,1.2,1.5,1.9V91.4z M42.7,92.6l0.8-2.6l-1.4,0.2L42.7,92.6z M43.5,95.4L43,94
	c-0.2,0.4-0.4,0.7-0.6,1c-0.2,0.2-0.5,0.4-0.7,0.5l0.2,0.4L43.5,95.4z M53.9,89.8h-0.5v1h0.3L53.9,89.8z"/>
<path d="M34.1,67.2c4.3,0.6,5.7,1,8.5,2.7c0.4-0.8,0.7-1.7,1-2.5c0.2-0.9,0.4-1.8,0.5-2.7c0.9,1.7,0.9,3.8-0.1,5.5
	c-0.5,0.8-1.2,0.4-1.9,0.3l0.6,2.1c-3.1,2.6-6.8,1.7-10.4,2.4C33.3,72.4,34.8,70.1,34.1,67.2z M38.9,72c0.2-0.3,0.5-0.8-0.1-1.6
	c-0.9,0.8-2.1,1.2-3.3,1c-0.1,0-0.2,0.4-0.3,0.7L38.9,72z"/>
<path d="M44.6,71.2c0.6,3.3-1.4,6.1-2.3,9.1c2-0.3,2.1-0.3,3.4,1.1c0.2,0.2,0.3,0.4,0.5,0.6c1.2,1.2,2.1,1.1,3-0.3
	c0.4-0.6,0.7-1.2,1.1-1.9l-1.1-3.5c1.2,0.5,1.9,1.7,1.8,2.9c-0.2,2-0.8,4-2.8,5C47,84.8,45.9,85,44.8,84s-1.9-1.8-2.8-2.7
	c-0.6-0.6-0.7-1.5-0.2-2.2c0.8-1.8,1.5-3.6,2.1-5.4c0.1-0.5,0.1-1,0-1.5c0.1-0.4,0.1-0.8,0.2-1.1L44.6,71.2z"/>
<path d="M36.2,87.5c-0.2-0.2-0.5-0.4-0.5-0.6c0-2.7-2.4-4.1-3.5-6.1c-1-1.4-1.4-3.2-1-4.8c0.8,0.4,0.8,1.7,2.1,1
	c-0.3,2.4,0.5,4.8,2.2,6.6C36.3,84.6,37.3,85.8,36.2,87.5z"/>
<path d="M55.6,88.1c0.2-2.7,0.4-5.4,2.7-7.5c1.5-1.5,2.6-3.4,3.2-5.4c0.1,0.5,0.1,0.9,0.1,1.4c-0.3,2-1.3,3.9-2.8,5.3
	c-0.7,0.7-1.2,1.5-1.4,2.5c-0.3,1.3-0.8,2.6-1.2,3.9L55.6,88.1z"/>
<path class="st1" d="M52.3,91.8c0.2,2.4,0.2,2.4-2,3.1c-1,0.3-2.1,0.7-3.2,1c-1.4,0.4-2.9-0.5-3.3-1.9c-0.1-0.3-0.1-0.7-0.1-1
	c0-0.6,0.1-1.2,0.1-1.8h1.8v2.2c1.2,0.3,1-0.6,0.9-1.2c-0.2-0.9,0.5-1.8,1.4-1.9l0,0c0.3-0.1,0.6,0.1,1,0.2
	c-0.3,1.4-0.5,2.7-0.8,4.3c1-0.9,1-0.9,1.4-4.8l3.2,0.4L52.3,91.8c-0.2-0.4-0.4-0.9-0.7-1.6c-0.7,1-0.8,2.2-0.4,3.3L52.3,91.8z"/>
<path class="st1" d="M41.5,91.4v2.3c-0.7-0.8-1.7-0.8-1.5-1.9C40.1,91.5,40.4,91.4,41.5,91.4z"/>
<path class="st1" d="M42.7,92.7l-0.5-2.5l1.4-0.2L42.7,92.7z"/>
<path class="st1" d="M43.5,95.5l-1.8,0.4l-0.2-0.4c0.3-0.1,0.5-0.3,0.7-0.5c0.3-0.3,0.5-0.6,0.7-1L43.5,95.5z"/>
<path class="st1" d="M53.9,89.9l-0.2,1h-0.3v-1H53.9z"/>
<path class="st1" d="M38.9,72l-3.8,0.2c0.1-0.3,0.2-0.7,0.3-0.7c1.2,0.2,2.4-0.2,3.3-1C39.4,71.2,39.1,71.8,38.9,72z"/>
<path d="M52.3,91.8l-1.2,1.7c-0.4-1.1-0.3-2.3,0.4-3.3C51.9,90.9,52.1,91.4,52.3,91.8L52.3,91.8z"/>
<text transform="matrix(1 0 0 1 13.36 15.36)" class="st2 st3">Mordred</text>
</svg>
