<?xml version="1.0" encoding="utf-8"?>
<!-- Generator: Adobe Illustrator 23.0.6, SVG Export Plug-In . SVG Version: 6.00 Build 0)  -->
<svg version="1.1" id="Layer_1" xmlns="http://www.w3.org/2000/svg" xmlns:xlink="http://www.w3.org/1999/xlink" x="0px" y="0px"
	 viewBox="0 0 100 120" style="enable-background:new 0 0 100 120;" xml:space="preserve">
<style type="text/css">
	.st0{fill:#FF7BAC;}
	.st1{font-family:'Badonk-a-donk';}
	.st2{font-size:10px;}
	.st3{letter-spacing:-1;}
	.st4{clip-path:url(#SVGID_2_);}
	.st5{fill:#FFFFFF;}
</style>
<title>AvalonCards</title>
<rect class="st0" width="100" height="120"/>
<text transform="matrix(1 0 0 1 14.92 15.36)" class="st1 st2">Mo</text>
<text transform="matrix(1 0 0 1 38.42 15.36)" class="st1 st2 st3">r</text>
<text transform="matrix(1 0 0 1 47.02 15.36)" class="st1 st2">g</text>
<text transform="matrix(1 0 0 1 56.55 15.36)" class="st1 st2">a</text>
<text transform="matrix(1 0 0 1 65.92 15.36)" class="st1 st2">n</text>
<text transform="matrix(1 0 0 1 76.06 15.36)" class="st1 st2">a</text>
<g>
	<defs>
		<rect id="SVGID_1_" x="1.1" y="21.3" width="95.3" height="98.6"/>
	</defs>
	<clipPath id="SVGID_2_">
		<use xlink:href="#SVGID_1_"  style="overflow:visible;"/>
	</clipPath>
	<g class="st4">
		<path class="st5" d="M67.2,58L67.2,58c-0.1-0.6,0-1.3,0.1-1.9c0.7-3.1,0.4-6.4-1-9.3c-0.2-0.5-0.5-1.3-1-1.4
			c-0.8-0.3-0.9-1.1-1.1-1.6c-0.2-1-0.2-2,0-3c0.3-1.4,0-2.8-0.8-3.9c-1.1-2.1-2.5-4-4.9-4.7c-0.4-0.1-0.8-0.6-1.2-0.8
			c-1.5-0.7-3-1.8-4.5-1.9c-5-0.4-10,0.7-14.4,3.2c-3,1.6-5.3,4.2-6.5,7.4c-0.4,0.7-0.9,1.3-1.4,1.9c0.3,0.9,0,1.9-0.6,2.6
			c-0.9,0.7-1,2-0.3,2.9c1,1.9,1.2,4.1,0.5,6.1c-1.2,4-2.9,7.7-5.1,11.2c-0.2,0.4-0.5,0.7-0.8,1c-2.7,2-3.8,5-4.8,8
			c-1.1,3.4-0.8,7,1,10.1c0.8,1.6,1.8,2.7,3.8,2.9c-0.2,0.7-0.4,1.2-0.5,1.8c-1.9,6.3-3.7,12.5-5.7,18.8c-0.2,0.8-0.6,1.5-1.2,2.2
			s-0.9,1.3-0.4,2.1c0.5,0.8,0.2,1.3-0.1,2c-0.8,1.6-1.4,3.3-1.9,5c-0.2,0.7-0.2,1.4,0.1,2.1c0.4,0.9,0.4,1.8,0.1,2.7l-3,0.8
			c1.3,0.4,2.6,0.6,3.9,0.6c6.1,0,12.2,0,18.4,0c1,0,1.9,0.1,2.4,1.1c0,0,0.2,0,0.4,0l0.3-1.2c1.6,0.1,3.1-0.1,4.6-0.7l-2.7-0.4
			c3.5-0.5,7-0.7,10.6-0.9c3.8-0.2,7.5-0.3,11.3-0.5c1.1-0.1,2.1-0.2,3.2-0.3c0.7,0.1,1.2-0.4,1.3-1.1c0-0.1,0-0.2,0-0.3
			c0-0.7,0.2-1.3,0.4-1.9c1.2-2.6,1.4-5.6,0.6-8.4c-0.2-0.8-0.4-1.7-0.6-2.5c0.2-0.1,0.4-0.1,0.5-0.1c3.2,0.9,6.5,1.2,9.8,0.9
			c1.1-0.1,2.2-0.3,3.3-0.7c0.6-0.2,1.3-0.4,1.3-1.2c-5.3-0.1-6-0.4-6.9-2.5c0.3,0,0.7,0,1,0c2.1,0.3,4.3,0.2,6.4-0.3
			c0.6-0.1,1.4-0.2,1.4-1.1c-1.5-0.7-3.4-0.5-4.5-2.1c0.2-0.2,0.5-0.5,0.5-0.7c0.1-2,1.5-2,2.9-2.1c1.7,0,3.5,0,5.2,0
			c0.5,0,1,0,1.5,0l0.1-0.4c-0.5-0.2-1-0.4-1.5-0.6c-1-0.2-2.1-0.6-3.1-0.9c-1.6-0.7-1.8-1.9-0.8-3.5c1.3,0,2.6,0.8,4,0.2l-3.1-1
			l1.4-0.3c-0.5-0.5-1.1-0.8-1.8-1c-1-0.2-2-0.3-3-0.4c-2-0.2-4.1-0.5-5.8-1.8c-3.1-2.5-6.3-5.1-8.4-8.5c-1.6-2.5-1.8-5.6-0.6-8.3
			c0.9-2.4,1.7-4.8,2.4-7.3C68.4,62,68.6,59.9,67.2,58z"/>
		<path d="M67.2,58c1.3,1.8,1.2,3.9,0.7,5.9c-0.6,2.5-1.4,4.9-2.4,7.3c-1.2,2.7-0.9,5.8,0.6,8.3c2.2,3.4,5.3,6,8.4,8.5
			c1.6,1.3,3.7,1.6,5.8,1.8c1,0.1,2,0.2,3,0.4c0.7,0.2,1.3,0.5,1.8,1l-1.4,0.3l3.1,1c-1.5,0.7-2.7-0.2-4-0.2c-1,1.6-0.8,2.7,0.8,3.5
			c1,0.4,2,0.7,3.1,0.9c0.5,0.2,1,0.4,1.5,0.6L88,97.7c-0.5,0-1,0-1.5,0c-1.7,0-3.5-0.1-5.2,0c-1.4,0-2.8,0.1-2.9,2.1
			c0,0.2-0.3,0.5-0.5,0.7c1.1,1.6,3,1.5,4.5,2.1c0,0.9-0.8,1-1.4,1.1c-2.1,0.5-4.3,0.6-6.4,0.3c-0.3,0-0.7,0-1,0
			c0.9,2.1,1.6,2.4,6.9,2.5c-0.1,0.8-0.8,1-1.3,1.2c-1.1,0.3-2.2,0.6-3.3,0.7c-3.3,0.3-6.6,0-9.8-0.9c-0.1,0-0.2,0-0.5,0.1
			c0.2,0.8,0.4,1.7,0.6,2.5c0.8,2.8,0.6,5.8-0.6,8.4c-0.3,0.6-0.4,1.2-0.4,1.9c0.1,0.7-0.4,1.3-1,1.4c-0.1,0-0.2,0-0.3,0
			c-1.1,0.1-2.2,0.2-3.2,0.3c-3.8,0.2-7.5,0.3-11.3,0.5c-3.5,0.2-7,0.4-10.6,0.9l2.7,0.4c-1.4,0.6-3,0.8-4.6,0.7l-0.3,1.2
			c-0.2,0-0.3,0-0.4,0c-0.5-1-1.3-1.1-2.4-1.1c-6.1,0.1-12.2,0.1-18.4,0c-1.3,0-2.7-0.2-3.9-0.6l3-0.8c0.3-0.9,0.2-1.8-0.1-2.7
			c-0.3-0.7-0.3-1.4-0.1-2.1c0.5-1.7,1.2-3.4,1.9-5c0.3-0.7,0.6-1.3,0.1-2s-0.2-1.4,0.4-2.1c0.5-0.6,0.9-1.4,1.1-2.2
			c1.9-6.2,3.8-12.5,5.7-18.7c0.2-0.6,0.3-1.1,0.5-1.8c-1.9-0.2-3-1.3-3.8-2.9c-1.8-3.1-2.1-6.8-1-10.1c1-3,2.1-6,4.8-8
			c0.3-0.3,0.6-0.6,0.8-1c2.2-3.5,3.9-7.3,5.1-11.2c0.7-2,0.6-4.2-0.5-6.1c-0.7-0.9-0.6-2.2,0.3-2.9c0.6-0.7,0.8-1.7,0.6-2.6
			c0.6-0.6,1-1.2,1.4-1.9c1.1-3.2,3.5-5.8,6.5-7.4c4.4-2.5,9.4-3.6,14.4-3.2c1.5,0.1,3,1.2,4.5,1.9c0.4,0.2,0.8,0.6,1.2,0.8
			c2.5,0.7,3.8,2.6,4.9,4.7c0.7,1.2,1,2.6,0.8,3.9c-0.2,1-0.2,2,0,3c0.1,0.6,0.2,1.3,1.1,1.6c0.4,0.2,0.7,0.9,1,1.4
			c1.4,2.9,1.7,6.2,1,9.3C67.2,56.7,67.2,57.4,67.2,58v3.1c0.3-0.2,0.4-0.3,0.4-0.5C67.5,59.8,67.4,58.9,67.2,58z M33.8,75.4
			c0.6-0.7,0.9-1.7,0.7-2.6c1-1.8,0.8-3.8,0.6-5.8c-0.2,1.9-0.4,3.9-0.6,5.8C34.3,73.7,34.1,74.6,33.8,75.4l-0.7,1.4l0.4,0.1
			L33.8,75.4z M60,49.7c0.1,0.6,0.3,1.3,0.4,2.1c0.4,0.1,0.8,0.1,1.2,0c0.2-0.1,0.5-0.6,0.4-0.8c-0.4-0.6-0.9-1.1-1.5-1.7
			C60.6,49.3,60.2,49.6,60,49.7l-1-0.4c-0.3,0.7-1,1.2,0.1,1.9L60,49.7z M64.8,58.8c-0.6,0.6-0.8,1.5-0.6,2.3
			c0.5,2.8,0.3,5.6-0.8,8.3c-0.1,0.4-0.2,0.8-0.3,1.2c1.6-2.5,2.5-5.5,2.5-8.5C65.8,60.9,65.5,59.7,64.8,58.8
			c1.3-0.1,1.2-1.2,1.3-2.2L64.8,58.8z M34.2,40.2l-0.2,1h1.3c-0.7-1.1,0.4-1.3,0.6-2.1L34.2,40.2c0.3-0.9,0.8-1.8,1.4-2.6
			c1.5-1.5,3.1-2.8,4.7-4.1c0.1-0.1,0.3-0.2,0.5-0.1c1.8,0.1,2.9-1.2,4.3-2c-6,0.9-10.4,3.9-12.7,9.6C33.6,41.7,33.6,40.3,34.2,40.2
			z M34.6,119c0.2,1.8,0.6,2.7,1.7,3.3L34.6,119c-0.1-0.3-0.1-0.7-0.2-1c-1.6-6.6-3.2-13.3-4.8-19.9c-0.3-1.5-0.5-3-0.7-4.4
			c0.3,0.1,0.4,0.3,0.5,0.6c0.6,2.6,1.3,5.2,2,7.8c0.3,1,0.3,2.3,0.9,3c0.6,0.7,1,1.6,1.2,2.5c1.2,3.7,2.8,7.3,4.8,10.6
			c0.9,1.4,2,2.3,3.8,2c0.5-0.1,0.9-0.1,1.6-0.2c-0.8-2.8-1.5-5.4-2.3-8.1l0.4-0.1c0.9,2.7,1.7,5.4,2.6,8.2l3-0.4
			c-0.5-4.7-2.5-8.8-3.4-13.2c2,4.1,3.5,8.5,4.2,13c0.5,0,0.9,0,1.2,0c0.2,0,0.4-0.1,0.6-0.2c0-3.5-1.5-6.7-2.5-10
			c1.9,3,3.1,6.5,3.4,10.1l6.9-0.6c-0.6-4-1.1-7.8-1.6-11.6l0.4-0.1c0.4,1.9,0.8,3.9,1.2,5.8s0.3,4,1.2,5.8
			c0.9-3.9-0.4-7.7-0.9-11.5c1.5,3.6,2.2,7.4,2.1,11.3c0.9,0.2,1.1-0.3,1-0.8c0-1.4-0.1-2.8-0.2-4.1c-0.2-1.5-0.6-3-0.9-4.5
			c1.6,2.9,2.2,6.1,1.9,9.3c0.9,0.4,1.2,0,1.4-0.6c0.6-1.8,0.7-3.7,0.2-5.5l-0.8-2.6c1.3,1.7,2,3.7,2,5.8c0.3-1.2,0.4-2.5,0.3-3.7
			c-0.2-1.2-0.4-2.5-0.8-3.7c-0.3-1.4-0.7-2.8-2.7-2.9c0.4-0.5,0.9-0.9,1.4-1.2c2.5-1.2,4.8-2.8,6.6-4.9c1.2-1.3,2.2-2.9,2-4.7
			c-0.2-1.8-1-3.5-2.2-4.8c-1.2-1.2-2.4-2.3-3.6-3.5c-0.9-0.8-1.8-1.5-3-2.4c0.5,1.6,0.9,2.8,1.3,4c1,2.8-0.2,2.7-2.1,3.6
			c-0.2,0.1-0.5,0-0.7,0.1c-1.1,0.7-2.8,0.4-3.4,2c-0.1,0.2-0.5,0.3-0.8,0.2c-1.1,0-2.2-0.2-3.2-0.5c-2.7-0.9-5.3-2.2-7.8-3.7
			c-3.7-2.5-6.9-5.6-9.4-9.2c-0.2-0.2-0.4-0.3-0.5-0.5l-0.5,0.9c-1.6,0.2-3.2,0.6-4.7,1.2c-2.5,1.2-4.7,2.9-5.3,6
			c-0.1,0.5-0.3,1-0.5,1.5c-2.2,6.1-3.5,12.5-6.3,18.4c0,0.2,0,0.4,0,0.7c1,1.3,2.2,2.7,3.4,4.1s2.4,2.6,3.5,3.9
			c0.3,0.4,0.5,0.8,0.6,1.2c-1.7-0.1-3.3-0.9-4.3-2.3c-1.4-1.7-2.7-3.5-4.3-5.4c-0.2,0.6-0.5,1-0.4,1.4c0.3,1.4,0.8,2.7,1.6,3.9
			c0.9,1.3,1.7,2.6,2.4,4c0.4,1,1.3,1.8,2.3,2.1c0.1,0,0.2,0.2,0.2,0.2l-0.3,0.8c0.6,0.6,1.5,0.9,2.3,0.7c2.5-0.1,4.9-0.2,7.4-0.3
			c0.4,0,0.8-0.1,1.4-0.2c-3.5-8.6-5-17.6-7.4-26.4c0.5,0.9,1,1.8,1.2,2.8c1.5,5.1,2.9,10.3,4.4,15.4C33.3,115.8,34,117.4,34.6,119
			L34.6,119z M55.8,55.3c-0.2-0.6-0.5-1.1-0.8-1.6c-1-0.8-1-1.8-1-2.9c-0.1-1.2,0.4-2.3,1.3-3c2.2-0.2,4.5,0.4,6.7-0.9
			c-0.2-0.8,0.1-1.7-1-1.8c-1.8-0.2-3.5-0.7-5.2,0.5c-1.4,1-2.4,0.7-3.6-0.6c-0.3-0.3-0.6-0.6-0.8-0.7c-0.6,0.3-1.3,0.5-2,0.6
			c-1.9,0.2-3.8,0.2-5.7,0.3s-3.9,0.2-5.9,0.4c0.2,6,0.4,11.9-1.7,17.6c2,2.5,4.3,4.6,7.5,5.4s6.3,1.7,9.5,2.4
			c1.3,0.3,2.6-0.2,3.4-1.2c1-1.5,1.8-3.1,2.5-4.8c0.5-1.2,0.7-2.6,1.3-3.7s0.2-2.5,0.6-3.8c0.5-1.6,0.7-3.2,0.6-4.8l-4.7-0.2
			c0.7-0.6,0.9-1.7,0.4-2.6l-1.8,0.5l-0.1-0.3l1.4-1.1l-1.3-0.4c-1.1,1.4-1,3.4,0.1,4.8c0.2,0.3,0.4,0.6,0.6,0.9
			c0.6,0.8,0.4,1.8-0.3,2.4c0,0-0.1,0-0.1,0.1c-0.7,0.4-1.4,0.7-2.1,0.9C53.4,55.7,55.1,56.2,55.8,55.3z M37,79.7
			c0.5,0.3,0.9,0.7,1.3,1.1c0.8,1,1.8,1,2.9,0.5s2.4-0.8,3.5-1.2l1.3,1.3c-2.1-0.8-3.8,0.8-6.1,0.7c0.9,1,1.5,1.6,2.2,2.2
			c2.2,2,4.7,3.6,7.4,4.8c1.1,0.6,2.9,0,3.2,2c1.2,0.4,2.4,1.3,3.5,1.2c1.5-0.2,3-1,4.6-1.7c-1.9-2.3-4.6-3.3-6-5.7
			c2.4,1.4,4.9,2.7,6.6,5c1.7-1.6,1.7-3.3-0.1-4.7c-2.8-2.1-5.6-4-8.4-6c-2.2,0.8-2.2,0.8-3,0.5l1.9-1.1c-1.3-0.8-1.9-2.5-3.9-2
			c-0.2-1.9-0.3-3.6-0.5-5.3c-3.5-0.4-6.4-2.2-9.5-4c-0.2,1.6-0.3,3.2-0.2,4.8C38.1,74.4,37.2,76.8,37,79.7z M32.4,48l0.8-2.3
			l-0.3-0.3l-0.5,1.1l-0.3-0.2l0.8-1.6l-0.2-0.1l-1.4,1.5l-0.2-0.2l0.9-1.5c-0.5,0-1,0.2-1.4,0.5c-0.4,0.4-0.5,1.1-0.2,1.7
			c0.5,0.9,0.9,1.8,1.2,2.8c1,2,1.3,4.3,0.9,6.5c-1.3,5.5-3.7,10.8-7.1,15.3c-0.4,0.5-0.8,1-1.1,1.4l0.2,0.2l1.2-0.8
			C24,74.2,22,76.3,22,79.3c1-1.9,2.1-3.7,3.4-5.5c1.2-1.3,2.2-2.8,3-4.4c0.5-1.1,1.6-2,1.3-3.4c0-0.1,0.1-0.3,0.2-0.4
			c0.5-0.8,1-1.7,1.4-2.7c1.2-3.3,1.9-6.7,2.2-10.2c0.1-1.7,0-3.4,0-5.2L32.4,48z M20.9,78.6c0.1-0.1,0.2-0.3,0.3-0.4
			c0.6-1.5,1.5-2.9,1.8-4.5c0.3-1.9,2-2.4,2.7-3.8c0.4-0.7,0.9-1.3,1.2-2c1.3-2.6,2.6-5.1,3.7-7.8c0.6-1.4,1.1-2.8,1.5-4.2
			c0.1-0.2-0.1-0.5-0.3-1c-0.5,1.6-1.2,3.2-1.9,4.8c-0.7,1.6-1.7,3.1-2.9,4.5c-1.5,1.6-2.9,3.3-4,5.3C21.3,72.1,20.5,75.4,20.9,78.6
			z M22.9,122.9c-0.9-1.1-1.7-2-2.3-2.9c-0.7-0.9-1.3-1.8-1.9-2.8c-0.5-0.9-0.8-2-1.3-2.9c-0.5,3-1.8,5.8-1.7,9.1L22.9,122.9z
			 M31.7,43.8c2.2-0.1,4.1-0.3,6-0.4s3.7,0.2,5.5,0.1s3.7,0.7,5.6,0.6l-0.3-2.6c-2,0.4-3.8,0.8-5.7,1.1c-0.4,0-0.9,0-1.3-0.1
			c0.2-0.9-0.5-0.6-0.9-0.6c-2.6,0-5.3,0-7.9,0c-0.2,0-0.4,0.1-0.6,0.2L31.7,43.8z M53.5,76.5l-0.1,0.4l8.1,5c0-0.5,0-1.1,0.2-1.6
			c0.6-1,0.1-1.6-0.5-2.3s-1.1-1.5-2.3-1.5C57.1,76.5,55.3,76.5,53.5,76.5z M37.2,121.3c0,0.7,0.3,1,1,0.9l2.2-0.1l14-0.9
			c2.8-0.2,5.5-0.3,8.2-0.5c0.3,0,0.5-0.3,0.8-0.5l-0.1-0.3c-2.7,0.2-5.4,0.5-8.2,0.7c-4.5,0.3-8.9,0.7-13.4,0.9
			C40.2,121.6,38.7,121.5,37.2,121.3z M53.5,45.1c1.1-0.1,2.1-0.8,2.6-1.8c0.5-0.7,0.5-1.6-0.1-2.2c-0.6-0.7-1.5-0.9-2.3-0.6
			c-0.5,0.4-0.9,1-1,1.7C52.4,43.2,52.7,44.4,53.5,45.1z M43.9,32.9l0.1,0.5l4.2-0.8L47.6,32c0.4-0.3,0.7-0.4,1.2-0.6
			c0.9-0.1,1.9-1.1,2.5,0.4c0.2,0,0.5,0,0.7-0.1c0-0.6,0.5-0.5,0.7-0.4c0.8,0.3,1.5,0.7,2.2,1.1c0.1-1-0.5-1.6-1.5-1.7
			c-0.9-0.1-1.8-0.2-2.7-0.2C48,30.3,46.1,31.9,43.9,32.9z M32.7,79.6c2.2-1.1,2.5-3,3.1-4.8c0.6-1.9,0.8-3.9,0.5-5.9
			C35.5,72.6,35.1,76.2,32.7,79.6z M64.4,51.2c-0.7,0.4-1.4,0.4-1.5,1.3c-0.1,1.8-0.3,3.7-0.5,5.7C63.9,56.2,64.6,53.7,64.4,51.2z
			 M35.5,48.4l0.2-2.1h0.2l0.3,1.2l0.3-0.9l0.7,0.5L37,44.9l-2.9-0.3l0.4,3.1l0.7-1.4l0.2,0.1L35.5,48.4z M60.2,44.4l3.4-0.2
			l-0.1-1.8H61L60.2,44.4z M37.4,41.1h6.1c-1.5-1-3.1-0.7-4.7-0.9C38.5,40.1,38.1,40.7,37.4,41.1z M51.2,43.5
			c-0.2-0.8,0.8-1.7-0.4-2.2c-0.7-0.1-1.3,0.3-1.4,0.9c0,0.1,0,0.2,0,0.2C49.4,43.5,50.2,43.4,51.2,43.5z M34.9,114.4l-0.3,0.1
			c0.5,1.5,1,3,1.5,4.5c0.1,0.2,0.5,0.3,1.1,0.6L34.9,114.4z M30.6,79.6l0.4,0.3c0.9-1.3,1.4-2.8,1.4-4.3L30.6,79.6z M59.1,41.2
			c-1.3,0.4-1.3,1-1,1.8c0.1,0.2,0.4,0.4,0.6,0.5c0.3-0.1,0.5-0.3,0.5-0.6C59.3,42.3,59.2,41.7,59.1,41.2z M65.3,48.5
			c-0.2-1.4-0.4-2.4-1.7-3.2C63.8,46.5,64.4,47.7,65.3,48.5z M60.6,35.5c-0.1-1-0.8-1.9-1.7-2.3C58.5,34.8,60.1,34.7,60.6,35.5z
			 M20.3,74.4c-0.8,1-1,2.4-0.4,3.6L20.3,74.4z M57,72.4l-2,2.9l0.3,0.2C56.2,74.7,56.8,73.6,57,72.4L57,72.4z M30.2,55.6l0.4,0.2
			l0.9-3.5l-0.3-0.1L30.2,55.6z M56.2,33.1l1-0.5c-0.3-0.7-1.1-1.1-1.8-1c0.1,0.2,0.2,0.4,0.2,0.6C55.9,32.5,56.1,32.8,56.2,33.1
			L56.2,33.1z M63.7,62h-0.3v3.7h0.3V62z M60.8,41.7l1.1-0.1l-0.6-2.2L60.8,41.7z M63.1,47.5c0.2-0.7,0.5-1.5-0.4-2.1L63.1,47.5z
			 M23.3,84.5c0.7,1.1,0.7,1.1,1.5,0.6L23.3,84.5z M43.8,38c-0.8-0.6-0.8-0.6-1.6-0.1L43.8,38z M62.5,41.6l0.5-0.1L62.5,40
			C62.4,40.5,62,41.1,62.5,41.6L62.5,41.6z M36.3,40.3l-0.5,0.8C36.9,41.5,36.4,40.7,36.3,40.3z M18.7,108.8l-0.4,0.2l0.8,1.1
			l0.2-0.2L18.7,108.8z M29.9,57.5l-0.2-0.2c-0.1,0.2-0.2,0.4-0.3,0.6c0,0.2-0.1,0.5-0.1,0.7h0.2L29.9,57.5z M56.3,75.2l0.4,0.2
			l0.5-0.9L57,74.4L56.3,75.2z M22.1,85.2l0.2-0.2l-0.6-0.9l-0.2,0.2L22.1,85.2z"/>
		<path class="st5" d="M34.6,119c-0.6-1.6-1.3-3.1-1.8-4.8c-1.5-5.1-2.9-10.3-4.4-15.4c-0.3-1-0.7-2-1.2-2.9
			c2.4,8.8,3.9,17.8,7.4,26.4c-0.6,0.1-1,0.2-1.4,0.2c-2.5,0.1-4.9,0.2-7.4,0.3c-0.8,0.2-1.7-0.1-2.3-0.7l0.3-0.8
			c-0.1-0.1-0.2-0.2-0.2-0.2c-1-0.4-1.9-1.1-2.3-2.1c-0.7-1.4-1.5-2.7-2.3-4c-0.8-1.2-1.3-2.5-1.6-3.9c-0.1-0.3,0.2-0.8,0.4-1.4
			c1.5,2,2.9,3.7,4.3,5.4c1,1.4,2.6,2.2,4.3,2.3c-0.2-0.4-0.4-0.8-0.6-1.2c-1.1-1.3-2.4-2.6-3.5-3.9s-2.3-2.9-3.4-4.1
			c0-0.2,0-0.4,0-0.7c2.8-5.9,4.1-12.3,6.3-18.4c0.2-0.5,0.4-1,0.5-1.5c0.6-3,2.7-4.8,5.3-6c1.5-0.6,3.1-1,4.7-1.2l0.5-0.9
			c0.2,0.1,0.4,0.3,0.5,0.5c2.6,3.6,5.8,6.7,9.4,9.2c2.4,1.6,5,2.8,7.7,3.7c1,0.3,2.1,0.4,3.2,0.4c0.3,0,0.7-0.1,0.8-0.2
			c0.6-1.6,2.3-1.3,3.4-2c0.2-0.1,0.5,0,0.7-0.1c1.9-0.9,3.1-0.8,2.1-3.6c-0.4-1.2-0.8-2.4-1.3-4c1.2,1,2.1,1.7,2.9,2.4
			c1.2,1.1,2.4,2.3,3.6,3.5c1.3,1.3,2,3,2.2,4.8c0.2,1.7-0.8,3.3-2,4.7c-1.8,2.1-4,3.8-6.6,5c-0.6,0.3-1.1,0.7-1.5,1.2
			c2,0.1,2.4,1.5,2.7,2.9c0.4,1.2,0.6,2.4,0.8,3.7c0.1,1.2,0,2.5-0.3,3.7c0-2.1-0.7-4.1-2-5.8l0.8,2.6c0.5,1.8,0.5,3.7-0.2,5.5
			c-0.2,0.6-0.5,1-1.4,0.6c0.3-3.2-0.3-6.5-1.9-9.3c0.3,1.5,0.7,3,0.9,4.5c0.1,1.4,0.2,2.7,0.2,4.1c0,0.5-0.2,1-1,0.8
			c0.1-3.8-0.6-7.7-2.1-11.2c0.4,3.8,1.8,7.6,0.9,11.5c-0.9-1.8-0.8-3.9-1.2-5.8s-0.8-3.8-1.2-5.8l-0.4,0.1
			c0.5,3.8,1.1,7.6,1.6,11.6l-6.9,0.6c-0.2-3.6-1.4-7-3.3-10.1c1,3.3,2.5,6.5,2.5,10c-0.2,0.1-0.4,0.2-0.6,0.2c-0.3,0-0.7,0-1.2,0
			c-0.8-4.5-2.2-8.9-4.2-13c0.8,4.4,2.9,8.5,3.4,13.2l-3,0.4c-0.9-2.8-1.8-5.5-2.6-8.2l-0.4,0.1c0.8,2.7,1.5,5.3,2.3,8.1
			c-0.7,0.1-1.2,0.1-1.6,0.2c-1.8,0.4-2.9-0.6-3.8-2c-2-3.3-3.7-6.9-4.8-10.6c-0.2-0.9-0.6-1.8-1.2-2.5c-0.6-0.7-0.7-2-0.9-3
			c-0.7-2.6-1.3-5.2-2-7.8c-0.1-0.3-0.3-0.5-0.5-0.6c0.2,1.5,0.4,3,0.7,4.4c1.6,6.6,3.2,13.3,4.8,19.9
			C34.6,118.3,34.6,118.7,34.6,119L34.6,119z M61.2,95.7l-0.4-0.2c-0.1,0.2-0.3,0.4-0.4,0.6c-1.3,3.3-3.8,5.5-6.7,7.3
			c-1.2,0.6-2.5,1.2-3.8,1.6c-0.7,0.3-1.3,0.6-2.2,0.9c2.2,1.2,6.1,0.2,9-2.1C59.4,101.9,61,98.9,61.2,95.7z M34.1,89.4h-0.2
			c0,0.3-0.1,0.6-0.1,0.8c0.2,3.1,0.9,6,2.2,8.8c0.7,1.1,1.5,2.1,2.4,3c0.2,0.2,0.6,0.3,1.1,0.5c-0.3-0.7-0.7-1.4-0.6-1.5
			c0.7-0.6,0.2-0.9-0.1-1.3c-1.5-1.7-2.6-3.8-3.2-5.9C35.1,92.4,34.6,90.9,34.1,89.4z M45.8,118.5c0.7-2.2-1.3-10.2-2.9-12.9
			L45.8,118.5z M56.4,117.6c0.5-1.6-1-8.1-2.2-10.2C55.1,111.1,55.8,114.3,56.4,117.6z"/>
		<path class="st5" d="M55.8,55.3c-0.8,0.9-2.5,0.4-2.2,2.4c0.7-0.2,1.4-0.5,2.1-0.9c0.8-0.5,1-1.6,0.5-2.4c0,0,0-0.1-0.1-0.1
			c-0.2-0.3-0.4-0.6-0.6-0.9c-1.2-1.4-1.2-3.4-0.1-4.8l1.3,0.5l-1.4,1.2l0.1,0.3l1.8-0.5c0.5,0.8,0.4,1.9-0.4,2.6l4.7,0.2
			c0.1,1.6-0.1,3.2-0.6,4.8c-0.4,1.2,0,2.5-0.6,3.8S59.6,63.8,59,65c-0.7,1.6-1.6,3.2-2.5,4.7c-0.8,1.1-2.1,1.6-3.4,1.3
			c-3.2-0.7-6.4-1.5-9.6-2.3s-5.4-3-7.5-5.4c2.1-5.7,1.9-11.6,1.7-17.6c2-0.1,4-0.3,5.9-0.4s3.8-0.1,5.7-0.3c0.7-0.1,1.4-0.4,2-0.6
			c0.2,0.2,0.5,0.4,0.8,0.7c1.2,1.3,2.2,1.6,3.6,0.6c1.7-1.2,3.4-0.7,5.2-0.5c1.2,0.1,0.9,1.1,1,1.8c-2.2,1.3-4.5,0.7-6.7,0.9
			c-1,0.7-1.5,1.8-1.3,3c0,1.1,0,2.1,1,2.9C55.3,54.2,55.6,54.7,55.8,55.3z M45.7,62.6c0.6,0.3,1.2,0.5,1.4,0.8
			c1.8,2.3,4.4,2.3,7,2.2c1,0,1.9-0.4,2.5-1.2c0.3-0.6,0.7-1.1,1.2-1.8c-0.3-1.1-1.4-1.9-2.5-1.8C54,60.9,52.8,61,51.5,61
			C49.4,61.1,47.4,61.6,45.7,62.6z M40.3,50.1c0.8-0.2,1.9-0.1,2.3-0.6c0.7-0.8,1.7-1.3,2.8-1.4c0.1,1.7,0.3,2,1.3,2.2
			c1.2,0.2,1.6-0.2,2.3-1.8c0.4,0.1,0.9,0.3,1.3,0.5c1.4,0.9,1.4,0.9,2.2-0.5c0.2-0.5,0.4-0.9,0.5-1.4l-1.6,1
			c-4-2.6-4.7-2.7-7.9-0.8c-0.7,0.3-1.4,0.3-2.1,0c-0.1,0-0.3,0.1-0.5,0.1l0.5,0.9l-1-0.2L40.3,50.1z M51.5,51.3v-0.4
			c-3-0.3-6.1-0.3-9.2,0c0.5,0.4,1.2,0.7,1.9,0.8c2.1,0,4.3,0,6.4-0.1C50.9,51.5,51.2,51.4,51.5,51.3z M38.9,54.8
			c0.2,0.9,0.7,1.8,1.5,2.3c0.6,0.3,1.1,1,1.2,1.7c0,0.3,0.3,0.6,0.6,1.2c0.2-0.9-0.1-1.9-0.7-2.7C40.7,56.4,39.8,55.7,38.9,54.8z"
			/>
		<path class="st5" d="M37,79.7c0.3-2.9,1.1-5.3,0.7-7.9c-0.1-1.6,0-3.2,0.2-4.8c3,1.7,5.9,3.6,9.5,4c0.2,1.7,0.3,3.5,0.5,5.3
			c2-0.4,2.6,1.2,3.9,2l-1.9,1.2c0.9,0.3,0.9,0.3,3-0.5c2.8,2,5.6,4,8.4,6c1.8,1.4,1.9,3.1,0.1,4.7c-1.8-2.3-4.2-3.6-6.6-5
			c1.4,2.4,4.1,3.4,6,5.7c-1.7,0.7-3.1,1.6-4.6,1.7c-1.1,0.1-2.3-0.7-3.5-1.2c-0.3-2-2.1-1.4-3.2-2c-2.7-1.2-5.1-2.7-7.3-4.6
			C41.6,83.7,41,83,40,82.1c2.3,0.1,4-1.5,6.1-0.7l-1.3-1.3c-1.1,0.4-2.4,0.7-3.5,1.2s-2,0.5-2.9-0.5C37.9,80.4,37.4,80,37,79.7z
			 M40.7,69.3l-0.4,0.1c0.4,1.9,0.7,3.8,1.1,5.7l0.5-0.1C41.5,73.1,41.1,71.2,40.7,69.3z"/>
		<path class="st5" d="M32.4,48l1-0.4c0,1.8,0.1,3.5,0,5.2c-0.2,3.5-0.9,6.9-2.1,10.1c-0.4,0.9-0.9,1.8-1.4,2.7
			c-0.1,0.2-0.2,0.3-0.2,0.4c0.3,1.4-0.8,2.3-1.3,3.4c-0.8,1.6-1.8,3.1-3,4.4c-1.2,1.8-2.4,3.6-3.4,5.5c0-3,2-5.1,3.6-7.4l-1.2,0.8
			l-0.2-0.2c0.4-0.5,0.8-0.9,1.1-1.4c3.4-4.6,5.8-9.8,7.1-15.4c0.4-2.2,0.1-4.5-0.9-6.5c-0.4-1-0.8-1.9-1.2-2.8
			c-0.3-0.5-0.2-1.2,0.2-1.7c0.4-0.4,0.9-0.6,1.4-0.5L31,45.8l0.2,0.2l1.4-1.5l0.2,0.1L32,46.2l0.3,0.2l0.5-1.1l0.3,0.3L32.4,48z"/>
		<path class="st5" d="M20.9,78.6c-0.4-3.2,0.3-6.5,2-9.2c1.1-1.9,2.5-3.7,4-5.3c1.2-1.3,2.2-2.8,2.9-4.5c0.7-1.6,1.3-3.1,1.9-4.8
			c0.1,0.5,0.3,0.8,0.3,1c-0.4,1.4-0.9,2.9-1.4,4.2c-1.2,2.6-2.5,5.2-3.7,7.8c-0.3,0.7-0.9,1.3-1.2,2c-0.7,1.4-2.4,1.9-2.7,3.8
			c-0.2,1.6-1.1,3-1.8,4.5C21,78.3,20.9,78.4,20.9,78.6z"/>
		<path class="st5" d="M22.8,122.9l-7.2,0.5c-0.1-3.2,1.2-6,1.7-9.1c0.4,1,0.8,2,1.3,2.9c0.6,1,1.2,1.9,1.9,2.8
			C21.2,120.9,21.9,121.8,22.8,122.9z"/>
		<path class="st5" d="M31.7,43.8l0.3-1.7c0.2-0.1,0.4-0.1,0.6-0.2c2.6,0,5.3,0,7.9,0c0.4,0,1.1-0.3,0.9,0.6
			c0.4,0.1,0.9,0.1,1.3,0.1c1.9-0.3,3.7-0.7,5.7-1.1l0.3,2.6c-1.9,0.2-3.7-0.7-5.6-0.6s-3.7-0.1-5.5-0.1S33.9,43.7,31.7,43.8z"/>
		<path class="st5" d="M53.5,76.5c1.8,0,3.6,0,5.4,0c1.1,0,1.6,0.7,2.3,1.5s1.1,1.3,0.5,2.3c-0.2,0.5-0.2,1.1-0.2,1.6l-8.1-5
			L53.5,76.5z"/>
		<path class="st5" d="M34.2,40.2c-0.6,0.1-0.6,1.5-1.8,0.8c2.4-5.7,6.8-8.6,12.7-9.6c-1.4,0.7-2.5,2.1-4.3,2c-0.2,0-0.4,0-0.5,0.1
			c-1.6,1.3-3.3,2.6-4.7,4.1C35,38.5,34.5,39.3,34.2,40.2L34.2,40.2z"/>
		<path class="st5" d="M37.2,121.3c1.5,0.2,2.9,0.2,4.4,0.2c4.5-0.2,8.9-0.6,13.4-0.9c2.7-0.2,5.5-0.5,8.2-0.7l0.1,0.3
			c-0.3,0.2-0.5,0.5-0.8,0.5c-2.7,0.2-5.5,0.3-8.2,0.5l-14,0.9l-2.2,0.1C37.6,122.3,37.2,122,37.2,121.3z"/>
		<path class="st5" d="M53.5,45.1c-0.8-0.7-1.2-1.8-0.9-2.9c0.1-0.7,0.5-1.3,1-1.7c0.8-0.3,1.7-0.1,2.3,0.6c0.6,0.6,0.6,1.5,0.1,2.2
			C55.5,44.3,54.6,45,53.5,45.1z"/>
		<path class="st5" d="M43.9,32.9c2.2-1,4.2-2.6,6.8-2.5c0.9,0,1.8,0.1,2.7,0.2c1,0.1,1.6,0.7,1.5,1.7c-0.7-0.4-1.5-0.8-2.2-1.1
			c-0.3-0.1-0.7-0.3-0.7,0.4c-0.2,0.1-0.5,0.1-0.7,0.1c-0.6-1.5-1.7-0.5-2.5-0.4c-0.4,0.1-0.8,0.3-1.2,0.6l0.6,0.7L44,33.4
			L43.9,32.9z"/>
		<path class="st5" d="M64.7,58.8c0.7,1,1,2.1,0.8,3.3c-0.1,3-0.9,5.9-2.6,8.5c0.1-0.4,0.2-0.8,0.3-1.2c1.1-2.6,1.4-5.5,0.8-8.2
			C64,60.3,64.2,59.5,64.7,58.8L64.7,58.8z"/>
		<path class="st5" d="M32.7,79.6c2.4-3.4,2.8-7,3.6-10.7c0.3,2,0.1,4-0.5,5.9C35.2,76.6,34.8,78.5,32.7,79.6z"/>
		<path class="st5" d="M64.4,51.2c0.2,2.5-0.5,5-1.9,7c0.2-2.1,0.3-3.9,0.5-5.7C63,51.6,63.7,51.6,64.4,51.2z"/>
		<path class="st5" d="M35.5,48.4l-0.1-2.1l-0.2-0.1l-0.7,1.4l-0.4-3.1l2.9,0.3l0.2,2.2l-0.7-0.5l-0.3,0.9l-0.3-1.2h-0.2L35.5,48.4z
			"/>
		<path class="st5" d="M60.2,44.4l0.8-2.1h2.4l0.1,1.8L60.2,44.4z"/>
		<path class="st5" d="M37.4,41.1c0.7-0.5,1.1-1,1.4-0.9c1.6,0.3,3.2,0,4.7,0.9H37.4z"/>
		<path class="st5" d="M60,49.7c0.2-0.2,0.6-0.5,0.6-0.4c0.5,0.5,1,1.1,1.5,1.7c0.1,0.1-0.2,0.7-0.4,0.8c-0.4,0.1-0.8,0.1-1.2,0
			C60.2,51,60.1,50.3,60,49.7L60,49.7z"/>
		<path class="st5" d="M51.2,43.5c-1,0-1.8,0-1.9-1c0-0.7,0.6-1.2,1.2-1.2c0.1,0,0.2,0,0.2,0C52,41.8,51,42.6,51.2,43.5z"/>
		<path class="st5" d="M34.9,114.4l2.3,5.2c-0.6-0.3-1-0.4-1.1-0.6c-0.5-1.5-1-3-1.5-4.5L34.9,114.4z"/>
		<path class="st5" d="M30.6,79.6l1.9-4.1c-0.1,1.6-0.6,3.1-1.5,4.3L30.6,79.6z"/>
		<path class="st5" d="M59.1,41.2c0.1,0.5,0.2,1.1,0.2,1.7c-0.1,0.3-0.3,0.5-0.5,0.6c-0.3,0-0.5-0.2-0.6-0.5
			C57.8,42.2,57.8,41.5,59.1,41.2z"/>
		<path class="st5" d="M34.5,72.9l0.6-5.8C35.3,69.1,35.5,71,34.5,72.9L34.5,72.9z"/>
		<path class="st5" d="M65.3,48.5c-1-0.8-1.6-1.9-1.6-3.2C65,46.1,65.2,47.1,65.3,48.5z"/>
		<path class="st5" d="M60.6,35.5c-0.4-0.8-2-0.7-1.7-2.3C59.8,33.6,60.5,34.5,60.6,35.5z"/>
		<path class="st5" d="M34.2,40.3l1.8-1.1c-0.2,0.8-1.3,1-0.6,2.1H34C34.1,40.8,34.1,40.5,34.2,40.3L34.2,40.3z"/>
		<path class="st5" d="M20.3,74.4L19.9,78C19.3,76.8,19.5,75.4,20.3,74.4z"/>
		<path class="st5" d="M57,72.4c-0.3,1.2-0.9,2.3-1.7,3.1L55,75.2L57,72.4z"/>
		<path class="st5" d="M60,49.7l-1,1.5c-1.1-0.7-0.3-1.2-0.1-1.9L60,49.7L60,49.7z"/>
		<path class="st5" d="M30.2,55.6l0.9-3.4l0.3,0.1l-0.9,3.5L30.2,55.6z"/>
		<path class="st5" d="M56.3,33.1c-0.2-0.3-0.4-0.6-0.6-0.9c-0.1-0.2-0.2-0.4-0.2-0.6c0.8-0.1,1.5,0.3,1.8,1L56.3,33.1z"/>
		<path class="st5" d="M34.6,119l1.7,3.2C35.2,121.7,34.8,120.8,34.6,119L34.6,119z"/>
		<path class="st5" d="M63.7,62v3.6h-0.3V62H63.7z"/>
		<path class="st5" d="M60.8,41.7l0.5-2.3l0.6,2.2L60.8,41.7z"/>
		<path class="st5" d="M63.1,47.5l-0.4-2.1C63.5,46.1,63.3,46.9,63.1,47.5z"/>
		<path class="st5" d="M64.8,58.8l1.2-2.2C66,57.6,66.1,58.7,64.8,58.8L64.8,58.8z"/>
		<path class="st5" d="M67.2,58c0.1,0.9,0.3,1.8,0.4,2.6c0,0.2,0,0.3-0.4,0.5V58L67.2,58z"/>
		<path class="st5" d="M23.3,84.5l1.5,0.6C24,85.6,24,85.6,23.3,84.5z"/>
		<path class="st5" d="M43.8,38l-1.6-0.1C43,37.4,43,37.4,43.8,38z"/>
		<path class="st5" d="M62.5,41.6c-0.4-0.5-0.1-1.1,0-1.7l0.5,1.5L62.5,41.6z"/>
		<path class="st5" d="M33.9,75.5l0.7-2.6l0,0C34.7,73.8,34.5,74.8,33.9,75.5L33.9,75.5z"/>
		<path class="st5" d="M36.3,40.3c0.1,0.4,0.7,1.2-0.5,0.8L36.3,40.3z"/>
		<path class="st5" d="M18.7,108.8l0.7,1.2l-0.2,0.2l-0.8-1.1L18.7,108.8z"/>
		<path class="st5" d="M29.9,57.5l-0.5,1.1h-0.2c0-0.2,0-0.5,0.1-0.7s0.2-0.4,0.3-0.6L29.9,57.5z"/>
		<path class="st5" d="M56.3,75.2l0.6-0.8l0.2,0.1l-0.5,0.9L56.3,75.2z"/>
		<path class="st5" d="M33.8,75.4l-0.3,1.5l-0.4-0.1L33.8,75.4L33.8,75.4z"/>
		<path class="st5" d="M22.1,85.2l-0.6-0.8l0.2-0.2l0.6,0.9L22.1,85.2z"/>
		<path d="M61.2,95.7c-0.1,3.2-1.8,6.2-4.4,8.1c-2.9,2.2-6.8,3.2-9,2.1c0.8-0.4,1.5-0.7,2.2-0.9c1.3-0.4,2.6-1,3.8-1.6
			c2.9-1.8,5.4-4,6.7-7.3c0.1-0.2,0.2-0.4,0.4-0.6L61.2,95.7z"/>
		<path d="M34.1,89.4c0.5,1.5,1,3,1.5,4.5c0.7,2.2,1.8,4.2,3.2,5.9c0.4,0.4,0.8,0.8,0.1,1.3c-0.1,0.1,0.3,0.8,0.6,1.5
			c-0.5-0.2-0.9-0.3-1.1-0.5c-0.9-0.9-1.7-1.9-2.4-3c-1.3-2.8-2-5.8-2.2-8.8c0-0.3,0-0.6,0.1-0.8L34.1,89.4z"/>
		<path d="M45.8,118.5l-2.9-12.9C44.5,108.3,46.4,116.4,45.8,118.5z"/>
		<path d="M56.5,117.6c-0.7-3.3-1.4-6.6-2.2-10.2C55.5,109.5,57,116.1,56.5,117.6z"/>
		<path d="M45.7,62.6c1.8-1,3.7-1.6,5.7-1.7c1.3,0,2.6-0.1,3.8-0.2c1.2-0.1,2.2,0.7,2.5,1.8c-0.5,0.7-0.8,1.3-1.2,1.8
			C56,65.1,55,65.6,54,65.5c-2.6,0.1-5.2,0.1-7-2.2C46.8,63.1,46.3,63,45.7,62.6z M55.8,63.2h-7.9C50,65,53,65.1,55.8,63.2z"/>
		<path d="M40.3,50.1l0.2-2l1,0.2L41,47.4c0.2,0,0.3-0.2,0.5-0.1c0.7,0.3,1.4,0.3,2.1,0c3.1-1.8,3.9-1.7,7.9,0.8l1.6-1
			c-0.1,0.5-0.3,1-0.5,1.4c-0.7,1.4-0.8,1.3-2.2,0.5c-0.4-0.2-0.8-0.4-1.3-0.5c-0.7,1.6-1.1,2-2.3,1.8c-1-0.1-1.2-0.5-1.3-2.2
			c-1.1,0.2-2,0.7-2.8,1.4C42.2,50,41.1,49.9,40.3,50.1z M48,48.2l-1.8-0.4v1.6C47.2,49.6,47.8,49.4,48,48.2z"/>
		<path d="M51.5,51.3c-0.3,0.1-0.6,0.2-0.9,0.3c-2.1,0.1-4.3,0.1-6.4,0.1c-0.7-0.1-1.3-0.3-1.9-0.8c3-0.3,6.1-0.3,9.2,0L51.5,51.3z"
			/>
		<path d="M38.9,54.8c0.9,0.9,1.8,1.6,2.6,2.5c0.6,0.8,0.9,1.8,0.7,2.7c-0.3-0.6-0.6-0.9-0.6-1.2c-0.1-0.7-0.5-1.3-1.2-1.7
			C39.6,56.6,39,55.8,38.9,54.8z"/>
		<path d="M40.7,69.3c0.4,1.9,0.8,3.8,1.2,5.6L41.4,75c-0.4-1.9-0.7-3.8-1.1-5.7H40.7z"/>
		<path class="st5" d="M55.8,63.2c-2.8,1.9-5.8,1.8-7.9,0H55.8z"/>
		<path class="st5" d="M48,48.2c-0.2,1.2-0.8,1.4-1.8,1.3v-1.6L48,48.2z"/>
	</g>
</g>
</svg>
