<?xml version="1.0" encoding="utf-8"?>
<!-- Generator: Adobe Illustrator 23.0.6, SVG Export Plug-In . SVG Version: 6.00 Build 0)  -->
<svg version="1.1" id="Layer_1" xmlns="http://www.w3.org/2000/svg" xmlns:xlink="http://www.w3.org/1999/xlink" x="0px" y="0px"
	 viewBox="0 0 100 120" style="enable-background:new 0 0 100 120;" xml:space="preserve">
<style type="text/css">
	.st0{fill:#FF7BAC;}
	.st1{font-family:'Badonk-a-donk';}
	.st2{font-size:10px;}
	.st3{letter-spacing:-1;}
	.st4{clip-path:url(#SVGID_2_);}
	.st5{fill:#FFFFFF;}
</style>
<title>AvalonCards</title>
<rect class="st0" width="100" height="120"/>
<text transform="matrix(1 0 0 1 17.72 15.36)" class="st1 st2">Obe</text>
<text transform="matrix(1 0 0 1 49.68 15.36)" class="st1 st2 st3">r</text>
<text transform="matrix(1 0 0 1 58.44 15.36)" class="st1 st2">on</text>
<g>
	<defs>
		<rect id="SVGID_1_" x="8.4" y="27.9" width="86.6" height="92.1"/>
	</defs>
	<clipPath id="SVGID_2_">
		<use xlink:href="#SVGID_1_"  style="overflow:visible;"/>
	</clipPath>
	<g class="st4">
		<path class="st5" d="M81.2,119.7c-0.2,0-0.3-0.2-0.4-0.2c-0.3-1.1-0.6-2-0.8-3c-0.3-1.3-0.6-2.6,1-3.3c-0.3-1.7-1.8-2.9-3.5-3
			c-3.7-0.5-7.4-0.9-11.1-1.2c-1.3-0.1-2.7-0.2-4-0.1c-0.6,0.1-1.1,0.3-1.5,0.8c0.3,1.2-1,1.4-1.3,1.9c3,0.1,5.9,0,8.8,0.2
			c2.7,0.1,5.2,1.4,7,3.4c0.7,0.7,1.5,1.4,2.3,2.1l-0.2,2.4c-0.3,0.1-0.7,0.1-1,0.1c-6.6,0.2-13.3,0.3-19.9,0.4
			c-5.6,0.1-11.1,0.3-16.7,0.5c-3.5,0.1-6.9,0.3-10.4,0.3c-1.7,0-2.4-0.6-2.3-2.3c0.1-1.7,0.3-3.4,0.7-5c0.3-1,0.8-2,1.5-2.7
			c2.2-2,5-3.3,8-3.6c0.6,0,1.1,0.1,1.6,0.3c1.5,0.7,2.9,1.5,4.4,2.4c1.2-2.6,1-5.1,1.2-7.5c1.3-1,2.6-1.6,3.5-3
			c0.6-1.2,1.8-2.1,3.2-2.2c-0.3,2.3-0.7,4.4-0.7,6.5s-0.8,4.3-0.3,6.7l2.6-0.8c0.2-2,0.4-3.8,0.5-5.6c0-1,0.6-1.4,1.3-1.9
			c1-0.8,2-0.2,3-0.7c3.2-1.6,6.5-2.7,10-3.3c1.5-0.2,3-0.4,4.5-0.4c0.3,0,0.6,0.2,0.9,0.4c0.7,0.4,1.3,0.8,1.9,1.3
			c0.5,0.6,1,1.2,1.5,1.8l-0.3,0.4c-1.5-0.4-2.9-0.9-4.3-1.5c-1-0.6-2.1-0.7-3.2-0.4c-1.2,0.3-2.3,0.7-3.4,1.1
			c-2.4,1.2-4.7,2.5-7.1,3.8c-0.6,0.3-1.4,0.7-1,2c0.9-0.4,1.7-0.8,2.5-1.1c2.9-1.2,5.8-2.5,8.8-3.6c2-0.7,5.2,0.2,7.2,2
			c-0.8,0-1.3,0-1.8,0c-0.6-0.1-1.3-0.2-1.9-0.2c-4.6,0.4-9,1.6-13.1,3.7c-1,0.6-1.9,1.2-2.8,1.9c-0.3,0.2-0.4,0.7-0.8,1.5
			c3.9-2.6,9.7-4.6,12.3-4.4c-0.2,0.1-0.4,0.3-0.6,0.4c-0.1,0.1-0.2,0.3-0.6,0.7c0.8-0.2,1.3-0.4,1.8-0.5c2.3-0.5,4.5-1.8,7-1
			c0.4,0,0.8-0.1,1.2-0.3c1.4-0.6,1.5-0.5,2.3,0.8c0.6,1.1,1.3,2.1,2.2,3.1c0.8,0.6,1.7,1,2.6,1.2c0.3,0.1,1-0.3,1-0.5
			c0-0.5-0.2-0.9-0.5-1.2c-1-0.5-1.9-1.3-2.5-2.3c-0.5-0.8-1-1.5-1.6-2.2c-1.1-1.3-1.8-2.9-1.9-4.6c0-0.8-0.5-1.5-1.3-1.8
			c-1.4-0.6-2.6-1.6-3.3-3h7.3c-0.1-1.2-0.1-1.3-1.2-1.7c-1.3-0.5-2.7-0.9-4-1.3c-0.9-0.2-1.3-0.7-1.2-1.7h10.8
			c-1.9-2.3-4.8-2.3-7.1-3.5c-3.8-2-7.8-0.8-12.2-0.6c0.6-0.8,1-1.3,1.5-1.9c3-3.5,5-7.8,5.7-12.3c0.5-2.7,1.9-5.1,3.8-7l0.4-1.4
			l-12.4,4.1l0.5-4.4h8.9c-0.6-0.4-1.4-0.5-2.1-0.6c-1.8,0-3.5,0-5.3,0c-0.6,0-1.6,0.4-1.7-0.7s0.9-0.8,1.5-0.9H67h8
			c-1.8-1-4.1-0.8-6.3-0.8c-0.1-1.4-1.2-1.2-2.2-1.2c-0.7,0-1.5,0.7-2.5-0.3l7-1.2v-0.5c-2.1-1-4.3,0-6.6,0c0.2-0.7,0.3-1.3,0.5-2
			c1.9,0,3.6,0,5.4,0c2.3,0.1,4.7,0.2,7,0.5c1.2,0.3,2.4,0.7,3.6,1.2c-1.2-1.2-1.8-1.8-3.3-1.9c-3-0.2-6-0.3-9.1-0.3
			c-1.2,0.1-2.5,0.2-3.7,0.1l0.6-0.7h-0.1c5.6-0.8,11.2-1.3,16.9-0.1c-2.4-1.5-5.2-1-7.7-1.4c-0.1-1.7-0.6-2.3-2.3-2.3
			s-3.6,0.3-5.4,0.5c0.3-0.3,0.7-0.5,1.1-0.6c1.9-0.4,3.9-0.7,5.8-0.9c2.2-0.2,4.4-0.3,6.6-0.5c-4.9-0.6-9.8-0.1-14.5,1.5
			c-0.1,0-0.1,0.3-0.2,0.5L64,50.6c6.1-2.3,12.6-3.6,19.1-3.9c-4.4-0.2-8.9,0.2-13.3,1.1c2-1.1,4.4-0.8,6.4-2
			c-1.4-1.4-2.9-0.2-4.4-0.6l3.9-1.6l-0.2-0.4c-6,1.4-11.8,3.6-17.3,6.4l3.9-1.2c-6.4,4.7-8.4,6.6-9.3,9.3c1.3-1.3,2.4-2.5,3.7-3.5
			C58,53,59.6,52,61.2,51c0.4-0.1,0.9-0.1,1.3,0.2c0.3,0.4,0.2,0.9-0.2,1.2c-0.1,0.1-0.2,0.1-0.3,0.1c-0.5,0.2-0.9,0.4-1.4,0.5
			c-1.9,0.7-3.6,1.7-5,3.1c-0.6,0.6-1.2,1.2-1,2.1c2.2-2.5,5.3-4.1,8.5-4.6c0,1.2,0,2,0,3c0.1,0.7-0.4,1.4-1.1,1.6
			c-1.6,0.7-3.2,1.5-4.8,2.3c-0.7-0.2-1.1-1.5-2.4-0.9c1,1.7,3.1,2.9,1.6,5.4l1.4-0.5c0.2,0.9,0.3,1.9,0.3,2.8
			c-0.2,1.4-0.4,2.7-0.7,4.1c-2.5,2-1.7,4.7-1.9,7.5c1.4-0.4,2.3-1.8,2-3.2c-0.2-1.4,0.6-2.8,2-3.4c3.8-2,7.8-3.6,12-4.7
			c0.8-0.2,1.6-0.4,2.4-0.6c-0.5,1.1-1.1,2.2-1.9,3.2c-0.9,1.3-1.8,2.7-2.7,4.1c-0.6,0.8-0.7,2-0.1,2.9l1.4-0.9
			c-1.4,4.8-8.1,12.4-11.9,13.7l-1.6-1.8c-0.9,2.7-1.6,5.2-4.1,6.6c-0.5-1.5,0.5-2.4,0.9-3.6c-0.8,0.3-1.6,0.9-2.1,1.6
			c-2.3,2.8-5,5.4-7.9,7.6c-1.1,1-2.6,1.5-4.1,1.3c-1.1-0.1-2.2-0.4-3.1-0.6l-3-8.6c0-0.1-0.1-0.3-0.2-0.4c-1.5-1.2-1.4-3-1.7-4.6
			l1.4,2.7c0.2-0.7,0.3-1.2,0.4-1.7c0.4-0.6,0.7-1.2,1.2-2c0.4,1.6,0.8,3,1.3,5c0.5-1.4,0.8-2.3,1.1-3.3h0.3l0.6,3.4
			c1.3-1.4,0.6-3.2,1.8-4.4l1.5,3.2c0.6-1.4,1-2.4,1.6-3.6c0.3,1.2,0.6,2,0.9,2.9h0.4c0.4-1,0.8-2.1,1.2-3.4c0.5,1.5,1,2.8,1.6,4.5
			l1.3-3.9l0.4,2.7h0.4l1-1.7l1,2.3c0.8-1.8,2.1-3,1.6-5c-0.1-0.4,0.3-1,0.6-1.5c0.9-1.1,1.1-2.6,0.6-3.9l-2.7,3.6l-1.2-0.9L49.8,86
			l-1.2-1l-1.1,3.1c-0.9-0.8-0.5-2.4-2-3c-0.3,0.9-0.6,1.7-1,2.7l-1.3-2.6c-0.6,1.4-1.1,2.5-1.7,3.9l-0.7-1.9
			c-0.2-0.5-0.3-1.1-0.5-1.6H40c-0.5,1.1-0.9,2.2-1.4,3.4l-0.9-3l-1.5,3c-0.4-1.6-0.7-2.8-1-4.2c-0.9,1-1.4,2.3-1.4,3.7
			c-1.2-0.3-0.6-1.5-1.1-2.5L32,87.6c-0.9-1.1-0.5-2.4-0.2-3.6c0.5-1.9-0.3-3.9-2-4.8c-0.5-0.3-0.8-1.1-1.1-1.6h-0.1
			c0.4,0.1,0.9,0.3,1.2,0.2c1.6-0.6,3.6,0.3,4.9-1.3c0.1-0.1,0.4,0.1,0.6,0.1c1.4,0,1.6-0.2,1.3-1.6c-0.1-0.5-0.4-1-0.7-1.5
			c-1.3-2.3-3.2-4.2-5.4-5.5c-0.7-0.4-1.2-1-1.5-1.7c-0.8-2.2-0.5-4.6,0.7-6.6c2.8-4.6,6.1-8.8,9.9-12.6c0.3-0.3,0.8-0.8,1-0.7
			c1.4,0.5,2-1,3.1-1.2c-0.4,0.5-0.8,1.1-1.2,1.6c-0.9,1-1.9,2-2.8,3c-0.1,0.1,0,0.5,0,0.7c0.6,0.7,0.8-0.1,1.1-0.3
			c2.1-1.8,4.2-3.6,6.2-5.4c0.7-0.6,1.4-1.1,2.3-0.5c-2.8,2.3-5.7,4.5-8.3,6.8c-3.9,3.6-5.9,6.7-6.1,8.5c0.2-0.2,0.3-0.4,0.5-0.5
			C39.9,53.3,45.6,48.5,52,45c0.6-0.2,1.2-0.4,1.8-0.5L54,45c-1.7,1-3.4,2.2-5,3.4l1.2,0.5l-0.7,1.4c-2.3,2.3-4.9,4.5-6.6,7.3
			c1.1-0.7,2.2-1.6,3.2-2.5c3.7-3.4,7.9-6.2,12.4-8.3c1.2-0.5,2.5-0.9,3.8-1.4l0.2,0.4l-3.1,1.9l16.1-5.8c-4.1,0.7-8.1,1.9-11.9,3.5
			c-0.8-1.3-1.9-1.4-3.2-1c-1,0.2-1,0.2-2-0.6c4.4-2.7,9.3-3.9,13.8-6.2c-1.1,0-2.1,0.2-3.1,0.6c-4,1.3-7.9,3-11.7,5
			c-1.1,0.6-2.4,0.8-3.6,0.5C58.1,40.5,63,39,67.7,37c-0.7-0.1-1.3-0.1-2,0c-3.6,0.9-7.1,2.3-10.3,4.4c-1.2,0.7-2.4,1.5-3.6,2.3
			c-0.9,0.7-2.1,0.6-2.9-0.2l4.5-3.4l-0.9-0.6l6.8-3.2l-0.1-0.4L57,36.2l0.8-1c-0.8,0-1.6,0.3-2.3,0.7c-4.7,2.4-9.3,5.1-13.5,8.3
			c-0.8,0.6-1.7,1.1-2.6,1.5c2.5-3.7,6.2-6,9-9.3c-1.4,0.6-2.6,1.3-3.8,2.2c-4.4,3.4-8.1,7.7-10.7,12.7c-0.4,0.7-1,1.4-1.5,2
			c0.2-0.8,0.6-1.6,0.9-2.3c2.9-5.1,6.3-9.8,10.2-14.2c0.5-0.6,1-1.2,1.5-1.9c-0.7,0.3-1.4,0.7-1.9,1.3c-4.3,4.6-7.9,9.7-10.8,15.3
			c-0.3,0.6-0.5,1.2-0.6,1.8c-1,2.3-2.1,4.6-2.9,7c-0.4,1.3-0.7,2.7-0.9,4.1c-0.5,2.5-1,5.1-1.5,7.7c-4-1.9-7.2-4.3-8.7-8.5
			c0,0.9,0,1.8,0.3,2.6c0.1,0.6,0.4,1.2,0.5,1.8c0.2,1.6,0.4,3.2,0.6,4.8c0.2,0.6,0.2,1.2,0.2,1.8c-0.2,1.2,0,2.4,0.6,3.5
			C21.6,82,25,85,29,86.3c0,0.2,0.1,0.4,0.1,0.7c-0.1,1.7,0,3.3,1.6,4.3c0.2,0.1,0.3,0.3,0.4,0.5c0.8,2.2,2.2,4.3,2.4,6.7
			c0.1,1-0.2,2.2,0.8,3c0.1,0.1,0.1,0.6,0,0.8c-1.4,1.9-2.1,4.3-4.1,5.8c-3.7,2.9-5.6,6.6-4.7,11.4c0.1,0.6,0.2,1.2,0.3,1.8
			c-1,0.6-2.3-0.2-3.2,1c3.3,0.3,6.3,0.7,9.4,0.9c1.5,0.1,3.1,0.1,4.6,0c5.9-0.2,11.8-0.4,17.8-0.5c5.7-0.1,11.4-0.2,17.1-0.1
			c3.7,0,7.3,0.4,11,0.5c0.8,0,1.9,0.2,2.4-0.2"/>
		<path class="st5" d="M54.2,76.4c-0.6-1.6-2.4-1.5-2.3-2.9l2.2-0.6l-2-1.1l1.2-1c-0.2-0.3-0.3-0.4-0.4-0.6s-0.2-0.4-0.3-0.6
			c1.5-0.6,3-0.9,3.8-2.3c-0.2-0.2-0.4-0.5-0.5-0.5c-1.6,0.4-3.2,0.8-5,1.3c0.5-0.3,0.9-0.6,1.3-1c0.2-0.4,0.4-1.1,0.2-1.3
			c-0.4-0.4-1-0.7-1.6-0.7c-0.3,0-0.8,0.4-1,0.7c-1.6,1.6-3.3,3.1-4.8,4.7c-1.2,1-1.7,2.6-1.2,4.1c1,1.1,2.2,0.9,3.4,1
			c1.6,0.1,3.2,0.2,4.8,0.4C52.6,76,53.4,76.2,54.2,76.4z"/>
		<path class="st5" d="M68.1,73.5c-0.2-0.9-1-1.4-1.8-1.3c-2.8,0-6.8,2.8-7.7,5.4c-0.5,1.1-0.2,2.5,0.8,3.3
			C59.1,77.6,64.1,73.6,68.1,73.5z"/>
		<path class="st5" d="M39.1,118.7c0.1-1.4-0.1-2.3-1.4-3c-1.7-1.1-3.3-2.3-4.8-3.6l-0.8,0.6c1.5,2.2,3.4,4.2,5.6,5.8
			C38.1,118.6,38.6,118.6,39.1,118.7z"/>
		<path class="st5" d="M64.3,115.7c-0.3-0.6-0.5-1.2-0.9-2c-1.4,1.6-3.4,2.3-4.6,4C60.9,118.8,60.9,118.8,64.3,115.7z"/>
		<path class="st5" d="M36.6,94.2c1.8,1.2,4.1,1.3,6.1,0.4L36.6,94.2z"/>
		<path class="st5" d="M37.7,52l0.3,0.3l0.8-1.1L38.5,51L37.7,52z"/>
		<path d="M32.3,52.9h-0.7c0.2-0.6,0.4-1.2,0.6-1.8c2.9-5.6,6.5-10.7,10.8-15.3c0.5-0.6,1.2-1,1.9-1.3c-0.5,0.6-1,1.2-1.5,1.9
			c-3.9,4.4-7.3,9.1-10.2,14.2C32.9,51.3,32.6,52.1,32.3,52.9z"/>
		<path d="M39.1,118.7c-0.5,0-1-0.1-1.5-0.3c-2.2-1.6-4.1-3.5-5.6-5.8l0.8-0.6c1.5,1.3,3.1,2.5,4.8,3.6
			C39,116.3,39.2,117.2,39.1,118.7z"/>
		<path d="M64.3,115.7c-3.4,3.1-3.4,3.1-5.5,2.1c1.2-1.7,3.2-2.4,4.6-4C63.8,114.5,64.1,115.1,64.3,115.7z"/>
		<path d="M66.7,51h-1.2c0.1-0.2,0.1-0.5,0.2-0.5c4.6-1.6,9.6-2.1,14.5-1.5c-2.2,0.2-4.4,0.2-6.6,0.5c-1.9,0.2-3.9,0.6-5.8,0.9
			C67.3,50.5,67,50.7,66.7,51z"/>
		<path d="M43.7,45l1.3-0.1c-2,2.1-3.4,4-5.3,5.5c0-0.2-0.2-0.6,0-0.7c0.9-1,1.9-2,2.8-3C42.9,46.1,43.3,45.6,43.7,45z"/>
		<g>
			<g>
				<g>
					<path class="st5" d="M25.8,121.2c0,0,1.2-11.8,9.4-16.5l-3.5-16.5l-3.5-10.6V64.8l2.4-8.6L40,44.8l2.4-1.2l4.7,1.2h15.3
						l1.2,9.4l-0.2,13.5L67,69l7.2-4l-3.6,11.5L59.9,91.8l11.3,6c0,0,6.4,1,6.4,6.9l-15.9,1.7c0,0,13.6-0.5,17.1,7.8v7L25.8,121.2z"
						/>
					<path d="M84.5,122.6c-0.5,0.4-1.6,0.3-2.4,0.2c-3.7-0.2-7.3-0.5-11-0.5c-5.7-0.1-11.4,0-17.1,0.1c-5.9,0.1-11.8,0.3-17.8,0.5
						c-1.5,0.1-3.1,0.1-4.6,0c-3.1-0.2-6.1-0.6-9.4-0.9c0.9-1.2,2.3-0.4,3.2-1c-0.1-0.6-0.1-1.2-0.3-1.8c-0.9-4.8,1-8.5,4.7-11.4
						c2-1.5,2.7-3.9,4.1-5.8c0.1-0.2,0.2-0.7,0-0.8c-1-0.8-0.7-2-0.8-3c-0.3-2.4-1.6-4.5-2.4-6.7c-0.1-0.2-0.2-0.4-0.4-0.5
						c-1.6-1.1-1.7-2.7-1.6-4.3c0-0.2,0-0.4-0.1-0.7c-4.1-1.3-7.4-4.3-9.1-8.2c-0.6-1-0.8-2.3-0.6-3.5c0.1-0.6,0-1.2-0.2-1.8
						c-0.2-1.6-0.4-3.2-0.6-4.8c-0.1-0.6-0.3-1.2-0.5-1.8c-0.2-0.9-0.3-1.7-0.3-2.6c1.5,4.3,4.8,6.6,8.7,8.5c0.5-2.7,1-5.2,1.5-7.7
						c0.2-1.4,0.5-2.8,0.9-4.1c0.9-2.4,2-4.6,2.9-7H32c0.6-0.6,1.1-1.3,1.5-2c2.6-4.9,6.3-9.2,10.8-12.6c1.2-0.9,2.4-1.6,3.8-2.2
						c-2.8,3.2-6.5,5.6-9,9.3c0.9-0.4,1.8-1,2.6-1.5c4.2-3.2,8.8-5.9,13.5-8.3c0.7-0.4,1.5-0.6,2.3-0.7l-0.8,1l2.2-0.3l0.1,0.4
						l-6.8,3.2l0.9,0.6l-4.4,3.4c0.7,0.8,2,0.9,2.9,0.2c1.2-0.8,2.4-1.5,3.6-2.3c3.2-2,6.6-3.5,10.3-4.4c0.7-0.1,1.3-0.1,2,0
						c-4.7,2-9.6,3.5-13.9,6.7c1.2,0.3,2.5,0.2,3.6-0.5c3.7-2,7.6-3.7,11.7-5c1-0.3,2-0.5,3.1-0.6c-4.5,2.3-9.4,3.5-13.8,6.2
						c1,0.8,1,0.8,2,0.6c1.3-0.3,2.4-0.3,3.2,1c3.8-1.6,7.8-2.8,11.9-3.5l-16.1,5.9l3.1-1.9l-0.2-0.4c-1.3,0.5-2.6,0.9-3.8,1.4
						c-4.5,2.1-8.7,4.9-12.4,8.3c-1,0.9-2.1,1.7-3.2,2.5c1.7-2.9,4.2-5,6.6-7.3l1.9-1.3L50,48.8l-1-0.5c1.6-1.3,3.2-2.4,4.9-3.4
						l-0.2-0.5c-0.6,0.1-1.2,0.3-1.8,0.5c-6.4,3.5-12.1,8.3-16.6,14.1c-0.1,0.2-0.3,0.3-0.5,0.5c0.1-1.8,2.2-4.9,6.1-8.5
						c2.6-2.4,5.5-4.5,8.3-6.8c-0.9-0.6-1.6-0.1-2.3,0.5c-2.1,1.8-4.1,3.6-6.2,5.4c-0.3,0.2-0.5,1-1.1,0.3c2-1.5,3.4-3.4,5.3-5.5
						L43.7,45c-1.1,0.3-1.7,1.8-3.1,1.2c-0.2-0.1-0.7,0.4-1,0.7c-3.7,3.8-7,8.1-9.8,12.7c-1.3,2-1.5,4.4-0.7,6.6
						c0.3,0.7,0.8,1.3,1.5,1.7c2.3,1.3,4.2,3.2,5.5,5.5c0.3,0.5,0.5,1,0.7,1.5c0.3,1.3,0.1,1.6-1.3,1.6c-0.2,0-0.5-0.2-0.6-0.1
						c-1.3,1.7-3.3,0.7-4.9,1.3c-0.3,0.1-0.8-0.1-1.2-0.2l2.4-3.9c0.1,0.1,0,0-0.1-0.1c-1.1-0.7-2.2-1.2-1.7-2.9
						c0.2-0.7-0.5-1.2-1.3-1.7c0,2.4-0.1,4.6,0,6.8c0.2,0.6,0.4,1.2,0.8,1.8c0.4,0.6,0.6,1.3,1.1,1.6c1.7,1,2.5,3,2,4.8
						c-0.2,1.2-0.7,2.5,0.2,3.6v-0.1c0.3,1.6,0.2,3.4,1.7,4.6c0.1,0.1,0.2,0.2,0.2,0.4L37,101c0.9,0.2,2,0.4,3.1,0.6
						c1.5,0.1,2.9-0.4,4-1.3c2.9-2.3,5.5-4.8,7.9-7.6c0.5-0.7,1.2-1.3,2-1.6c-0.4,1.2-1.5,2.2-0.9,3.6c2.5-1.4,3.2-3.9,4.1-6.6
						l1.6,1.8c3.8-1.3,10.4-8.9,11.9-13.7l-1.4,0.9c-0.6-0.9-0.5-2,0.1-2.9c0.8-1.4,1.8-2.7,2.7-4.1c0.8-1,1.4-2.1,1.9-3.2
						c-0.8,0.2-1.6,0.4-2.4,0.6c-4.2,1.1-8.2,2.7-12,4.7c-1.4,0.5-2.2,1.9-2,3.4c0.3,1.4-0.6,2.8-2,3.2c0.3-2.7-0.6-5.5,1.9-7.5
						c0.3-1.3,0.6-2.7,0.7-4.1c0-1-0.1-1.9-0.3-2.8L56.4,65c1.5-2.5-0.5-3.7-1.6-5.4c1.3-0.6,1.8,0.8,2.4,0.9
						c1.7-0.8,3.2-1.6,4.8-2.3c0.7-0.2,1.1-0.9,1.1-1.6c0-0.9,0-1.8,0-3c-3.3,0.5-6.3,2.1-8.5,4.6c-0.2-1,0.5-1.6,1-2.1
						c1.4-1.4,3.1-2.5,5-3.1c0.5-0.2,0.9-0.4,1.4-0.5s0.8-0.6,0.6-1.1c0-0.1-0.1-0.2-0.1-0.3c-0.4-0.3-0.8-0.4-1.3-0.2
						c-1.6,1-3.2,2-4.7,3.2c-1.3,1-2.4,2.3-3.7,3.5c0.9-2.7,2.9-4.7,9.3-9.3l-3.9,1.2c5.5-2.8,11.3-4.9,17.3-6.3l0.2,0.4l-3.9,1.6
						c1.6,0.4,3.1-0.8,4.4,0.6c-2.1,1.2-4.5,0.8-6.4,2c4.4-0.9,8.8-1.3,13.3-1.1c-6.5,0.3-13,1.6-19.1,3.9l1.4,0.5h1.2
						c1.8-0.2,3.6-0.5,5.4-0.5s2.2,0.6,2.3,2.3c2.6,0.3,5.4-0.1,7.7,1.4c-5.7-1.1-11.3-0.6-16.9,0.1c2.2-1.1,4.6-1,7-1.3
						c0.4-0.1,0.8-0.2,1.2-0.4L73.2,52c-3-0.4-5.8,0.3-8.9,1.2l1,1L64.8,55c1.2,0.1,2.5,0,3.7-0.1c3,0,6,0.1,9.1,0.3
						c1.5,0.1,2.2,0.7,3.3,1.9c-1.2-0.5-2.4-0.9-3.6-1.2c-2.3-0.3-4.6-0.4-7-0.5c-1.8-0.1-3.5,0-5.4,0c-0.2,0.7-0.3,1.3-0.5,2
						c2.3,0.1,4.5-1,6.6,0v0.5L64,59c1,1,1.8,0.4,2.5,0.3c1,0,2-0.2,2.2,1.2c2.3,0,4.5-0.2,6.3,0.8h-8h-0.4
						c-0.7,0.1-1.6-0.2-1.5,0.9s1.1,0.7,1.7,0.7c1.8,0,3.5,0,5.3,0c0.7,0,1.5,0.2,2.1,0.6h-8.8L64.8,68l12.4-4l0.1,1.5
						c-2,1.9-3.3,4.3-3.8,7c-0.7,4.6-2.6,8.8-5.7,12.3c-0.5,0.6-0.9,1.2-1.5,1.9c4.3-0.3,8.4-1.4,12.2,0.6c2.3,1.2,5.2,1.1,7.1,3.5
						H74.7c-0.1,1,0.3,1.4,1.2,1.7c1.3,0.4,2.7,0.8,4,1.3c1,0.4,1.1,0.6,1.2,1.7h-7.3c0.7,1.4,1.9,2.4,3.3,3c0.8,0.2,1.3,1,1.3,1.8
						c0.1,1.7,0.8,3.3,1.9,4.6c0.6,0.7,1.1,1.4,1.6,2.2c0.6,1,1.5,1.7,2.5,2.2c0.3,0.3,0.5,0.7,0.5,1.2c0,0.2-0.7,0.6-1,0.5
						c-0.9-0.2-1.8-0.6-2.6-1.2c-0.9-0.9-1.6-2-2.2-3.1c-0.8-1.3-0.9-1.4-2.3-0.8c-0.4,0.2-0.8,0.3-1.2,0.3c-2.5-0.7-4.7,0.6-7,1
						c-0.5,0.1-1,0.3-1.8,0.5c0.3-0.4,0.4-0.6,0.6-0.7c0.2-0.2,0.4-0.3,0.6-0.4c-2.7-0.2-8.5,1.8-12.3,4.4c0.4-0.7,0.5-1.2,0.8-1.5
						c0.9-0.7,1.8-1.4,2.8-1.9c4.1-2.1,8.6-3.3,13.1-3.7c0.6,0,1.3,0.1,1.9,0.2c0.5,0,1,0,1.8,0c-2-1.8-5.2-2.7-7.2-2
						c-3,1.1-5.9,2.4-8.8,3.6c-0.8,0.3-1.6,0.7-2.5,1.1c-0.5-1.2,0.4-1.6,1-2c2.3-1.3,4.7-2.6,7.1-3.8c1.1-0.5,2.2-0.9,3.4-1.2
						c1.1-0.4,2.3-0.2,3.2,0.4c1.4,0.6,2.8,1.2,4.3,1.5l0.3-0.4c-0.4-0.6-0.9-1.2-1.5-1.8c-0.6-0.5-1.2-0.9-1.9-1.3
						c-0.3-0.2-0.6-0.4-0.9-0.4c-1.5,0-3,0.1-4.5,0.4c-3.5,0.6-6.8,1.8-10,3.3c-0.9,0.5-2,0-3,0.7c-0.7,0.6-1.3,1-1.3,1.9
						c-0.1,1.8-0.3,3.6-0.5,5.6l-2.6,0.8c-0.5-2.4,0.2-4.5,0.3-6.7s0.5-4.2,0.7-6.5c-1.4,0.2-2.6,1-3.2,2.2c-0.9,1.4-2.2,2.1-3.5,3
						c-0.2,2.4,0,4.9-1.2,7.5c-1.5-0.8-3-1.7-4.4-2.4c-0.5-0.3-1.1-0.4-1.6-0.3c-3,0.3-5.8,1.6-8,3.6c-0.8,0.7-1.3,1.7-1.5,2.7
						c-0.4,1.6-0.6,3.3-0.7,5c-0.1,1.6,0.6,2.3,2.3,2.3c3.5-0.1,6.9-0.2,10.4-0.3c5.6-0.2,11.1-0.4,16.7-0.5
						c6.6-0.2,13.3-0.3,19.9-0.4c0.3,0,0.7-0.1,1-0.1l0.2-2.4c-0.8-0.6-1.6-1.3-2.3-2.1c-1.8-2.1-4.3-3.3-7-3.4
						c-2.9-0.2-5.8-0.2-8.8-0.2c0.3-0.6,1.6-0.7,1.3-1.9c0.4-0.4,0.9-0.7,1.5-0.8c1.3-0.1,2.7,0,4,0.1c3.7,0.4,7.4,0.8,11.1,1.2
						c1.7,0.1,3.2,1.3,3.5,3c-1.6,0.7-1.4,2-1,3.3c0.2,0.9,0.5,1.9,0.8,3c0,0,0.2,0.2,0.4,0.2 M21.7,76.5c-0.2,2,0.6,3.9,2.3,5
						c1.6,1.3,3.2,2.6,5.3,2.8c0.7-0.8,0.8-2,0.2-2.8c-0.3-0.4-1-1.1-1.1-1c-1,0.5-1.4-0.3-1.9-0.8c-1.3-1.4-2.9-2.4-4.8-2.9V76.5z
						 M26.3,77c-0.1-1.4-0.1-2.8-0.2-3.9L19.5,69c0.7,2.5,1.2,4.6,1.7,6.4L26.3,77z M62.1,63.5c1.4-0.6,1.4-0.6,1.1-1.5l-3.8,0.8
						c0.6,2.4,1.2,4.7,1.9,7.1c1.9-1.1,2.3-3,2.6-4.9C64,64.1,63.7,63.4,62.1,63.5z M52.5,47.5l0.2,0.4l5.5-3L58,44.4
						C55.7,44.8,54.3,46.5,52.5,47.5L52.5,47.5z M51.7,40c-2,0.5-3.8,1.8-5,3.5C48.9,42.5,50.2,41.1,51.7,40L51.7,40z M62.2,60.2
						c-1.5-0.3-3,0.4-3.6,1.7L62.2,60.2z M32,73c0.2,2,0.4,2.1,1.6,1.5L32,73z"/>
				</g>
				<path d="M54.2,76.4c-0.8-0.3-1.6-0.5-2.3-0.6c-1.6-0.2-3.2-0.3-4.8-0.4c-1.2-0.1-2.4,0.1-3.4-1c-0.4-1.5,0.1-3.1,1.2-4.1
					c1.6-1.6,3.2-3.2,4.8-4.7c0.3-0.3,0.7-0.7,1-0.7c0.6,0.1,1.1,0.3,1.6,0.7c0.2,0.2,0,0.9-0.2,1.3c-0.3,0.4-0.7,0.8-1.2,1.1
					c1.8-0.5,3.4-0.9,5-1.3c0.1,0,0.3,0.3,0.5,0.5c-0.8,1.4-2.3,1.7-3.8,2.3c0.1,0.2,0.2,0.4,0.3,0.6s0.2,0.3,0.4,0.6l-1.2,1l2,1.1
					L52,73.5C51.8,75,53.6,74.9,54.2,76.4z M45,72.8c2.2,0.3,2.4,0.1,2-1.8L45,72.8z"/>
			</g>
			<path d="M33.8,88.6c0-1.4,0.5-2.7,1.4-3.7c0.3,1.5,0.6,2.6,1,4.2l1.5-3l0.9,2.8c0.5-1.2,0.9-2.3,1.4-3.4h0.4
				c0.2,0.5,0.3,1.1,0.5,1.6l0.7,1.9c0.6-1.4,1-2.4,1.7-3.9l1.3,2.5c0.3-0.9,0.7-1.8,1-2.7c1.5,0.6,1.1,2.2,2,3l1.1-3.1l1.1,1.2
				l0.7-3.3l1.2,0.9l2.7-3.6c0.5,1.3,0.2,2.8-0.6,3.8c-0.3,0.4-0.7,1.1-0.6,1.5c0.5,1.9-0.8,3.1-1.6,5l-1-2.3l-1,1.7h-0.4L48.8,87
				l-1.3,4c-0.6-1.7-1.1-3-1.6-4.5c-0.5,1.3-0.9,2.3-1.2,3.4h-0.4C44,89,43.8,88.1,43.4,87c-0.5,1.2-1,2.2-1.6,3.6l-1.5-3.2
				c-1.2,1.2-0.5,3-1.8,4.4l-0.6-3.4h-0.3c-0.3,0.9-0.6,1.8-1.1,3.3c-0.5-1.9-0.9-3.3-1.3-5C34.5,87.5,34.1,88.1,33.8,88.6
				L33.8,88.6z"/>
			<path d="M68.1,73.5c-4,0.1-9,4.1-8.8,7.4c-1-0.8-1.3-2.2-0.8-3.3c0.9-2.7,4.9-5.5,7.7-5.4C67.1,72,67.9,72.6,68.1,73.5z"/>
			<path d="M36.6,94.2l6.1,0.4C40.7,95.5,38.4,95.4,36.6,94.2z"/>
		</g>
		<path d="M32,87.6l0.6-1.5c0.5,1-0.1,2.2,1.1,2.5l0,0c-0.1,0.5-0.2,0.9-0.4,1.7L32,87.6L32,87.6z"/>
		<path class="st5" d="M50.2,48.7l1.2,0.1l-1.9,1.3L50.2,48.7z"/>
		<path d="M37.7,52l0.9-1l0.3,0.2L38,52.3L37.7,52z"/>
		<path class="st5" d="M21.7,76.7c1.9,0.5,3.5,1.6,4.8,3.1c0.5,0.5,0.9,1.3,1.9,0.8c0.2-0.1,0.9,0.6,1.1,1c0.6,0.9,0.5,2.1-0.2,2.8
			c-2-0.2-3.6-1.5-5.3-2.8C22.4,80.6,21.5,78.7,21.7,76.7z"/>
		<path class="st5" d="M26.3,77.3l-5.1-1.9c-0.5-1.8-1-3.9-1.7-6.4l6.6,4.4C26.2,74.5,26.2,75.9,26.3,77.3z"/>
		<path class="st5" d="M62.1,63.5c1.6-0.1,1.9,0.6,1.7,1.6C63.5,67,63,68.9,61.2,70c-0.7-2.5-1.2-4.7-1.9-7.2l3.8-0.8
			C63.5,62.9,63.5,62.9,62.1,63.5z"/>
		<path class="st5" d="M28.7,77.5c-0.4-0.5-0.6-1.1-0.8-1.8c-0.1-2.2,0-4.3,0-6.8c0.8,0.5,1.5,1,1.3,1.7c-0.5,1.7,0.6,2.3,1.7,2.9
			c0.1,0.1,0.2,0.2,0.1,0.1L28.7,77.5L28.7,77.5z"/>
		<path class="st5" d="M65.3,54.3l-1-1c3.1-0.9,6-1.6,8.9-1.2l0.1,0.5c-0.4,0.2-0.8,0.3-1.2,0.4c-2.3,0.4-4.8,0.3-7,1.3H65.3z"/>
		<path class="st5" d="M52.5,47.5c1.8-1,3.2-2.7,5.4-3.1l0.2,0.5l-5.5,3L52.5,47.5z"/>
		<path class="st5" d="M51.7,40.1c-1.5,1.1-2.8,2.5-5,3.5C48,41.8,49.7,40.6,51.7,40.1z"/>
		<path class="st5" d="M62.2,60.2l-3.6,1.7C59.2,60.5,60.7,59.8,62.2,60.2z"/>
		<path class="st5" d="M32,73l1.6,1.5C32.5,75.1,32.3,75,32,73z"/>
		<path class="st5" d="M45,72.8l2-1.8C47.4,72.9,47.3,73,45,72.8z"/>
	</g>
</g>
</svg>
