<?xml version="1.0" encoding="utf-8"?>
<!-- Generator: Adobe Illustrator 23.0.6, SVG Export Plug-In . SVG Version: 6.00 Build 0)  -->
<svg version="1.1" id="Layer_1" xmlns="http://www.w3.org/2000/svg" xmlns:xlink="http://www.w3.org/1999/xlink" x="0px" y="0px"
	 viewBox="0 0 100 120" style="enable-background:new 0 0 100 120;" xml:space="preserve">
<style type="text/css">
	.st0{fill:#3FA9F5;}
	.st1{font-family:'Badonk-a-donk';}
	.st2{font-size:10px;}
	.st3{letter-spacing:-1;}
	.st4{letter-spacing:-2;}
	.st5{clip-path:url(#SVGID_2_);}
	.st6{fill:#FFFFFF;}
</style>
<title>AvalonCards</title>
<rect x="0.1" class="st0" width="100" height="120"/>
<text transform="matrix(1 0 0 1 16.2652 15.36)" class="st1 st2">Pe</text>
<text transform="matrix(1 0 0 1 34.6852 15.36)" class="st1 st2 st3">r</text>
<text transform="matrix(1 0 0 1 43.4352 15.36)" class="st1 st2">c</text>
<text transform="matrix(1 0 0 1 52.8052 15.36)" class="st1 st2">i</text>
<text transform="matrix(1 0 0 1 56.6452 15.36)" class="st1 st2 st4">v</text>
<text transform="matrix(1 0 0 1 64.0152 15.36)" class="st1 st2">al</text>
<g>
	<defs>
		<rect id="SVGID_1_" x="0.1" y="36.7" width="100" height="83.3"/>
	</defs>
	<clipPath id="SVGID_2_">
		<use xlink:href="#SVGID_1_"  style="overflow:visible;"/>
	</clipPath>
	<g class="st5">
		<polygon class="st6" points="51.9,99.7 62.5,99.7 66,92.6 69.5,86.8 73.1,86.8 76.6,80.9 77.8,69.1 76.6,60.9 67.2,52.6 
			60.1,50.3 57.8,49.1 48.4,50.3 37.8,55 36.6,59.7 33.1,72.6 30.1,76.9 30.2,81.7 33,86 37.8,86.8 40.1,92.6 43.7,95 48.4,96.2 
			48.4,97.3 		"/>
		<path class="st6" d="M40.1,55.1c-0.2,0.5-0.3,0.9-0.3,1.4c0.1,2.6,0.3,5.2,0.5,7.7c0,0.2,0.3,0.4,0.6,0.9c0.1-0.9,0.1-1.4,0.2-2
			C41.1,60.4,40.8,57.7,40.1,55.1c0.3-0.3,0.5-0.8,0.8-1c3.1-1.8,6.7-3,10.3-3.3c0.9,0,1.7-0.3,2.5-0.8c1.6-1,3.4-0.5,5.1-0.1
			c0.4,1.5,1.9,1.4,3,1.7c1.9,0.5,3.6,1.4,5.1,2.7l0.8,8.7l1.4-1.8l0,0l-0.7,3.9l-2.7-1.4c-0.1-2.7,0.4-5.4-0.8-7.9v7.6H63
			c0.2-2.9,0.5-5.8-0.8-8.5v9.7c1.5-0.5,3.2-0.2,4.4,0.8c0.8,0.7,1.5,1.5,2.1,2.3c-4.1-1.5-7.2,0.4-10.2,2.8l-0.9-1.2
			c-1.2,3-2.3,5.7-3.4,8.5c-0.2,0.5-0.3,1.1-0.3,1.6c0.1,0.5,0.5,0.9,0.9,1.2c0.7,0.2,0.8-0.5,1-1.1c0.2-1.1,0.5-2.2,0.8-3.7
			c0.7,0.9,1.2,1.4,1.6,1.9c1.9,2.7,4.7,3.3,7.7,2.9c1.4,0,2.7-0.9,3.2-2.3c-1,0.2-1.7,0.3-2.3,0.3c-1.3,0.2-2.7,0.3-4,0.2
			c-1.4-0.1-2.6-0.7-3.5-1.7c-0.5-0.6-0.6-1.8-1.9-1.6c-0.1,0-0.5-0.5-0.4-0.6c0.3-1.1,0.3-2.5,1-3.1c2.2-1.7,4.7-3.2,7.6-3.4
			c0.8,0,1.6,0.3,2.3,0.7c1.3,0.8,2.6,1.7,4,2.6c0.2-1.4-0.7-1.8-1.2-2.3s-1.4-1.3-2.1-2h1.7c-0.3-0.5-0.5-0.8-0.7-1.1l-0.3-0.5
			c0.8-3.3,0.7-6.4,0.7-9.7c1.8,1.5,3.1,2.8,3,5.1c-0.1,1.7-0.2,3.4-0.3,5.1l1.6,1.4c-1,1.8-0.4,3.9-1.1,5.9
			c-0.4,1.3-0.4,2.8-1.7,3.7c-0.2,0.1-0.2,0.6-0.3,1c1.5-0.4,2.3-1.8,4-1.4c0.8,2.6-0.2,4.7-2,6.5l0.6-2.9c-1,0.7-1.2,2-0.6,2.9
			l-1.9,2.8c1.4,0.8,1.9,0.9,2.7-0.3c1.2-1.5,2.2-3.2,3.1-5c0.4-1.1,0.4-2.3,0.1-3.5c-0.3-1-0.2-2.1,0.4-3c0.4-0.8,0.7-1.7,0.8-2.6
			c0.1-0.8,0.1-1.6,0-2.4l0.9,0.6c0.2-0.7,0.3-1.5,0.4-2.3c-0.1-2.9-1.1-5.7-2.8-8c-0.8-1.2-1.6-2.3-2.4-3.5c-1.5-2.3-3.9-4-6.6-4.6
			c-1.9-0.4-3.8-1-5.5-2c-1.5-0.9-3.3-1.3-5.1-1.3c-3.8-0.2-7.4,0.9-11.1,1.6c-7.3,1.5-14.3,7.7-15.4,16.1c-0.2,0.9-0.6,1.7-1,2.5
			c-0.2,0.3-0.2,0.7-0.3,1c0.1,2.2,0.2,4.4,0.5,6.5c0.1,0.7,0.1,1.3,0,2c-0.8,3.6,2.2,9.2,6.3,8.9c0.2,0,0.4,0.1,0.6,0.2l1.5,4.5
			l-6.2,1.8c-0.2,0.1-0.4,0.1-0.6,0c-2.9-1.1-5.5,0.3-7.8,0.8c-0.5,1.8-1,3.2-1.5,4.7c-0.3,0.6-0.4,1.2-0.5,1.8
			c0.1,0.7,0.3,1.4,0.6,2c-0.9,0.5-1.9,1-2.8,1.4c-3.1,1.4-6.1,2.9-9.2,4.2c-1.1,0.4-1.8,1.4-1.9,2.5c-0.3,1.8-0.7,3.6-1.3,5.3
			c-0.6,1.9-1.4,3.8-2.1,5.8c0,0.1,0.1,0.2,0.2,0.3l1-0.3l0.1,1.1L4,123.7c0.2,0.3,0.6,0.4,0.9,0.4c2.8,0.1,5.6,0.2,8.5,0.3
			c11.3,0.3,22.6,0.2,33.9-0.3c9.3-0.4,18.6-0.7,27.9-0.6c6.7,0.1,13.4-0.7,20-1.2c0.1,0,0.2-0.1,0.5-0.3c0.1-1.2-0.3-2.4-1-3.3
			c-0.4-0.6-0.8-1.2-1-1.9c-1.5-3.2-2.6-6.6-3.3-10.1c-0.1-1.5-1.2-2.8-2.7-3.1c-3.2-0.9-6.4-2.1-9.5-3.1c0-0.2,0-0.3,0.1-0.4
			c1.6-1.5,1.3-3.5,0.9-5.1s-2.3-0.7-3.6-0.8c-0.6-0.1-1.1,0-1.7,0c-2.3-0.1-4.6-0.5-6.8-1c4-8,4.3-8.8,3.6-10.3
			c-0.1,0.1-0.3,0.2-0.3,0.3c-0.5,3-2.5,5.3-3.8,8c-0.2,0.5-0.6,1-1,1.4c-0.8,0.6-1.3,1.4-1.5,2.4c-0.4,1.4-1.6,2.4-3,2.6
			c-3.1,0.7-6.2,0.4-9.3,0.5c-1.3,0.1-2.5-0.6-3.2-1.7l0.9-1.2c-0.4-0.3-0.8-0.5-1.2-0.6c-0.6,0-1.3,0-1.9,0
			c-2.5,0.2-4.7-1.5-5.2-3.9c-0.4-1.3-1-2.6-1.5-3.9s-1.2-2.8-2-4.5l-0.6,2.9c-1.7,0.7-2.8,0.2-3.7-1.2c-1.3-1.8-2.2-3.7-1.5-6.2
			l3.3,1c-0.4-0.7-1-1.2-1.7-1.6c-0.8-0.4-1-0.9-0.3-1.6l1.6,1.5c2.4-0.9,0.8-3.4,2.3-4.6c0.1-0.1,0-0.4-0.1-0.6
			c-0.3-1.2-0.5-2.3-0.8-3.5c0-0.1,0.1-0.2,0.2-0.3l0.9,0.5c0.3-0.7,0.5-1.5,0.6-2.2c-0.1-2-0.3-4.1-0.5-6.1c-0.1-1-0.2-2.1-0.4-3.1
			h0.4c0.1,1,0.2,2.1,0.3,3.1c0.2,1.5,0.3,2.9,0.5,4.4c0,0.3,0.3,0.6,0.5,0.9c0.1-2.5-0.1-5-0.4-7.4C37.8,56.1,37.8,56.1,40.1,55.1z
			"/>
		<path class="st6" d="M51.1,77.5l-0.5-0.6c-1.7,1-3.5,1.9-5.4,2.6c-1.9,0.4-3.9,0.7-5.9,0.9c2.8,1.9,5.8,1.5,8.8,0
			C49.4,79.7,50.9,79.2,51.1,77.5z"/>
		<path class="st6" d="M38,76.4c1.1-2.3,2.8-4.3,5-5.6c2.2-1.2,4.8-1,7.3-1.3c-1.3-1.4-1.7-1.6-3.2-1.5c-2.6,0.2-5.1,1.4-6.9,3.2
			C38.8,72.6,37.3,73.9,38,76.4z"/>
		<path class="st6" d="M54,84.8c0.5,0.8,0.7,1.2,1,1.4c1.3,0.8,2.8,0.4,3.9-0.9c1-1.1,1.1-2.1,0.3-3s-1.3-1-2.9-0.1l1.3,1.7
			C56.8,85.1,55.6,85,54,84.8z"/>
		<path class="st6" d="M60.6,90c-3-1.5-8.4-0.8-10.3,1L60.6,90z"/>
		<path class="st6" d="M44.2,53.5c0.6,3.6,0,7.4,0.9,11C45.9,60.8,45.6,57,44.2,53.5z"/>
		<path class="st6" d="M54.9,65.4c0-4.2,0.3-7.9-1-11.5c0,3.6,0.1,7.3,0.3,10.9C54.2,64.8,54.4,64.9,54.9,65.4z"/>
		<path class="st6" d="M43.3,67.2c2.4-0.5,5-0.2,7.6-1.6c-0.6-0.4-1-0.8-1.3-0.7C47.5,65.2,45.2,65.4,43.3,67.2z"/>
		<path class="st6" d="M42.7,63.9c1.1-2.1,0.3-8-1-9.3C42,57.7,42.4,60.8,42.7,63.9z"/>
		<path class="st6" d="M56.4,54c0.1,3.4,0.3,6.6,0.4,10.1C58,62.1,57.8,56.8,56.4,54z"/>
		<path class="st6" d="M58.8,54.5c0,1.6-0.1,3.1,0,4.7s-0.6,3.2,0.1,4.8C59.9,60.9,59.8,57.6,58.8,54.5z"/>
		<path class="st6" d="M51.9,54.3c0.1,2.9,0.2,5.9,0.4,9C53.4,61.5,53.2,56.6,51.9,54.3z"/>
		<path class="st6" d="M67.7,73.9c0-0.8-0.7-1.4-1.5-1.4c-0.8,0.1-1.4,0.6-1.6,1.4c0.1,0.8,0.8,1.4,1.6,1.4
			C67,75.3,67.7,74.7,67.7,73.9L67.7,73.9z"/>
		<path class="st6" d="M60.6,54.8c0,1.3,0,2.2,0,3.1s0,1.7-0.1,2.5s-0.2,1.6-0.3,2.4C61.7,60.5,61.8,57.4,60.6,54.8z"/>
		<path class="st6" d="M45.4,72.4c-0.4,0.5-0.6,1-0.8,1.6s0.2,1.2,0.8,1.4c0.1,0,0.2,0,0.4,0c0.7,0,1.3,0,1.5-0.8
			C47.2,73.5,46.5,72.6,45.4,72.4z"/>
		<path class="st6" d="M47.2,54c0,1.4,0.1,2.8,0.3,4.1c0.3,1.3-0.2,2.8,0.9,4C48.1,59.3,48.3,56.6,47.2,54z"/>
		<path class="st6" d="M50.4,55c-0.7,3.9-0.5,6.2,0.5,7.4L50.4,55z"/>
		<path class="st6" d="M51.1,69.4c0.5,1.2,0.7,2.1,1.1,2.9c0.2,0.3,0.5,0.4,0.9,0.4c0.2-0.1,0.7-0.5,0.6-0.7
			c-0.2-0.7-0.5-1.4-0.9-2.1C52.5,69.6,51.9,69.6,51.1,69.4z"/>
		<path class="st6" d="M70.8,65.5c1.2-2.5,1.2-5.1,0-6.8V65.5z"/>
		<path class="st6" d="M34.4,82.2c-0.1-2.1-0.2-2.3-1.5-2.2L34.4,82.2z"/>
		<path d="M68.6,67.7c-0.7-0.8-1.4-1.6-2.1-2.3c-1.2-1.1-2.9-1.4-4.4-0.8v-9.7c1.4,2.7,1,5.6,0.8,8.5h1.9v-7.6
			c1.2,2.5,0.7,5.2,0.8,7.9l2.7,1.4c0.2-1.4,0.5-2.6,0.7-3.9c0-1.5,0-3.1,0-4.6c0.1-0.9-0.5-1.7-1.4-1.8c0.3,1.6,0.5,3,0.8,4.5
			c0.2,0.7,0.4,1.3,0.7,1.9L67.6,63l-0.8-8.7c-1.5-1.2-3.2-2.1-5.1-2.7c-1.1-0.3-2.5-0.2-3-1.7C57,49.4,55.2,49,53.6,50
			c-0.8,0.5-1.6,0.8-2.5,0.8c-3.6,0.3-7.1,1.5-10.3,3.3c-0.3,0.2-0.5,0.6-0.8,1l0,0c-2.3,1-2.3,1-1.9,3.4c0.4,2.5,0.5,5,0.4,7.5
			c-0.2-0.3-0.5-0.6-0.5-0.9c-0.2-1.5-0.3-2.9-0.5-4.4c-0.1-1-0.2-2.1-0.3-3.1h-0.4c0.1,1,0.3,2.1,0.4,3.1c0.2,2,0.4,4.1,0.5,6.1
			c-0.1,0.8-0.3,1.5-0.6,2.2l-0.9-0.5c0,0.1-0.2,0.2-0.2,0.3c0.3,1.2,0.5,2.3,0.8,3.5c0,0.2,0.2,0.5,0.1,0.6c-1.5,1.2,0,3.7-2.3,4.6
			L33,76c-0.7,0.7-0.5,1.2,0.3,1.6c0.7,0.3,1.3,0.9,1.7,1.6l-3.3-1c-0.8,2.5,0.2,4.4,1.5,6.2c1,1.4,2,1.9,3.7,1.2l0.6-2.9
			c0.8,1.7,1.4,3.1,2,4.5s1.1,2.6,1.5,3.9c0.6,2.4,2.8,4,5.3,3.8c0.6,0,1.3,0,1.9,0c0.4,0.1,0.8,0.4,1.2,0.6l-0.9,1.2
			c0.7,1.1,1.9,1.7,3.2,1.7c3.1-0.1,6.2,0.2,9.3-0.5c1.4-0.2,2.6-1.2,3-2.6c0.2-1,0.7-1.8,1.5-2.4c0.4-0.4,0.8-0.8,1-1.4
			c1.3-2.6,3.3-4.9,3.8-8c0-0.1,0.2-0.2,0.3-0.3c0.7,1.5,0.4,2.3-3.6,10.3c2.2,0.5,4.5,0.9,6.8,1c0.6,0,1.1-0.1,1.7,0
			c1.3,0.1,3.2-0.8,3.6,0.8s0.7,3.6-0.9,5.1c-0.1,0.1-0.1,0.3-0.1,0.4c3.2,1,6.3,2.2,9.5,3.1c1.5,0.3,2.5,1.6,2.7,3.1
			c0.7,3.5,1.9,6.9,3.4,10.2c0.2,0.7,0.6,1.3,1,1.9c0.7,1,1.1,2.1,1,3.3c-0.2,0.2-0.3,0.3-0.5,0.3c-6.7,0.5-13.3,1.3-20,1.2
			c-9.3-0.2-18.6,0.2-27.9,0.6c-11.3,0.5-22.6,0.6-33.9,0.3c-2.8-0.1-5.6-0.2-8.5-0.3c-0.4,0-0.7-0.1-0.9-0.4l2.4-0.7l-0.1-1.1
			l-1,0.3c-0.1-0.1-0.2-0.2-0.2-0.3c0.7-1.9,1.5-3.8,2.1-5.8c0.6-1.7,1-3.5,1.3-5.3c0.1-1.1,0.8-2.1,1.9-2.5
			c3.1-1.3,6.2-2.8,9.2-4.2c1-0.4,1.9-1,2.8-1.4c-0.3-0.6-0.5-1.3-0.6-2c0.1-0.6,0.3-1.2,0.5-1.8c0.5-1.5,0.9-2.9,1.5-4.7
			c2.4-0.4,5-1.8,7.8-0.8c0.2,0.1,0.4,0.1,0.6,0l6.3-1.8L37,87.3c-0.2-0.1-0.4-0.2-0.6-0.2c-4,0.3-7.1-5.3-6.3-8.9
			c0.1-0.7,0.1-1.3,0-2c-0.3-2.2-0.4-4.3-0.5-6.5c0-0.3,0.1-0.7,0.3-1c0.4-0.8,0.8-1.6,1-2.5C32,57.8,39,51.6,46.3,50.1
			c3.6-0.7,7.3-1.8,11.1-1.6c1.8,0,3.5,0.5,5.1,1.3c1.7,1,3.5,1.6,5.5,2c2.7,0.6,5.1,2.3,6.6,4.6c0.8,1.2,1.6,2.3,2.4,3.5
			c1.8,2.3,2.8,5.1,2.8,8c-0.1,0.8-0.2,1.5-0.4,2.3l-0.9-0.6c0.1,0.8,0.1,1.6,0,2.4c-0.1,0.9-0.4,1.8-0.8,2.6c-0.6,0.9-0.7,2-0.4,3
			c0.3,1.2,0.2,2.4-0.3,3.5c-0.8,1.8-1.9,3.5-3.1,5c-0.8,1.1-1.3,1.1-2.7,0.3l1.8-2.8l0,0c1.9-1.8,2.8-3.9,2-6.5
			c-1.8-0.4-2.6,1.1-4,1.4c0.1-0.4,0.1-0.8,0.3-1c1.3-0.9,1.3-2.3,1.7-3.7c0.7-2,0-4.1,1.1-5.9l-1.6-1.5c0.1-1.8,0.2-3.5,0.3-5.1
			c0.2-2.2-1.1-3.6-3-5.1c-0.1,3.3,0.1,6.4-0.7,9.7l0.3,0.5c0.2,0.3,0.3,0.6,0.7,1.1L68.6,67.7L68.6,67.7z M60.1,110.5
			c-2.2,1-4.5,0.5-6.9,0.5c0.1-1.2,1-1.2,1.6-1.5c2.1-0.7,4.2-1.3,5.7-3.1c2.4-2.8,4.9-5.6,5.8-9.4c0.2-1,0.7-1.2,1.6-1.2
			s1.7,0,2.5,0v-0.2l-4.8-1.5c-0.5,1.8-0.9,3.4-1.4,5.3l-2.8,0.6c-0.1,1.5-0.2,2.9-0.3,4.3c0,0.2-0.5,0.7-0.6,0.7
			c-0.4-0.1-0.7-0.4-0.8-0.7c-0.1-0.4-0.1-0.8,0-1.2c0-0.9,0-1.8,0-2.8c-1.1,0-2,0-2.9,0c-1.5,0.1-3,0-4.4-0.2
			c-2.3-0.4-4.9-0.7-5.2-3.8h-3.5c-0.1,1.4-0.3,3-0.4,4.5c0,0.5,0.2,0.9,0.5,1.3c2.9,3.4,5.6,7.1,9.4,9.7c0.5,0.4,1.2,0.7,0.9,1.7
			h-3.5c-0.6,1.3-0.8,1.4-2,0.9c-0.8-0.3-1.5-0.7-2.2-1.2c-2.8-1.8-5.6-3.6-8.3-5.4s-5.1-3.8-7.6-5.7c-0.6-0.6-1.2-1.2-1.7-1.9
			c3.9,2.3,7.5,4.8,11.2,7.1c2.7,1.6,5.5,2.8,8.3,4.1c0.5,0.2,1,0.3,1.5,0.3l0.2-0.4c-1.1-1-2.2-1.9-3.4-2.7
			c-4.2-2.3-7.7-5.8-9.9-10.1c-0.6,0.3-1.3,0.4-2,0.5c-2.8-0.2-5.5-0.9-8-2c-0.5-0.2-1-0.3-1.5-0.5c-0.5,1.9-1,3.6-1.6,5.7l2.7-1.5
			c2,1.8,3.9,3.5,5.9,5.2c2.2,2,4.9,3.6,7.8,4.5c1.8,0.7,3.6,1.6,5.3,2.7c0.2,0.1,0.3,0.3,0.4,0.5c0.6,2.8,2.5,4.6,4.5,6.4
			c1,0.9,1.9,1.8,3.5,1.6c1.3-0.1,2.7-0.2,4-0.2c-2.6-1.6-4.8-3.8-6.5-6.4l4.5,1.8l0.1-0.3l-1.5-1.3c1.2-0.1,2-0.2,2.9-0.3
			c0.1,0,0.1-0.3,0.2-0.6l-2-0.5c0.8-0.6,1.3-1,1.8-1.3C57.9,111.9,59,111.2,60.1,110.5c0.2,0,0.5,0,0.7-0.1c4.4-3,9.3-5.5,12.9-9.8
			c-0.4,1.8-1.8,3-2.7,4.4c2.8-1.9,5.8-3.7,6.5-7.4c0-0.2-0.3-0.4-0.6-0.9l-0.2,1.7c-2.9,0.6-5.9,0.8-8.8,0.4
			c-0.1,0.2-0.3,0.4-0.4,0.7c-1.1,4.1-3.5,7.8-6.9,10.4C60.4,110,60.2,110.3,60.1,110.5z M20.1,115.9l-0.8-2.1l2.7,0.3
			c-0.2-0.5-0.4-0.9-0.7-1.6c1.9,0.5,3.1,1.7,4.9,2.7l-1.9-3.7c1.5-0.2,2.9-0.7,4.4,0.6c-0.3-1-0.5-1.6-0.7-2.5l2.8,0.8l-0.7-1.9
			c0.8,1.2,2.1-0.4,3,0.6c0.9,0.8,1.9,1.4,3,2l0.4-0.5c-3.5-2.9-7.4-5.3-10-9.3c-4.9,4.2-10.6,6.9-15.7,10c-0.1,2-0.4,4.1-0.8,6.1
			c-0.6,1.9-1.4,3.8-2.3,5.5h12.7l-3.5-4c1.6-0.6,1.5-1.7,1-3H20.1z M91,120c-0.4,0.2-0.5,0.3-0.6,0.3c-0.4-0.1-0.8-0.3-1.2-0.4
			c-1.6-0.7-1.6-0.7-1.4-2.5c0-0.8,0-1.7-0.1-2.5c-0.2-1.7-0.4-3.5-0.5-5.2c-0.1-0.8,0.1-1.7,0.1-2.5c0.1-0.8-0.4-1.6-1.2-1.8
			c-2.6-1-5.1-2-7.7-3c-0.8-0.4-1.7-0.1-2.2,0.6c-1.1,1.2-2.3,2.3-3.6,3.3c-4.3,3.6-9,6.7-14,9.3l7.3,2v-0.2l-3.5-2.9
			c0.6-0.3,1-0.8,1.4-0.8c1.4,0,2.3-0.9,3.3-1.7c2.7-2,5.5-4,8.2-5.9c0.2-0.1,0.4-0.1,0.6-0.2l-0.5,1.6l3.5-2.4
			c-0.2,1.4-0.4,2.4-0.6,3.6l1.5-0.9c-0.4,1.7-0.7,3.1-1,4.5l0.3,0.1l1.4-1.6l0.2,0.1c-0.6,1.7-1.2,3.4-1.8,5.1l0.3,0.2l2.1-1.4
			l-1.3,6.3c4.8,0.5,11.3,0.3,13.8-0.6c-2-0.2-2.1-2.1-3.5-3.3C90.7,118.5,90.8,119.2,91,120z M39.2,93.1c-3.9,1.9-8,1.8-11.9,2.8
			c0.3,0.1,0.7,0.2,1,0.2c3.1-0.2,6.3-0.5,9.4-0.8c0.9-0.1,1.8-0.5,2.6,0.6l-0.8,1.4l2,2.3C42.4,96.6,41.5,94.6,39.2,93.1z M35,60.1
			c-2,2-4.1,7.5-4,10.5c0,0.7-0.2,1.5,0.8,1.9c0.3-1.3,0.6-2.5,0.9-3.7s0.9-2.4,1.4-3.5C34.7,63.6,35,61.8,35,60.1z M37.2,97.1
			c1.3,3.2,4.3,6.6,6.5,7.4c-1.7-2.4-3.4-4.8-5.2-7.1C38.3,97.2,37.8,97.2,37.2,97.1z M23.6,122.3c1.5,0.7,3.3,0.6,4.8-0.1
			c-1.2-0.3-2.5-0.4-3.7-0.5C24.3,121.8,24,122.1,23.6,122.3z M6.7,120.7l0.5,0.2c0.2-0.8,1.2-1.4,0.5-2.8L6.7,120.7z M76.9,63.8
			c-0.9,0.9-0.3,1.4,0,1.9c0,0,0.2,0,0.4,0L76.9,63.8z M75,63.4h-0.3v1.9h0.1L75,63.4z M36.4,122v0.2h1.9V122H36.4z M76.5,67.4
			L76,67.1l-0.7,1.6l0.3,0.2L76.5,67.4z"/>
		<path d="M68.5,67.7c0.7,0.7,1.4,1.3,2.1,2s1.5,0.9,1.2,2.3c-1.4-1-2.7-1.9-4-2.6c-0.7-0.5-1.5-0.7-2.3-0.7
			c-2.9,0.1-5.4,1.7-7.6,3.4c-0.7,0.6-0.8,2-1,3.1c0,0.2,0.3,0.7,0.4,0.6c1.3-0.2,1.3,1,1.9,1.6c0.9,1,2.2,1.6,3.5,1.7
			c1.3,0,2.7-0.1,4-0.2c0.7-0.1,1.3-0.2,2.3-0.3c-0.5,1.3-1.7,2.2-3.2,2.3c-3,0.4-5.8-0.2-7.7-2.9c-0.4-0.6-0.9-1.1-1.6-1.9
			c-0.3,1.4-0.6,2.6-0.8,3.7c-0.1,0.6-0.2,1.3-1,1.1c-0.5-0.2-0.8-0.7-0.9-1.2c-0.1-0.6,0-1.1,0.3-1.6c1.1-2.8,2.2-5.5,3.4-8.5
			l0.9,1.2c3-2.4,6.2-4.3,10.2-2.8L68.5,67.7z"/>
		<path d="M51.1,77.5c-0.2,1.7-1.7,2.2-3,2.9c-3,1.5-5.9,1.9-8.8,0c2-0.1,3.9-0.4,5.9-0.9c1.9-0.7,3.7-1.6,5.4-2.6L51.1,77.5z"/>
		<path d="M38,76.4c-0.7-2.4,0.8-3.7,2.2-5.1c1.8-1.9,4.3-3,6.9-3.3c1.5-0.1,1.8,0,3.2,1.4c-2.5,0.3-5.1,0.1-7.3,1.3
			C40.8,72.1,39,74,38,76.4z"/>
		<path d="M54,84.8c1.7,0.2,2.8,0.3,3.6-1l-1.3-1.7c1.6-0.8,2.2-0.8,2.9,0.1s0.7,1.9-0.3,3c-1.2,1.4-2.6,1.8-3.9,0.9
			C54.7,86,54.5,85.6,54,84.8z"/>
		<path d="M60.6,90l-10.3,1C52.2,89.2,57.7,88.5,60.6,90z"/>
		<path d="M44.2,53.5c1.4,3.5,1.7,7.3,0.9,11C44.2,60.9,44.8,57.2,44.2,53.5z"/>
		<path d="M54.9,65.4c-0.5-0.5-0.7-0.6-0.7-0.6c-0.2-3.6-0.3-7.2-0.3-10.9C55.2,57.5,55,61.2,54.9,65.4z"/>
		<path d="M43.3,67.2c1.8-1.7,4.2-1.9,6.4-2.4c0.3-0.1,0.6,0.3,1.3,0.7C48.4,66.9,45.8,66.7,43.3,67.2z"/>
		<path d="M42.7,63.9c-0.3-3.1-0.7-6.2-1-9.3C43,55.9,43.9,61.8,42.7,63.9z"/>
		<path d="M56.4,54c1.4,2.7,1.6,8.1,0.4,10.1C56.7,60.7,56.5,57.5,56.4,54z"/>
		<path d="M58.8,54.5c1,3.1,1.1,6.4,0.1,9.5c-0.7-1.6,0-3.2-0.1-4.8S58.8,56.1,58.8,54.5z"/>
		<path d="M51.9,54.3c1.3,2.3,1.6,7.2,0.4,9C52.1,60.2,52,57.2,51.9,54.3z"/>
		<path d="M40.1,55.1c0.7,2.6,1,5.3,1,8.1c0,0.5-0.1,1.1-0.2,2c-0.4-0.5-0.6-0.7-0.6-0.9c-0.2-2.6-0.4-5.2-0.5-7.7
			C39.8,56,39.9,55.6,40.1,55.1L40.1,55.1z"/>
		<path d="M67.7,73.9c0,0.8-0.7,1.4-1.5,1.4l0,0c-0.8,0-1.5-0.6-1.6-1.4c0.1-0.8,0.8-1.4,1.6-1.4C67,72.5,67.7,73.1,67.7,73.9z"/>
		<path d="M60.6,54.8c1.2,2.6,1,5.6-0.5,8.1c0.1-0.8,0.2-1.6,0.3-2.4s0.1-1.7,0.1-2.5S60.6,56.1,60.6,54.8z"/>
		<path d="M45.4,72.4c1,0.2,1.8,1.1,1.8,2.1c-0.2,0.8-0.8,0.8-1.5,0.8c-0.6,0-1.1-0.4-1.2-1.1c0-0.1,0-0.2,0-0.3
			C44.8,73.4,45.1,72.9,45.4,72.4z"/>
		<path d="M47.2,54c1,2.6,0.9,5.4,1.2,8.1c-1.1-1.2-0.6-2.7-0.9-4C47.3,56.8,47.2,55.4,47.2,54z"/>
		<path d="M50.4,55l0.5,7.4C49.8,61.1,49.6,58.9,50.4,55z"/>
		<path d="M51.1,69.4c0.8,0.2,1.5,0.2,1.7,0.6c0.4,0.6,0.7,1.3,0.9,2.1c0,0.2-0.4,0.7-0.6,0.7c-0.3,0-0.7-0.1-0.9-0.4
			C51.8,71.5,51.5,70.6,51.1,69.4z"/>
		<path d="M70.8,65.5v-6.8C72,60.4,72,63,70.8,65.5z"/>
		<path d="M34.4,82.2L32.9,80C34.1,79.9,34.3,80.1,34.4,82.2z"/>
		<path d="M73,83.6c-0.6-1-0.3-2.3,0.6-2.9C73.4,81.8,73.2,82.7,73,83.6L73,83.6z"/>
		<path class="st6" d="M60.1,110.4c-1.1,0.7-2.2,1.4-3.3,2.2c-0.5,0.3-0.9,0.7-1.8,1.3l2,0.5c-0.1,0.2-0.1,0.6-0.2,0.6
			c-0.9,0.1-1.7,0.2-2.9,0.3l1.6,1.3l-0.1,0.3l-4.5-1.8c1.7,2.6,3.9,4.7,6.5,6.4c-1.3,0-2.7,0-4,0.2c-1.6,0.3-2.5-0.7-3.5-1.6
			c-1.9-1.8-3.9-3.7-4.5-6.4c-0.1-0.2-0.2-0.4-0.4-0.5c-1.7-1.1-3.4-1.9-5.3-2.7c-2.9-0.9-5.5-2.5-7.7-4.5c-2-1.7-3.9-3.4-5.9-5.2
			l-2.7,1.5c0.6-2.1,1.1-3.8,1.6-5.7c0.5,0.2,1,0.3,1.5,0.5c2.5,1.1,5.2,1.8,8,2c0.7-0.1,1.4-0.2,2-0.5c2.2,4.3,5.7,7.8,9.9,10.1
			c1.2,0.8,2.4,1.7,3.4,2.7l-0.2,0.4c-0.5-0.1-1-0.2-1.5-0.3c-2.8-1.3-5.7-2.6-8.3-4.1c-3.8-2.3-7.3-4.8-11.2-7.1
			c0.5,0.7,1.1,1.3,1.7,1.9c2.5,2,5,3.9,7.6,5.7s5.5,3.7,8.3,5.4c0.7,0.5,1.5,0.9,2.2,1.2c1.1,0.5,1.3,0.4,2-0.9H54
			c0.3-0.9-0.4-1.3-0.9-1.7c-3.8-2.6-6.5-6.2-9.4-9.7c-0.3-0.4-0.5-0.8-0.5-1.3c0.1-1.5,0.2-3.1,0.4-4.5h3.5
			c0.3,3.1,2.8,3.4,5.2,3.8c1.5,0.2,3,0.2,4.4,0.2c0.9,0,1.8,0,2.9,0c0,1,0,1.9,0,2.8c-0.1,0.4-0.1,0.8,0,1.2
			c0.2,0.3,0.5,0.6,0.8,0.7c0.1,0.1,0.6-0.4,0.6-0.7c0.2-1.4,0.2-2.8,0.3-4.3l2.8-0.6c0.5-1.9,0.9-3.5,1.4-5.3l4.9,1.5v0.2
			c-0.8,0-1.7,0-2.5,0S66.7,96,66.4,97c-0.9,3.8-3.4,6.6-5.8,9.4c-1.5,1.8-3.6,2.4-5.7,3.1c-0.7,0.2-1.6,0.2-1.6,1.5
			c2.4,0,4.7,0.6,6.9-0.5L60.1,110.4z"/>
		<path class="st6" d="M20,115.9h-2.3c0.5,1.3,0.6,2.4-1,3l3.5,4.1H7.6c0.9-1.8,1.7-3.6,2.3-5.5c0.4-2,0.7-4,0.8-6.1
			c5.1-3.1,10.8-5.8,15.7-10c2.6,4,6.5,6.4,10,9.3l-0.4,0.5c-1.1-0.6-2.1-1.2-3-2c-0.9-1-2.2,0.6-3-0.6l0.7,1.9l-2.8-0.8
			c0.3,0.9,0.4,1.5,0.7,2.5c-1.5-1.3-2.9-0.7-4.4-0.6l1.9,3.7c-1.8-1-3-2.2-4.9-2.7c0.3,0.7,0.5,1.1,0.7,1.6l-2.7-0.3L20,115.9z"/>
		<path class="st6" d="M91,120c-0.2-0.8-0.3-1.5-0.5-2.5c1.4,1.1,1.6,3.1,3.5,3.3c-2.5,0.8-9,1.1-13.8,0.6l1.3-6.3l-2.1,1.4
			l-0.3-0.2c0.6-1.7,1.2-3.4,1.8-5.1l-0.2-0.1l-1.4,1.6l-0.3-0.1c0.3-1.4,0.6-2.9,1-4.5l-1.5,0.9c0.2-1.1,0.4-2.1,0.6-3.6l-3.5,2.4
			L76,106c-0.2,0.1-0.5,0-0.6,0.2c-2.8,2-5.5,3.9-8.2,5.9c-1,0.8-1.9,1.6-3.3,1.7c-0.4,0-0.8,0.4-1.4,0.8l3.6,2.9v0.2l-7.3-2.1
			c5-2.6,9.7-5.8,14-9.3c1.3-1,2.5-2.1,3.6-3.3c0.5-0.7,1.4-1,2.2-0.6c2.5,1.1,5.1,2.1,7.7,3c0.8,0.2,1.3,1,1.2,1.8
			c0,0.8-0.1,1.7-0.1,2.5c0.1,1.8,0.4,3.5,0.5,5.2c0.1,0.8,0.2,1.7,0.1,2.5c-0.2,1.8-0.3,1.7,1.4,2.5c0.4,0.2,0.8,0.3,1.2,0.4
			C90.5,120.3,90.6,120.2,91,120z"/>
		<path class="st6" d="M60.1,110.5c0.1-0.2,0.3-0.5,0.4-0.7c3.4-2.6,5.8-6.2,6.9-10.4c0.1-0.2,0.2-0.5,0.4-0.7
			c2.9,0.4,5.9,0.2,8.8-0.4l0.2-1.7c0.3,0.5,0.6,0.7,0.6,0.9c-0.8,3.7-3.7,5.5-6.5,7.4c1-1.5,2.3-2.7,2.7-4.4
			c-3.6,4.3-8.4,6.7-12.9,9.8C60.5,110.5,60.3,110.4,60.1,110.5L60.1,110.5z"/>
		<path class="st6" d="M39.2,93.1c2.3,1.5,3.2,3.5,2.4,6.6l-2-2.3l0.8-1.4c-0.8-1.1-1.7-0.7-2.6-0.6c-3.1,0.3-6.3,0.5-9.4,0.8
			c-0.3,0-0.7-0.1-1-0.2C31.2,94.9,35.3,95,39.2,93.1z"/>
		<path class="st6" d="M35,60.1c0,1.8-0.3,3.5-0.9,5.2c-0.5,1.2-1,2.3-1.4,3.5s-0.6,2.4-0.9,3.7c-1-0.4-0.8-1.2-0.8-1.9
			C30.9,67.5,33,62.1,35,60.1z"/>
		<path class="st6" d="M37.2,97.1c0.6,0.1,1.1,0.1,1.3,0.3c1.8,2.3,3.5,4.7,5.2,7.1C41.5,103.7,38.4,100.3,37.2,97.1z"/>
		<path class="st6" d="M69,61.2c-0.3-0.6-0.5-1.3-0.7-1.9c-0.3-1.4-0.5-2.9-0.8-4.5c0.9,0.1,1.5,0.9,1.4,1.8
			C68.9,58.1,68.9,59.7,69,61.2L69,61.2z"/>
		<path class="st6" d="M6.7,120.7l1-2.6c0.8,1.4-0.3,2-0.5,2.8L6.7,120.7z"/>
		<path class="st6" d="M76.9,63.8l0.4,1.9c-0.2,0-0.4,0-0.4,0C76.6,65.2,76,64.8,76.9,63.8z"/>
		<path class="st6" d="M75,63.4l-0.2,1.9h-0.1v-1.9H75z"/>
		<path class="st6" d="M76.5,67.4l-0.9,1.5l-0.3-0.2l0.7-1.6L76.5,67.4z"/>
	</g>
</g>
</svg>
